{
.appVersion = "3337";
.formatVersion = 3;
DisplayStrings = (
"കാറ്റ് മൃദുവായി വീശുന്നു",
"അ",
"ആ",
"ക",
"ദ",
"ധ",
"ന",
"മ",
"യ",
"റ",
"വ",
"/nanamlym",
"/rrarramlym",
"ൗഊ",
"കൂടാരം",
"പ",
"ല",
"ഘ",
"കെർ",
"െഐ",
"െ",
"ഐ"
);
axes = (
{
name = Weight;
tag = wght;
},
{
name = Width;
tag = wdth;
}
);
classes = (
{
code = "exclam.mlym quotedbl.mlym quotesingle.mlym parenright.mlym asterisk.mlym question.mlym bracketright.mlym braceright.mlym quoteright.mlym quotedblright.mlym";
name = dist;
},
{

glyphs = (
{
glyphname = .notdef;
layers = (
{
background = {
shapes = (
{
closed = 1;
nodes = (
(505,0,l),
(505,714,l),
(94,714,l),
(94,0,l)
);
},
{
closed = 1;
nodes = (
(145,663,l),
(454,663,l),
(454,51,l),
(145,51,l)
);
}
);
};
layerId = "2AD682F6-F6C7-4738-913E-50B961B61BC3";
shapes = (
{
closed = 1;
nodes = (
(505,0,l),
(505,714,l),
(94,714,l),
(94,0,l)
);
},
{
closed = 1;
nodes = (
(145,663,l),
(454,663,l),
(454,51,l),
(145,51,l)
);
}
);
width = 600;
}
);
},
{
glyphname = uni0D00;
layers = (
{
anchors = (
{
name = _b.uni0D00;
pos = (-278,-311);
}
);
background = {
shapes = (
{
closed = 1;
nodes = (
(-462,620,o),
(-396,552,o),
(-278,552,cs),
(-160,552,o),
(-93,620,o),
(-93,708,cs),
(-93,798,o),
(-163,864,o),
(-278,864,cs),
(-393,864,o),
(-462,797,o),
(-462,708,cs)
);
},
{
closed = 1;
nodes = (
(-336,738,o),
(-318,763,o),
(-278,763,cs),
(-241,763,o),
(-219,739,o),
(-219,709,cs),
(-219,681,o),
(-237,653,o),
(-278,653,cs),
(-319,653,o),
(-336,679,o),
(-336,708,cs)
);
}
);
};
layerId = "2AD682F6-F6C7-4738-913E-50B961B61BC3";
shapes = (
{
closed = 1;
nodes = (
(-462,620,o),
(-396,552,o),
(-278,552,cs),
(-160,552,o),
(-93,620,o),
(-93,708,cs),
(-93,798,o),
(-163,864,o),
(-278,864,cs),
(-393,864,o),
(-462,797,o),
(-462,708,cs)
);
},
{
closed = 1;
nodes = (
(-336,738,o),
(-318,763,o),
(-278,763,cs),
(-241,763,o),
(-219,739,o),
(-219,709,cs),
(-219,681,o),
(-237,653,o),
(-278,653,cs),
(-319,653,o),
(-336,679,o),
(-336,708,cs)
);
}
);
width = 0;
}
);
unicode = 3328;
},
{
glyphname = candrabindumlym;
layers = (
{
anchors = (
{
name = _b.uni0D00;
pos = (-278,-234);
}
);
background = {
shapes = (
{
closed = 1;
nodes = (
(-126,631,o),
(-67,699,o),
(-67,800,cs),
(-67,825,o),
(-71,847,o),
(-76,863,c),
(-180,843,l),
(-176,829,o),
(-175,819,o),
(-175,809,cs),
(-175,744,o),
(-224,727,o),
(-278,727,cs),
(-341,727,o),
(-382,746,o),
(-382,807,cs),
(-382,818,o),
(-381,829,o),
(-377,843,c),
(-481,864,l),
(-486,848,o),
(-490,827,o),
(-490,799,cs),
(-490,701,o),
(-430,631,o),
(-278,631,cs)
);
},
{
closed = 1;
nodes = (
(-227,748,o),
(-210,771,o),
(-210,804,cs),
(-210,838,o),
(-226,863,o),
(-279,863,cs),
(-331,863,o),
(-347,838,o),
(-347,807,cs),
(-347,771,o),
(-329,748,o),
(-279,748,cs)
);
}
);
};
layerId = "2AD682F6-F6C7-4738-913E-50B961B61BC3";
shapes = (
{
closed = 1;
nodes = (
(-126,631,o),
(-67,699,o),
(-67,800,cs),
(-67,825,o),
(-71,847,o),
(-76,863,c),
(-180,843,l),
(-176,829,o),
(-175,819,o),
(-175,809,cs),
(-175,744,o),
(-224,727,o),
(-278,727,cs),
(-341,727,o),
(-382,746,o),
(-382,807,cs),
(-382,818,o),
(-381,829,o),
(-377,843,c),
(-481,864,l),
(-486,848,o),
(-490,827,o),
(-490,799,cs),
(-490,701,o),
(-430,631,o),
(-278,631,cs)
);
},
{
closed = 1;
nodes = (
(-227,748,o),
(-210,771,o),
(-210,804,cs),
(-210,838,o),
(-226,863,o),
(-279,863,cs),
(-331,863,o),
(-347,838,o),
(-347,807,cs),
(-347,771,o),
(-329,748,o),
(-279,748,cs)
);
}
);
width = 0;
}
);
unicode = 3329;
},
{
glyphname = anusvaramlym;
lastChange = "2025-02-12 19:51:07 +0000";
layers = (
{
background = {
shapes = (
{
closed = 1;
nodes = (
(386,-12,o),
(471,65,o),
(471,185,cs),
(471,305,o),
(383,382,o),
(230,382,cs),
(82,382,o),
(-8,301,o),
(-8,185,cs),
(-8,69,o),
(75,-12,o),
(232,-12,cs)
);
},
{
closed = 1;
nodes = (
(271,258,o),
(301,233,o),
(301,185,cs),
(301,135,o),
(270,112,o),
(232,112,cs),
(191,112,o),
(162,139,o),
(162,184,cs),
(162,233,o),
(192,258,o),
(230,258,cs)
);
}
);
};
layerId = "2AD682F6-F6C7-4738-913E-50B961B61BC3";
shapes = (
{
closed = 1;
nodes = (
(445,1,l),
(445,176,l),
(283,409,ls),
(255,449,o),
(218,455,o),
(186,409,cs),
(25,176,l),
(25,1,l)
);
},
{
closed = 1;
nodes = (
(117,144,l),
(235,315,l),
(353,144,l),
(353,94,l),
(117,94,l)
);
}
);
width = 470;
}
);
unicode = 3330;
},
{
glyphname = visargamlym;
layers = (
{
background = {
shapes = (
{
closed = 1;
nodes = (
(28,359,o),
(87,297,o),
(192,297,cs),
(297,297,o),
(357,359,o),
(357,439,cs),
(357,521,o),
(295,581,o),
(192,581,cs),
(89,581,o),
(28,520,o),
(28,439,cs)
);
},
{
closed = 1;
nodes = (
(146,466,o),
(162,484,o),
(192,484,cs),
(220,484,o),
(239,467,o),
(239,440,cs),
(239,414,o),
(223,394,o),
(192,394,cs),
(161,394,o),
(146,413,o),
(146,439,cs)
);
},
{
closed = 1;
nodes = (
(28,49,o),
(87,-12,o),
(192,-12,cs),
(297,-12,o),
(357,50,o),
(357,130,cs),
(357,210,o),
(295,272,o),
(192,272,cs),
(89,272,o),
(28,210,o),
(28,130,cs)
);
},
{
closed = 1;
nodes = (
(146,156,o),
(162,175,o),
(192,175,cs),
(220,175,o),
(239,156,o),
(239,131,cs),
(239,103,o),
(223,85,o),
(192,85,cs),
(161,85,o),
(146,103,o),
(146,131,cs)
);
}
);
};
layerId = "2AD682F6-F6C7-4738-913E-50B961B61BC3";
shapes = (
{
closed = 1;
nodes = (
(28,359,o),
(87,297,o),
(192,297,cs),
(297,297,o),
(357,359,o),
(357,439,cs),
(357,521,o),
(295,581,o),
(192,581,cs),
(89,581,o),
(28,520,o),
(28,439,cs)
);
},
{
closed = 1;
nodes = (
(146,466,o),
(162,484,o),
(192,484,cs),
(220,484,o),
(239,467,o),
(239,440,cs),
(239,414,o),
(223,394,o),
(192,394,cs),
(161,394,o),
(146,413,o),
(146,439,cs)
);
},
{
closed = 1;
nodes = (
(28,49,o),
(87,-12,o),
(192,-12,cs),
(297,-12,o),
(357,50,o),
(357,130,cs),
(357,210,o),
(295,272,o),
(192,272,cs),
(89,272,o),
(28,210,o),
(28,130,cs)
);
},
{
closed = 1;
nodes = (
(146,156,o),
(162,175,o),
(192,175,cs),
(220,175,o),
(239,156,o),
(239,131,cs),
(239,103,o),
(223,85,o),
(192,85,cs),
(161,85,o),
(146,103,o),
(146,131,cs)
);
}
);
width = 385;
}
);
unicode = 3331;
},
{
glyphname = uni0D04;
layers = (
{
background = {
shapes = (
{
closed = 1;
nodes = (
(50,355,l),
(39,321,o),
(30,275,o),
(30,230,cs),
(30,85,o),
(103,-9,o),
(337,-9,cs),
(572,-9,o),
(645,85,o),
(645,230,cs),
(645,273,o),
(636,321,o),
(625,355,c),
(458,327,l),
(467,296,o),
(471,259,o),
(471,234,cs),
(471,154,o),
(422,118,o),
(337,118,cs),
(253,118,o),
(204,154,o),
(204,235,cs),
(204,261,o),
(208,296,o),
(217,327,c)
);
},
{
closed = 1;
nodes = (
(272,195,l),
(403,195,l),
(403,427,l),
(272,427,l)
);
}
);
};
layerId = "2AD682F6-F6C7-4738-913E-50B961B61BC3";
shapes = (
{
closed = 1;
nodes = (
(50,355,l),
(39,321,o),
(30,275,o),
(30,230,cs),
(30,85,o),
(103,-9,o),
(337,-9,cs),
(572,-9,o),
(645,85,o),
(645,230,cs),
(645,273,o),
(636,321,o),
(625,355,c),
(458,327,l),
(467,296,o),
(471,259,o),
(471,234,cs),
(471,154,o),
(422,118,o),
(337,118,cs),
(253,118,o),
(204,154,o),
(204,235,cs),
(204,261,o),
(208,296,o),
(217,327,c)
);
},
{
closed = 1;
nodes = (
(272,195,l),
(403,195,l),
(403,427,l),
(272,427,l)
);
}
);
width = 675;
}
);
unicode = 3332;
},
{
glyphname = amlym;
lastChange = "2025-02-12 16:39:27 +0000";
layers = (
{
anchors = (
{
name = b.uni0D00;
pos = (903,0);
}
);
background = {
shapes = (
{
closed = 1;
nodes = (
(420,193,l),
(291,193,l),
(372,311,l),
(161,311,l),
(105,229,l),
(105,0,l),
(37,0,l),
(37,253,l),
(51,274,o),
(66,296,o),
(80,316,cs),
(95,337,o),
(110,359,o),
(125,380,c),
(273,380,o),
(353,380,o),
(505,380,c),
(422,260,l),
(491,260,l),
(491,0,l),
(203,0,l),
(203,58,l),
(203,493,l),
(383,752,ls),
(407,790,o),
(436,787,o),
(459,752,cs),
(639,493,l),
(639,0,l),
(571,0,l),
(571,469,l),
(421,686,l),
(271,469,l),
(271,68,l),
(421,68,l)
);
},
{
closed = 1;
nodes = (
(770,68,l),
(808,68,l),
(808,229,l),
(752,311,l),
(618,311,l),
(618,380,l),
(788,380,l),
(876,253,l),
(876,0,l),
(702,0,l),
(702,226,ls),
(702,271,o),
(770,271,o),
(770,226,cs)
);
}
);
};
layerId = "2AD682F6-F6C7-4738-913E-50B961B61BC3";
shapes = (
{
closed = 1;
nodes = (
(430,196,l),
(320,196,l),
(320,265,l),
(378,265,l),
(378,342,l),
(167,342,l),
(117,268,l),
(117,1,l),
(25,1,l),
(25,300,l),
(39,321,o),
(56,346,o),
(70,366,cs),
(86,388,o),
(103,413,o),
(119,435,c),
(278,435,o),
(282,435,o),
(452,435,c),
(452,265,l),
(501,265,l),
(501,1,l),
(191,1,l),
(191,71,l),
(191,510,l),
(373,772,l),
(402,818,o),
(442,813,o),
(469,772,cs),
(651,510,l),
(651,1,l),
(559,1,l),
(559,478,l),
(421,678,l),
(283,478,l),
(283,93,l),
(431,93,l)
);
},
{
closed = 1;
nodes = (
(812,93,l),
(866,93,l),
(866,238,l),
(816,312,l),
(636,312,l),
(636,405,l),
(864,405,l),
(958,270,l),
(958,1,l),
(720,1,l),
(720,219,ls),
(720,280,o),
(812,280,o),
(812,219,cs)
);
}
);
width = 983;
}
);
unicode = 3333;
},
{
glyphname = aamlym;
lastChange = "2025-02-12 17:40:51 +0000";
layers = (
{
anchors = (
{
name = b.uni0D00;
pos = (996,0);
}
);
layerId = "2AD682F6-F6C7-4738-913E-50B961B61BC3";
shapes = (
{
closed = 1;
nodes = (
(430,196,l),
(320,196,l),
(320,265,l),
(378,265,l),
(378,342,l),
(167,342,l),
(117,268,l),
(117,1,l),
(25,1,l),
(25,300,l),
(39,321,o),
(56,346,o),
(70,366,cs),
(86,388,o),
(103,413,o),
(119,435,c),
(278,435,o),
(282,435,o),
(452,435,c),
(452,265,l),
(501,265,l),
(501,1,l),
(191,1,l),
(191,71,l),
(191,510,l),
(373,772,l),
(402,818,o),
(442,813,o),
(469,772,cs),
(651,510,l),
(651,1,l),
(559,1,l),
(559,478,l),
(421,678,l),
(283,478,l),
(283,93,l),
(431,93,l)
);
},
{
closed = 1;
nodes = (
(1132,161,l),
(1133,-156,l),
(944,-156,l),
(944,-74,l),
(1046,-74,l),
(1046,160,l),
(984,252,l),
(874,252,l),
(806,154,l),
(806,83,l),
(874,83,l),
(874,278,l),
(824,352,l),
(646,352,l),
(646,445,l),
(864,445,l),
(958,310,l),
(958,1,l),
(720,1,l),
(720,47,o),
(720,109,o),
(720,153,c),
(840,335,l),
(1013,335,l)
);
}
);
width = 1158;
}
);
unicode = 3334;
},
{
glyphname = imlym;
lastChange = "2025-02-12 17:43:54 +0000";
layers = (
{
anchors = (
{
name = b.uni0D00;
pos = (562,0);
}
);
background = {
shapes = (
{
closed = 1;
nodes = (
(147,581,o),
(39,460,o),
(39,334,cs),
(39,205,o),
(127,138,o),
(246,138,cs),
(409,138,o),
(459,207,o),
(459,292,cs),
(459,372,o),
(400,433,o),
(277,433,cs),
(206,433,o),
(127,385,o),
(93,354,c),
(149,310,l),
(184,329,o),
(210,340,o),
(241,340,cs),
(273,340,o),
(292,326,o),
(292,294,cs),
(292,268,o),
(278,248,o),
(243,248,cs),
(211,248,o),
(189,271,o),
(189,318,cs),
(189,333,o),
(190,349,o),
(191,358,cs),
(193,373,o),
(192,386,o),
(200,399,cs),
(229,443,o),
(302,457,o),
(371,457,cs),
(426,457,o),
(459,444,o),
(482,427,cs),
(515,402,o),
(528,358,o),
(528,272,cs),
(528,161,l),
(712,161,l),
(712,328,ls),
(712,383,o),
(721,410,o),
(736,428,cs),
(751,445,o),
(771,452,o),
(795,452,cs),
(860,452,o),
(893,391,o),
(893,303,cs),
(893,248,o),
(880,202,o),
(846,172,cs),
(810,140,o),
(762,127,o),
(650,127,cs),
(313,127,ls),
(211,127,o),
(153,116,o),
(105,83,cs),
(67,57,o),
(44,16,o),
(44,-42,cs),
(44,-108,o),
(75,-151,o),
(122,-175,cs),
(171,-200,o),
(225,-206,o),
(315,-206,cs),
(1059,-206,l),
(1059,-77,l),
(328,-77,ls),
(277,-77,o),
(259,-73,o),
(246,-64,cs),
(237,-58,o),
(232,-49,o),
(232,-36,cs),
(232,-23,o),
(238,-14,o),
(251,-8,cs),
(264,-2,o),
(278,0,o),
(325,0,cs),
(675,0,ls),
(845,0,o),
(926,19,o),
(989,71,cs),
(1048,120,o),
(1083,198,o),
(1083,312,cs),
(1083,461,o),
(997,581,o),
(814,581,cs),
(719,581,o),
(644,551,o),
(594,494,c),
(651,488,l),
(595,538,o),
(530,581,o),
(378,581,cs)
);
}
);
};
layerId = "2AD682F6-F6C7-4738-913E-50B961B61BC3";
shapes = (
{
closed = 1;
nodes = (
(116,-64,l),
(116,1,l),
(838,1,l),
(838,250,l),
(476,772,ls),
(446,816,o),
(377,803,o),
(376,751,cs),
(376,735,o),
(376,719,o),
(376,704,cs),
(376,531,l),
(350,568,ls),
(316,617,o),
(272,617,o),
(238,568,cs),
(25,259,l),
(93,162,l),
(339,162,l),
(339,306,ls),
(339,339,o),
(322,358,o),
(293,358,cs),
(293,358,ls),
(264,358,o),
(247,339,o),
(247,306,cs),
(247,254,l),
(135,254,l),
(298,490,l),
(388,362,l),
(467,362,l),
(467,630,l),
(746,231,l),
(746,93,l),
(25,93,l),
(25,-156,l),
(838,-156,l),
(838,-64,l)
);
}
);
width = 863;
}
);
unicode = 3335;
},
{
glyphname = iimlym;
lastChange = "2025-02-12 18:08:47 +0000";
layers = (
{
anchors = (
{
name = b.uni0D00;
pos = (880,0);
}
);
background = {
shapes = (
{
alignment = -1;
ref = imlym;
},
{
alignment = -1;
pos = (1111,0);
ref = aulengthmarkmlym;
}
);
};
guides = (
{
angle = 180;
pos = (1307,364);
}
);
layerId = "2AD682F6-F6C7-4738-913E-50B961B61BC3";
shapes = (
{
alignment = -1;
ref = imlym;
},
{
closed = 1;
nodes = (
(971,402,l),
(1131,630,l),
(1131,362,l),
(1210,362,l),
(1300,490,l),
(1440,287,l),
(1440,93,l),
(1178,93,l),
(1178,1,l),
(1532,1,l),
(1532,319,l),
(1360,568,ls),
(1326,617,o),
(1282,617,o),
(1248,568,cs),
(1222,531,l),
(1222,704,ls),
(1222,719,o),
(1222,735,o),
(1222,751,cs),
(1221,803,o),
(1153,816,o),
(1122,771,cs),
(879,421,l),
(879,287,l),
(971,287,l)
);
}
);
width = 1557;
}
);
unicode = 3336;
},
{
glyphname = umlym;
lastChange = "2025-02-13 09:11:53 +0000";
layers = (
{
anchors = (
{
name = b.uni0D00;
pos = (396,0);
}
);
background = {
shapes = (
{
closed = 1;
nodes = (
(139,581,o),
(32,456,o),
(32,333,cs),
(32,205,o),
(120,138,o),
(239,138,cs),
(402,138,o),
(452,207,o),
(452,292,cs),
(452,372,o),
(393,433,o),
(270,433,cs),
(199,433,o),
(120,385,o),
(86,354,c),
(142,310,l),
(177,329,o),
(203,340,o),
(234,340,cs),
(266,340,o),
(285,326,o),
(285,294,cs),
(285,268,o),
(271,248,o),
(236,248,cs),
(204,248,o),
(182,271,o),
(182,318,cs),
(182,333,o),
(183,349,o),
(184,358,cs),
(186,373,o),
(178,385,o),
(188,398,cs),
(221,441,o),
(282,457,o),
(380,457,cs),
(498,457,o),
(569,396,o),
(569,296,cs),
(569,245,o),
(556,202,o),
(523,172,cs),
(487,140,o),
(442,127,o),
(316,127,cs),
(298,127,ls),
(204,127,o),
(146,116,o),
(98,83,cs),
(60,57,o),
(37,16,o),
(37,-42,cs),
(37,-108,o),
(68,-151,o),
(115,-175,cs),
(164,-200,o),
(218,-206,o),
(308,-206,cs),
(740,-206,l),
(740,-77,l),
(321,-77,ls),
(270,-77,o),
(252,-73,o),
(239,-64,cs),
(230,-58,o),
(225,-49,o),
(225,-36,cs),
(225,-23,o),
(231,-14,o),
(244,-8,cs),
(257,-2,o),
(271,0,o),
(318,0,cs),
(340,0,ls),
(515,0,o),
(603,22,o),
(667,74,cs),
(720,117,o),
(759,192,o),
(759,294,cs),
(759,449,o),
(651,581,o),
(389,581,cs)
);
}
);
};
layerId = "2AD682F6-F6C7-4738-913E-50B961B61BC3";
shapes = (
{
closed = 1;
nodes = (
(116,-64,l),
(116,1,l),
(801,1,l),
(801,303,l),
(482,763,ls),
(449,810,o),
(405,810,o),
(372,763,cs),
(25,259,l),
(93,162,l),
(419,162,l),
(419,396,ls),
(419,429,o),
(402,448,o),
(373,448,cs),
(373,448,ls),
(344,448,o),
(327,429,o),
(327,396,cs),
(327,254,l),
(135,254,l),
(298,490,l),
(427,687,l),
(709,284,l),
(709,93,l),
(25,93,l),
(25,-156,l),
(801,-156,l),
(801,-64,l)
);
}
);
width = 826;
}
);
unicode = 3337;
},
{
glyphname = rvocalicmlym;
layers = (
{
anchors = (
{
name = b.uni0D00;
pos = (530,0);
}
);
background = {
shapes = (
{
closed = 1;
nodes = (
(626,581,o),
(550,496,o),
(550,395,cs),
(550,271,o),
(630,221,o),
(767,221,cs),
(856,221,o),
(928,279,o),
(975,332,c),
(931,426,l),
(888,373,o),
(852,334,o),
(795,334,cs),
(760,334,o),
(730,349,o),
(730,399,cs),
(730,439,o),
(751,461,o),
(788,461,cs),
(830,461,o),
(862,420,o),
(862,345,cs),
(862,328,o),
(861,313,o),
(858,297,c),
(858,274,l),
(822,182,o),
(689,173,o),
(539,173,cs),
(520,173,ls),
(369,173,o),
(239,182,o),
(203,274,c),
(203,299,l),
(200,313,o),
(199,328,o),
(199,345,cs),
(199,420,o),
(231,461,o),
(274,461,cs),
(310,461,o),
(331,439,o),
(331,399,cs),
(331,349,o),
(301,334,o),
(266,334,cs),
(209,334,o),
(173,373,o),
(130,426,c),
(86,332,l),
(133,279,o),
(205,221,o),
(290,221,cs),
(430,221,o),
(511,271,o),
(511,395,cs),
(511,496,o),
(435,581,o),
(287,581,cs),
(122,581,o),
(30,485,o),
(30,339,cs),
(30,245,o),
(67,174,o),
(132,127,cs),
(201,77,o),
(298,61,o),
(411,61,cs),
(650,61,ls),
(763,61,o),
(860,77,o),
(929,127,cs),
(994,174,o),
(1031,245,o),
(1031,339,cs),
(1031,485,o),
(938,581,o),
(779,581,cs)
);
},
{
closed = 1;
nodes = (
(819,-261,o),
(958,-205,o),
(958,-59,cs),
(958,89,o),
(773,129,o),
(615,129,cs),
(446,129,ls),
(288,129,o),
(103,89,o),
(103,-59,cs),
(103,-205,o),
(243,-261,o),
(541,-261,cs)
);
},
{
closed = 1;
nodes = (
(366,-128,o),
(294,-105,o),
(294,-39,cs),
(294,29,o),
(384,45,o),
(516,45,cs),
(545,45,ls),
(677,45,o),
(767,29,o),
(767,-39,cs),
(767,-105,o),
(695,-128,o),
(532,-128,cs)
);
}
);
};
layerId = "2AD682F6-F6C7-4738-913E-50B961B61BC3";
shapes = (
{
closed = 1;
nodes = (
(626,581,o),
(550,496,o),
(550,395,cs),
(550,271,o),
(630,221,o),
(767,221,cs),
(856,221,o),
(928,279,o),
(975,332,c),
(931,426,l),
(888,373,o),
(852,334,o),
(795,334,cs),
(760,334,o),
(730,349,o),
(730,399,cs),
(730,439,o),
(751,461,o),
(788,461,cs),
(830,461,o),
(862,420,o),
(862,345,cs),
(862,328,o),
(861,313,o),
(858,297,c),
(858,274,l),
(822,182,o),
(689,173,o),
(539,173,cs),
(520,173,ls),
(369,173,o),
(239,182,o),
(203,274,c),
(203,299,l),
(200,313,o),
(199,328,o),
(199,345,cs),
(199,420,o),
(231,461,o),
(274,461,cs),
(310,461,o),
(331,439,o),
(331,399,cs),
(331,349,o),
(301,334,o),
(266,334,cs),
(209,334,o),
(173,373,o),
(130,426,c),
(86,332,l),
(133,279,o),
(205,221,o),
(290,221,cs),
(430,221,o),
(511,271,o),
(511,395,cs),
(511,496,o),
(435,581,o),
(287,581,cs),
(122,581,o),
(30,485,o),
(30,339,cs),
(30,245,o),
(67,174,o),
(132,127,cs),
(201,77,o),
(298,61,o),
(411,61,cs),
(650,61,ls),
(763,61,o),
(860,77,o),
(929,127,cs),
(994,174,o),
(1031,245,o),
(1031,339,cs),
(1031,485,o),
(938,581,o),
(779,581,cs)
);
},
{
closed = 1;
nodes = (
(819,-261,o),
(958,-205,o),
(958,-59,cs),
(958,89,o),
(773,129,o),
(615,129,cs),
(446,129,ls),
(288,129,o),
(103,89,o),
(103,-59,cs),
(103,-205,o),
(243,-261,o),
(541,-261,cs)
);
},
{
closed = 1;
nodes = (
(366,-128,o),
(294,-105,o),
(294,-39,cs),
(294,29,o),
(384,45,o),
(516,45,cs),
(545,45,ls),
(677,45,o),
(767,29,o),
(767,-39,cs),
(767,-105,o),
(695,-128,o),
(532,-128,cs)
);
}
);
width = 1061;
}
);
unicode = 3339;
},
{
glyphname = lvocalicmlym;
layers = (
{
anchors = (
{
name = b.uni0D00;
pos = (684,0);
}
);
background = {
shapes = (
{
closed = 1;
nodes = (
(202,581,o),
(33,460,o),
(33,244,cs),
(33,63,o),
(139,-12,o),
(278,-12,cs),
(432,-12,o),
(506,61,o),
(506,180,cs),
(506,285,o),
(444,359,o),
(316,359,cs),
(230,359,o),
(171,321,o),
(118,276,c),
(139,156,l),
(193,215,o),
(222,240,o),
(267,240,cs),
(303,240,o),
(325,216,o),
(325,173,cs),
(325,127,o),
(306,108,o),
(273,108,cs),
(235,108,o),
(202,135,o),
(202,240,cs),
(202,244,ls),
(202,380,o),
(301,453,o),
(418,453,cs),
(469,453,o),
(505,443,o),
(529,424,cs),
(562,397,o),
(574,359,o),
(574,273,cs),
(574,0,l),
(761,0,l),
(761,317,l),
(737,404,l),
(704,480,l),
(629,553,o),
(547,581,o),
(422,581,cs)
);
},
{
closed = 1;
nodes = (
(1246,-12,o),
(1338,77,o),
(1338,237,cs),
(1338,418,o),
(1204,581,o),
(940,581,cs),
(779,581,o),
(691,517,o),
(628,450,c),
(761,154,l),
(761,238,ls),
(761,307,o),
(769,378,o),
(819,416,cs),
(845,436,o),
(880,451,o),
(944,451,cs),
(1062,451,o),
(1140,396,o),
(1151,329,c),
(1154,324,o),
(1148,310,o),
(1150,305,c),
(1153,285,o),
(1155,262,o),
(1155,242,cs),
(1155,153,o),
(1129,116,o),
(1079,116,cs),
(1042,116,o),
(1016,143,o),
(1016,205,cs),
(1016,265,o),
(1042,295,o),
(1090,295,cs),
(1143,295,o),
(1176,251,o),
(1186,203,c),
(1259,205,l),
(1251,305,o),
(1169,410,o),
(1044,410,cs),
(912,410,o),
(836,331,o),
(836,205,cs),
(836,89,o),
(905,-12,o),
(1076,-12,cs)
);
}
);
};
layerId = "2AD682F6-F6C7-4738-913E-50B961B61BC3";
shapes = (
{
closed = 1;
nodes = (
(202,581,o),
(33,460,o),
(33,244,cs),
(33,63,o),
(139,-12,o),
(278,-12,cs),
(432,-12,o),
(506,61,o),
(506,180,cs),
(506,285,o),
(444,359,o),
(316,359,cs),
(230,359,o),
(171,321,o),
(118,276,c),
(139,156,l),
(193,215,o),
(222,240,o),
(267,240,cs),
(303,240,o),
(325,216,o),
(325,173,cs),
(325,127,o),
(306,108,o),
(273,108,cs),
(235,108,o),
(202,135,o),
(202,240,cs),
(202,244,ls),
(202,380,o),
(301,453,o),
(418,453,cs),
(469,453,o),
(505,443,o),
(529,424,cs),
(562,397,o),
(574,359,o),
(574,273,cs),
(574,0,l),
(761,0,l),
(761,317,l),
(737,404,l),
(704,480,l),
(629,553,o),
(547,581,o),
(422,581,cs)
);
},
{
closed = 1;
nodes = (
(1246,-12,o),
(1338,77,o),
(1338,237,cs),
(1338,418,o),
(1204,581,o),
(940,581,cs),
(779,581,o),
(691,517,o),
(628,450,c),
(761,154,l),
(761,238,ls),
(761,307,o),
(769,378,o),
(819,416,cs),
(845,436,o),
(880,451,o),
(944,451,cs),
(1062,451,o),
(1140,396,o),
(1151,329,c),
(1154,324,o),
(1148,310,o),
(1150,305,c),
(1153,285,o),
(1155,262,o),
(1155,242,cs),
(1155,153,o),
(1129,116,o),
(1079,116,cs),
(1042,116,o),
(1016,143,o),
(1016,205,cs),
(1016,265,o),
(1042,295,o),
(1090,295,cs),
(1143,295,o),
(1176,251,o),
(1186,203,c),
(1259,205,l),
(1251,305,o),
(1169,410,o),
(1044,410,cs),
(912,410,o),
(836,331,o),
(836,205,cs),
(836,89,o),
(905,-12,o),
(1076,-12,cs)
);
}
);
width = 1369;
}
);
unicode = 3340;
},
{
glyphname = emlym;
lastChange = "2025-02-13 09:44:11 +0000";
layers = (
{
anchors = (
{
name = b.uni0D00;
pos = (727,0);
}
);
background = {
shapes = (
{
closed = 1;
nodes = (
(133,372,o),
(27,296,o),
(27,170,cs),
(27,97,o),
(60,37,o),
(108,-13,c),
(252,45,l),
(228,83,o),
(212,119,o),
(212,160,cs),
(212,210,o),
(236,245,o),
(287,245,cs),
(339,245,o),
(360,205,o),
(360,163,cs),
(360,123,o),
(343,92,o),
(329,70,c),
(392,0,l),
(974,0,l),
(972,128,l),
(521,128,l),
(518,76,l),
(531,105,o),
(538,143,o),
(538,173,cs),
(538,268,o),
(464,372,o),
(285,372,cs)
);
},
{
closed = 1;
nodes = (
(746,581,o),
(619,389,o),
(619,148,cs),
(619,-108,o),
(716,-228,o),
(891,-228,cs),
(965,-228,o),
(1009,-215,o),
(1045,-185,cs),
(1080,-156,o),
(1105,-112,o),
(1105,-12,cs),
(1105,378,l),
(918,378,l),
(918,-56,ls),
(918,-81,o),
(915,-89,o),
(908,-95,cs),
(903,-100,o),
(895,-102,o),
(886,-102,cs),
(833,-102,o),
(810,-31,o),
(807,53,c),
(807,60,o),
(807,68,o),
(807,75,c),
(805,99,o),
(805,123,o),
(805,140,cs),
(805,325,o),
(873,453,o),
(1024,453,cs),
(1168,453,o),
(1225,332,o),
(1225,172,cs),
(1225,46,o),
(1191,-51,o),
(1125,-154,c),
(1278,-229,l),
(1359,-117,o),
(1415,1,o),
(1415,171,cs),
(1415,415,o),
(1293,581,o),
(1023,581,cs)
);
}
);
};
guides = (
{
angle = 180;
pos = (655,-64);
}
);
layerId = "2AD682F6-F6C7-4738-913E-50B961B61BC3";
shapes = (
{
closed = 1;
nodes = (
(241,377,ls),
(219,409,o),
(178,421,o),
(148,377,cs),
(25,200,l),
(25,1,l),
(117,1,l),
(117,174,l),
(195,287,l),
(275,170,l),
(275,1,l),
(367,1,l),
(367,195,l)
);
},
{
closed = 1;
nodes = (
(713,93,l),
(344,93,l),
(344,1,l),
(713,1,l)
);
},
{
closed = 1;
nodes = (
(521,-156,l),
(788,-156,l),
(788,257,ls),
(788,310,o),
(706,310,o),
(706,257,cs),
(706,-78,l),
(613,-78,l),
(613,47,l),
(613,374,l),
(740,558,l),
(866,374,l),
(866,-64,l),
(958,-64,l),
(958,399,l),
(786,648,ls),
(764,680,o),
(726,696,o),
(693,648,cs),
(521,400,l),
(521,84,l)
);
}
);
width = 983;
}
);
unicode = 3342;
},
{
glyphname = eemlym;
lastChange = "2025-02-13 09:51:48 +0000";
layers = (
{
anchors = (
{
name = b.uni0D00;
pos = (738,0);
}
);
background = {
shapes = (
{
closed = 1;
nodes = (
(135,372,o),
(29,296,o),
(29,170,cs),
(29,97,o),
(62,37,o),
(110,-13,c),
(254,45,l),
(230,83,o),
(214,119,o),
(214,160,cs),
(214,210,o),
(238,245,o),
(289,245,cs),
(341,245,o),
(362,205,o),
(362,163,cs),
(362,123,o),
(345,92,o),
(331,70,c),
(394,0,l),
(976,0,l),
(974,128,l),
(523,128,l),
(520,76,l),
(533,105,o),
(540,143,o),
(540,173,cs),
(540,268,o),
(466,372,o),
(287,372,cs)
);
},
{
closed = 1;
nodes = (
(772,581,o),
(621,399,o),
(621,148,cs),
(621,-108,o),
(718,-228,o),
(893,-228,cs),
(967,-228,o),
(1011,-215,o),
(1047,-185,cs),
(1082,-156,o),
(1107,-112,o),
(1107,-12,cs),
(1107,378,l),
(920,378,l),
(920,-56,ls),
(920,-81,o),
(917,-89,o),
(910,-95,cs),
(905,-100,o),
(898,-102,o),
(888,-102,cs),
(835,-102,o),
(812,-31,o),
(809,53,c),
(809,60,o),
(809,68,o),
(809,75,c),
(807,99,o),
(807,123,o),
(807,140,cs),
(807,315,o),
(880,453,o),
(1070,453,cs),
(1192,453,o),
(1248,399,o),
(1248,321,cs),
(1248,249,o),
(1208,219,o),
(1150,202,c),
(1150,76,l),
(1220,76,o),
(1258,37,o),
(1258,-17,cs),
(1258,-69,o),
(1235,-100,o),
(1175,-100,cs),
(1164,-100,o),
(1147,-99,o),
(1133,-95,c),
(1115,-220,l),
(1137,-225,o),
(1180,-228,o),
(1205,-228,cs),
(1352,-228,o),
(1446,-169,o),
(1446,-23,cs),
(1446,64,o),
(1404,122,o),
(1329,154,c),
(1326,139,l),
(1390,182,o),
(1436,236,o),
(1436,337,cs),
(1436,462,o),
(1341,581,o),
(1075,581,cs)
);
}
);
};
layerId = "2AD682F6-F6C7-4738-913E-50B961B61BC3";
shapes = (
{
closed = 1;
nodes = (
(776,648,ls),
(754,680,o),
(716,696,o),
(683,648,cs),
(511,400,l),
(511,84,l),
(511,-156,l),
(778,-156,l),
(778,267,ls),
(778,320,o),
(696,320,o),
(696,267,cs),
(696,-81,l),
(598,-81,l),
(598,39,l),
(598,366,l),
(730,558,l),
(910,297,l),
(910,250,l),
(826,250,l),
(826,164,l),
(993,164,l),
(993,9,l),
(826,9,l),
(826,-83,l),
(1084,-83,l),
(1084,250,l),
(1002,250,l),
(1002,322,l)
);
},
{
closed = 1;
nodes = (
(241,377,ls),
(219,409,o),
(178,421,o),
(148,377,cs),
(25,200,l),
(25,1,l),
(117,1,l),
(117,174,l),
(195,287,l),
(275,170,l),
(275,1,l),
(367,1,l),
(367,195,l)
);
},
{
closed = 1;
nodes = (
(703,93,l),
(344,93,l),
(344,1,l),
(703,1,l)
);
}
);
width = 1109;
}
);
unicode = 3343;
},
{
glyphname = omlym;
lastChange = "2025-02-13 09:03:57 +0000";
layers = (
{
anchors = (
{
name = b.uni0D00;
pos = (481,0);
}
);
background = {
shapes = (
{
closed = 1;
nodes = (
(285,581,o),
(75,469,o),
(75,242,cs),
(75,63,o),
(181,-12,o),
(320,-12,cs),
(474,-12,o),
(548,61,o),
(548,180,cs),
(548,285,o),
(486,359,o),
(358,359,cs),
(272,359,o),
(213,321,o),
(160,276,c),
(181,156,l),
(235,215,o),
(264,240,o),
(309,240,cs),
(345,240,o),
(367,216,o),
(367,173,cs),
(367,128,o),
(348,108,o),
(315,108,cs),
(277,108,o),
(244,137,o),
(244,238,cs),
(244,254,ls),
(244,405,o),
(423,453,o),
(542,453,cs),
(638,453,o),
(692,439,o),
(692,393,cs),
(692,378,o),
(687,367,o),
(677,359,cs),
(660,346,o),
(640,343,o),
(592,343,cs),
(585,343,l),
(585,217,l),
(594,217,ls),
(641,217,o),
(662,214,o),
(680,204,cs),
(695,195,o),
(703,182,o),
(703,164,cs),
(703,129,o),
(680,116,o),
(633,116,cs),
(616,116,o),
(591,119,o),
(575,123,c),
(550,0,l),
(582,-7,o),
(619,-12,o),
(664,-12,cs),
(811,-12,o),
(889,45,o),
(889,148,cs),
(889,211,o),
(859,262,o),
(789,287,c),
(788,281,l),
(858,314,o),
(878,358,o),
(878,413,cs),
(878,502,o),
(802,581,o),
(557,581,cs)
);
}
);
};
layerId = "2AD682F6-F6C7-4738-913E-50B961B61BC3";
shapes = (
{
closed = 1;
nodes = (
(752,93,l),
(752,268,l),
(545,268,l),
(545,354,l),
(669,354,l),
(669,401,l),
(469,687,l),
(340,490,l),
(135,195,l),
(303,195,l),
(303,337,ls),
(303,370,o),
(320,389,o),
(349,389,cs),
(349,389,ls),
(378,389,o),
(395,370,o),
(395,337,cs),
(395,103,l),
(93,103,l),
(25,200,l),
(414,763,ls),
(446,810,o),
(491,810,o),
(524,763,cs),
(761,422,l),
(761,354,l),
(843,354,l),
(843,1,l),
(502,1,l),
(502,93,l)
);
}
);
width = 868;
}
);
unicode = 3346;
},
{
glyphname = kamlym;
lastChange = "2025-02-12 17:10:01 +0000";
layers = (
{
anchors = (
{
name = b.uni0D00;
pos = (621,0);
}
);
guides = (
{
pos = (303,507);
},
{
angle = 270;
pos = (211,312);
},
{
angle = 270;
pos = (303,312);
},
{
angle = 270;
pos = (539,203);
},
{
angle = 90;
pos = (631,157);
},
{
pos = (211,539);
}
);
layerId = "2AD682F6-F6C7-4738-913E-50B961B61BC3";
shapes = (
{
closed = 1;
nodes = (
(631,1,l),
(631,312,l),
(675,312,l),
(725,238,l),
(725,1,l),
(817,1,l),
(817,270,l),
(723,405,l),
(631,405,l),
(631,539,l),
(469,772,ls),
(441,812,o),
(404,818,o),
(372,772,cs),
(211,539,l),
(211,405,l),
(118,405,l),
(25,270,l),
(25,1,l)
);
},
{
closed = 1;
nodes = (
(117,238,l),
(167,312,l),
(211,312,l),
(211,93,l),
(117,93,l)
);
},
{
closed = 1;
nodes = (
(303,312,l),
(539,312,l),
(539,93,l),
(303,93,l)
);
},
{
closed = 1;
nodes = (
(303,507,l),
(421,678,l),
(539,507,l),
(539,405,l),
(303,405,l)
);
}
);
width = 842;
}
);
unicode = 3349;
},
{
glyphname = khamlym;
lastChange = "2025-02-12 12:39:42 +0000";
layers = (
{
anchors = (
{
name = b.uni0D00;
pos = (498,0);
}
);
background = {
shapes = (
{
closed = 1;
nodes = (
(103,581,o),
(-50,444,o),
(-50,237,cs),
(-50,63,o),
(56,-12,o),
(195,-12,cs),
(349,-12,o),
(423,61,o),
(423,180,cs),
(423,285,o),
(361,359,o),
(233,359,cs),
(147,359,o),
(88,321,o),
(35,276,c),
(56,156,l),
(110,215,o),
(139,240,o),
(185,240,cs),
(220,240,o),
(242,216,o),
(242,173,cs),
(242,127,o),
(223,108,o),
(190,108,cs),
(152,108,o),
(119,135,o),
(119,236,cs),
(119,243,ls),
(119,380,o),
(232,452,o),
(347,452,cs),
(470,452,o),
(533,386,o),
(533,281,cs),
(533,201,o),
(499,139,o),
(456,79,c),
(482,0,l),
(537,0,l),
(594,35,l),
(676,117,o),
(723,169,o),
(723,284,cs),
(723,426,o),
(632,581,o),
(359,581,cs)
);
},
{
closed = 1;
nodes = (
(836,569,l),
(836,128,l),
(613,128,l),
(527,0,l),
(1023,0,l),
(1023,569,l)
);
}
);
};
layerId = "2AD682F6-F6C7-4738-913E-50B961B61BC3";
shapes = (
{
closed = 1;
nodes = (
(212,84,l),
(112,84,l),
(112,238,l),
(211,381,l)
);
},
{
closed = 1;
nodes = (
(564,627,l),
(464,772,l),
(435,818,o),
(395,813,o),
(368,772,cs),
(20,270,l),
(20,1,l),
(112,1,l),
(297,1,l),
(297,249,l),
(297,506,l),
(416,678,l),
(472,595,l),
(472,1,l),
(798,1,l),
(798,364,ls),
(798,421,o),
(706,421,o),
(706,364,cs),
(706,93,l),
(564,93,l)
);
}
);
width = 823;
}
);
unicode = 3350;
},
{
glyphname = gamlym;
layers = (
{
anchors = (
{
name = b.uni0D00;
pos = (512,0);
}
);
background = {
shapes = (
{
closed = 1;
nodes = (
(604,581,o),
(545,561,o),
(499,524,cs),
(442,478,o),
(417,406,o),
(417,303,cs),
(417,264,ls),
(417,204,o),
(412,161,o),
(387,137,cs),
(374,124,o),
(355,117,o),
(329,117,cs),
(274,117,o),
(225,154,o),
(225,273,cs),
(225,353,o),
(251,414,o),
(313,500,c),
(174,581,l),
(85,479,o),
(35,395,o),
(35,269,cs),
(35,103,o),
(142,-12,o),
(325,-12,cs),
(419,-12,o),
(482,7,o),
(528,44,cs),
(584,89,o),
(608,165,o),
(608,275,cs),
(608,305,ls),
(608,365,o),
(613,408,o),
(638,432,cs),
(651,445,o),
(670,452,o),
(696,452,cs),
(751,452,o),
(800,415,o),
(800,296,cs),
(800,216,o),
(774,155,o),
(712,69,c),
(851,-12,l),
(940,90,o),
(990,174,o),
(990,300,cs),
(990,466,o),
(882,581,o),
(700,581,cs)
);
}
);
};
layerId = "2AD682F6-F6C7-4738-913E-50B961B61BC3";
shapes = (
{
closed = 1;
nodes = (
(604,581,o),
(545,561,o),
(499,524,cs),
(442,478,o),
(417,406,o),
(417,303,cs),
(417,264,ls),
(417,204,o),
(412,161,o),
(387,137,cs),
(374,124,o),
(355,117,o),
(329,117,cs),
(274,117,o),
(225,154,o),
(225,273,cs),
(225,353,o),
(251,414,o),
(313,500,c),
(174,581,l),
(85,479,o),
(35,395,o),
(35,269,cs),
(35,103,o),
(142,-12,o),
(325,-12,cs),
(419,-12,o),
(482,7,o),
(528,44,cs),
(584,89,o),
(608,165,o),
(608,275,cs),
(608,305,ls),
(608,365,o),
(613,408,o),
(638,432,cs),
(651,445,o),
(670,452,o),
(696,452,cs),
(751,452,o),
(800,415,o),
(800,296,cs),
(800,216,o),
(774,155,o),
(712,69,c),
(851,-12,l),
(940,90,o),
(990,174,o),
(990,300,cs),
(990,466,o),
(882,581,o),
(700,581,cs)
);
}
);
width = 1025;
}
);
unicode = 3351;
},
{
glyphname = ghamlym;
lastChange = "2025-02-13 13:22:52 +0000";
layers = (
{
anchors = (
{
name = b.uni0D00;
pos = (682,0);
}
);
background = {
shapes = (
{
closed = 1;
nodes = (
(49,581,o),
(-57,505,o),
(-57,379,cs),
(-57,306,o),
(-24,246,o),
(24,196,c),
(168,254,l),
(144,292,o),
(128,328,o),
(128,369,cs),
(128,419,o),
(152,454,o),
(203,454,cs),
(255,454,o),
(276,414,o),
(276,372,cs),
(276,332,o),
(259,301,o),
(245,279,c),
(308,209,l),
(658,209,l),
(648,335,l),
(437,335,l),
(434,285,l),
(447,314,o),
(454,352,o),
(454,382,cs),
(454,477,o),
(380,581,o),
(201,581,cs)
);
},
{
closed = 1;
nodes = (
(1207,569,l),
(1207,128,l),
(710,128,l),
(710,209,l),
(1109,209,l),
(1109,296,ls),
(1109,405,o),
(1081,469,o),
(1028,516,cs),
(979,559,o),
(912,581,o),
(818,581,cs),
(730,581,o),
(661,560,o),
(610,517,cs),
(557,472,o),
(524,408,o),
(524,297,cs),
(524,0,l),
(1394,0,l),
(1394,569,l)
);
},
{
closed = 1;
nodes = (
(885,453,o),
(923,408,o),
(923,339,cs),
(923,335,l),
(710,335,l),
(710,339,ls),
(710,405,o),
(743,453,o),
(817,453,cs)
);
}
);
};
layerId = "2AD682F6-F6C7-4738-913E-50B961B61BC3";
shapes = (
{
closed = 1;
nodes = (
(681,654,ls),
(664,679,o),
(615,692,o),
(588,654,cs),
(465,477,l),
(465,92,l),
(550,84,l),
(550,443,l),
(635,564,l),
(762,377,l),
(762,186,l),
(854,186,l),
(854,402,l)
);
},
{
closed = 1;
nodes = (
(1185,113,l),
(465,113,l),
(465,21,l),
(1185,21,l)
);
},
{
closed = 1;
nodes = (
(1185,85,l),
(1185,455,l),
(1093,455,l),
(1093,85,l)
);
},
{
closed = 1;
nodes = (
(764,273,l),
(472,273,l),
(472,186,l),
(764,186,l)
);
},
{
closed = 1;
nodes = (
(241,562,ls),
(219,594,o),
(178,606,o),
(148,562,cs),
(25,385,l),
(25,186,l),
(117,186,l),
(117,359,l),
(195,472,l),
(275,355,l),
(275,186,l),
(367,186,l),
(367,380,l)
);
},
{
closed = 1;
nodes = (
(473,273,l),
(354,273,l),
(354,186,l),
(473,186,l)
);
}
);
width = 1210;
}
);
unicode = 3352;
},
{
glyphname = ngamlym;
lastChange = "2025-02-13 13:00:53 +0000";
layers = (
{
anchors = (
{
name = b.uni0D00;
pos = (803,0);
}
);
background = {
shapes = (
{
closed = 1;
nodes = (
(381,581,o),
(212,460,o),
(212,244,cs),
(212,63,o),
(318,-12,o),
(457,-12,cs),
(611,-12,o),
(685,61,o),
(685,180,cs),
(685,285,o),
(623,359,o),
(495,359,cs),
(409,359,o),
(350,321,o),
(297,276,c),
(318,156,l),
(372,215,o),
(401,240,o),
(446,240,cs),
(482,240,o),
(504,216,o),
(504,173,cs),
(504,127,o),
(485,108,o),
(452,108,cs),
(414,108,o),
(381,135,o),
(381,240,cs),
(381,244,ls),
(381,380,o),
(480,453,o),
(597,453,cs),
(648,453,o),
(684,443,o),
(708,424,cs),
(741,397,o),
(753,359,o),
(753,273,cs),
(753,0,l),
(940,0,l),
(940,239,l),
(909,390,l),
(883,480,l),
(808,553,o),
(726,581,o),
(601,581,cs)
);
},
{
closed = 1;
nodes = (
(938,581,o),
(812,488,o),
(769,326,c),
(764,241,l),
(764,70,l),
(940,70,l),
(940,187,ls),
(940,277,o),
(945,344,o),
(983,392,cs),
(1013,430,o),
(1054,453,o),
(1114,453,cs),
(1171,453,o),
(1199,430,o),
(1199,397,cs),
(1199,381,o),
(1193,369,o),
(1183,361,cs),
(1167,348,o),
(1144,343,o),
(1101,343,cs),
(1067,343,l),
(1067,217,l),
(1105,217,ls),
(1148,217,o),
(1169,214,o),
(1187,204,cs),
(1202,195,o),
(1210,182,o),
(1210,164,cs),
(1210,129,o),
(1187,116,o),
(1140,116,cs),
(1115,116,o),
(1092,120,o),
(1070,126,c),
(1047,2,l),
(1079,-5,o),
(1123,-12,o),
(1171,-12,cs),
(1318,-12,o),
(1396,49,o),
(1396,148,cs),
(1396,211,o),
(1365,262,o),
(1292,287,c),
(1293,282,l),
(1362,314,o),
(1385,358,o),
(1385,419,cs),
(1385,508,o),
(1308,581,o),
(1132,581,cs)
);
}
);
};
layerId = "2AD682F6-F6C7-4738-913E-50B961B61BC3";
shapes = (
{
closed = 1;
nodes = (
(758,449,l),
(600,677,l),
(490,517,l),
(490,1,l),
(398,1,l),
(398,549,l),
(551,771,ls),
(582,815,o),
(619,815,o),
(648,771,cs),
(850,480,l)
);
},
{
closed = 1;
nodes = (
(758,449,l),
(850,480,l),
(850,354,l),
(932,354,l),
(932,1,l),
(628,1,l),
(628,93,l),
(841,93,l),
(841,268,l),
(628,268,l),
(628,354,l),
(758,354,l)
);
},
{
closed = 1;
nodes = (
(325,214,l),
(325,1,l),
(25,1,l),
(25,370,l),
(227,661,ls),
(256,705,o),
(298,701,o),
(324,661,cs),
(478,430,l),
(418,381,l),
(282,578,l),
(117,339,l),
(117,254,l),
(117,248,l),
(117,92,l),
(241,92,l),
(241,192,l),
(94,405,l),
(141,482,l)
);
},
{
closed = 0;
nodes = (
(33,933,l),
(33,933,ls)
);
}
);
width = 957;
}
);
unicode = 3353;
},
{
glyphname = camlym;
layers = (
{
anchors = (
{
name = b.uni0D00;
pos = (526,0);
}
);
background = {
shapes = (
{
closed = 1;
nodes = (
(811,569,l),
(811,128,l),
(564,128,l),
(590,102,l),
(622,138,o),
(640,179,o),
(640,226,cs),
(640,297,o),
(591,400,o),
(400,400,cs),
(235,400,o),
(154,331,o),
(154,212,cs),
(154,201,o),
(155,175,o),
(158,158,c),
(341,173,l),
(340,182,o),
(339,189,o),
(339,199,cs),
(339,246,o),
(360,273,o),
(399,273,cs),
(445,273,o),
(462,242,o),
(462,203,cs),
(462,161,o),
(442,128,o),
(404,100,c),
(491,128,l),
(20,128,l),
(20,0,l),
(998,0,l),
(998,569,l)
);
}
);
};
layerId = "2AD682F6-F6C7-4738-913E-50B961B61BC3";
shapes = (
{
closed = 1;
nodes = (
(811,569,l),
(811,128,l),
(564,128,l),
(590,102,l),
(622,138,o),
(640,179,o),
(640,226,cs),
(640,297,o),
(591,400,o),
(400,400,cs),
(235,400,o),
(154,331,o),
(154,212,cs),
(154,201,o),
(155,175,o),
(158,158,c),
(341,173,l),
(340,182,o),
(339,189,o),
(339,199,cs),
(339,246,o),
(360,273,o),
(399,273,cs),
(445,273,o),
(462,242,o),
(462,203,cs),
(462,161,o),
(442,128,o),
(404,100,c),
(491,128,l),
(20,128,l),
(20,0,l),
(998,0,l),
(998,569,l)
);
}
);
width = 1053;
}
);
unicode = 3354;
},
{
glyphname = chamlym;
layers = (
{
anchors = (
{
name = b.uni0D00;
pos = (766,0);
}
);
background = {
shapes = (
{
closed = 1;
nodes = (
(235,400,o),
(154,331,o),
(154,212,cs),
(154,201,o),
(155,175,o),
(158,158,c),
(341,173,l),
(340,182,o),
(339,189,o),
(339,199,cs),
(339,246,o),
(360,273,o),
(399,273,cs),
(445,273,o),
(462,242,o),
(462,203,cs),
(462,161,o),
(442,128,o),
(404,100,c),
(491,128,l),
(20,128,l),
(20,0,l),
(915,0,l),
(811,128,l),
(564,128,l),
(590,102,l),
(622,138,o),
(640,179,o),
(640,226,cs),
(640,297,o),
(591,400,o),
(400,400,cs)
);
},
{
closed = 1;
nodes = (
(806,581,o),
(709,426,o),
(709,284,cs),
(709,197,o),
(740,134,o),
(808,65,c),
(845,0,l),
(920,0,l),
(979,84,l),
(930,146,o),
(899,203,o),
(899,281,cs),
(899,388,o),
(969,451,o),
(1103,451,cs),
(1229,451,o),
(1303,396,o),
(1314,329,c),
(1317,324,o),
(1311,310,o),
(1313,305,c),
(1316,285,o),
(1318,262,o),
(1318,242,cs),
(1318,153,o),
(1292,116,o),
(1242,116,cs),
(1205,116,o),
(1179,143,o),
(1179,205,cs),
(1179,265,o),
(1205,295,o),
(1253,295,cs),
(1306,295,o),
(1339,251,o),
(1349,203,c),
(1422,205,l),
(1414,305,o),
(1332,410,o),
(1207,410,cs),
(1075,410,o),
(999,331,o),
(999,205,cs),
(999,89,o),
(1068,-12,o),
(1239,-12,cs),
(1409,-12,o),
(1501,77,o),
(1501,237,cs),
(1501,418,o),
(1372,581,o),
(1089,581,cs)
);
}
);
};
layerId = "2AD682F6-F6C7-4738-913E-50B961B61BC3";
shapes = (
{
closed = 1;
nodes = (
(235,400,o),
(154,331,o),
(154,212,cs),
(154,201,o),
(155,175,o),
(158,158,c),
(341,173,l),
(340,182,o),
(339,189,o),
(339,199,cs),
(339,246,o),
(360,273,o),
(399,273,cs),
(445,273,o),
(462,242,o),
(462,203,cs),
(462,161,o),
(442,128,o),
(404,100,c),
(491,128,l),
(20,128,l),
(20,0,l),
(915,0,l),
(811,128,l),
(564,128,l),
(590,102,l),
(622,138,o),
(640,179,o),
(640,226,cs),
(640,297,o),
(591,400,o),
(400,400,cs)
);
},
{
closed = 1;
nodes = (
(806,581,o),
(709,426,o),
(709,284,cs),
(709,197,o),
(740,134,o),
(808,65,c),
(845,0,l),
(920,0,l),
(979,84,l),
(930,146,o),
(899,203,o),
(899,281,cs),
(899,388,o),
(969,451,o),
(1103,451,cs),
(1229,451,o),
(1303,396,o),
(1314,329,c),
(1317,324,o),
(1311,310,o),
(1313,305,c),
(1316,285,o),
(1318,262,o),
(1318,242,cs),
(1318,153,o),
(1292,116,o),
(1242,116,cs),
(1205,116,o),
(1179,143,o),
(1179,205,cs),
(1179,265,o),
(1205,295,o),
(1253,295,cs),
(1306,295,o),
(1339,251,o),
(1349,203,c),
(1422,205,l),
(1414,305,o),
(1332,410,o),
(1207,410,cs),
(1075,410,o),
(999,331,o),
(999,205,cs),
(999,89,o),
(1068,-12,o),
(1239,-12,cs),
(1409,-12,o),
(1501,77,o),
(1501,237,cs),
(1501,418,o),
(1372,581,o),
(1089,581,cs)
);
}
);
width = 1532;
}
);
unicode = 3355;
},
{
glyphname = jamlym;
lastChange = "2025-02-13 06:38:05 +0000";
layers = (
{
anchors = (
{
name = b.uni0D00;
pos = (532,0);
}
);
background = {
shapes = (
{
closed = 1;
nodes = (
(137,581,o),
(33,511,o),
(33,396,cs),
(33,293,o),
(108,247,o),
(217,247,cs),
(356,247,o),
(396,307,o),
(396,369,cs),
(396,447,o),
(334,480,o),
(246,480,cs),
(189,480,o),
(141,467,o),
(93,439,c),
(143,407,l),
(166,417,o),
(188,420,o),
(209,420,cs),
(237,420,o),
(254,405,o),
(254,380,cs),
(254,361,o),
(243,344,o),
(214,344,cs),
(191,344,o),
(172,356,o),
(172,393,cs),
(172,408,o),
(175,422,o),
(183,433,cs),
(185,437,o),
(187,445,o),
(191,448,cs),
(216,463,o),
(266,472,o),
(326,472,cs),
(379,472,o),
(413,459,o),
(437,439,cs),
(473,409,o),
(480,364,o),
(480,296,cs),
(480,269,l),
(646,269,l),
(646,333,ls),
(646,387,o),
(656,415,o),
(671,432,cs),
(686,448,o),
(707,455,o),
(741,455,cs),
(810,455,o),
(848,415,o),
(848,357,cs),
(848,309,o),
(830,281,o),
(788,264,cs),
(746,247,o),
(708,244,o),
(610,244,cs),
(267,244,ls),
(178,244,o),
(121,240,o),
(77,212,cs),
(47,193,o),
(27,164,o),
(27,118,cs),
(27,20,o),
(110,-12,o),
(218,-12,cs),
(317,-12,o),
(421,2,o),
(553,44,cs),
(645,73,o),
(694,105,o),
(725,128,c),
(724,105,l),
(758,134,o),
(783,149,o),
(813,149,cs),
(849,149,o),
(857,133,o),
(857,118,cs),
(857,100,o),
(843,89,o),
(813,89,cs),
(779,89,o),
(766,108,o),
(766,134,cs),
(766,174,o),
(806,207,o),
(838,222,c),
(694,231,l),
(658,212,o),
(626,176,o),
(626,122,cs),
(626,53,o),
(670,-12,o),
(820,-12,cs),
(939,-12,o),
(1002,31,o),
(1002,113,cs),
(1002,212,o),
(913,237,o),
(832,237,cs),
(783,237,o),
(671,177,o),
(626,158,c),
(560,152,o),
(485,138,o),
(410,121,cs),
(329,103,o),
(272,97,o),
(232,97,cs),
(200,97,o),
(186,104,o),
(186,118,cs),
(186,124,o),
(189,129,o),
(194,132,cs),
(200,136,o),
(210,137,o),
(228,137,cs),
(394,137,ls),
(432,137,o),
(477,138,o),
(529,142,cs),
(691,153,l),
(918,181,l),
(992,218,o),
(1028,278,o),
(1028,370,cs),
(1028,474,o),
(952,581,o),
(762,581,cs),
(673,581,o),
(602,560,o),
(545,507,c),
(572,515,l),
(521,549,o),
(460,581,o),
(325,581,cs)
);
}
);
};
guides = (
{
angle = 90;
pos = (467,496);
},
{
pos = (-1158,-709);
},
{
angle = 90;
pos = (-511,-427);
},
{
angle = 90;
pos = (478,-964);
}
);
layerId = "2AD682F6-F6C7-4738-913E-50B961B61BC3";
shapes = (
{
closed = 1;
nodes = (
(306,-60,l),
(116,-60,l),
(116,5,l),
(838,5,l),
(838,254,l),
(476,776,ls),
(446,820,o),
(377,807,o),
(376,755,cs),
(376,739,o),
(376,723,o),
(376,708,cs),
(376,535,l),
(350,572,ls),
(316,621,o),
(272,621,o),
(238,572,cs),
(25,263,l),
(93,166,l),
(339,166,l),
(339,310,ls),
(339,343,o),
(322,362,o),
(293,362,cs),
(293,362,ls),
(264,362,o),
(247,343,o),
(247,310,cs),
(247,258,l),
(135,258,l),
(298,494,l),
(388,366,l),
(467,366,l),
(467,634,l),
(746,235,l),
(746,97,l),
(25,97,l),
(25,-152,l),
(356,-152,l),
(500,57,l),
(406,85,l)
);
},
{
closed = 1;
nodes = (
(838,-64,l),
(724,97,l),
(510,97,l),
(510,-152,l),
(601,-152,l),
(601,5,l),
(684,5,l),
(777,-126,l)
);
},
{
closed = 1;
nodes = (
(837,-152,l),
(838,-64,l),
(566,-60,l),
(564,-152,l)
);
}
);
width = 863;
}
);
unicode = 3356;
},
{
glyphname = jhamlym;
lastChange = "2025-02-13 10:30:54 +0000";
layers = (
{
anchors = (
{
name = b.uni0D00;
pos = (661,0);
}
);
background = {
shapes = (
{
closed = 1;
nodes = (
(393,581,o),
(325,564,o),
(250,528,c),
(217,497,l),
(110,439,o),
(43,354,o),
(43,229,cs),
(43,73,o),
(135,-12,o),
(300,-12,cs),
(466,-12,o),
(556,63,o),
(556,226,cs),
(556,364,o),
(493,442,o),
(390,498,c),
(356,532,l),
(285,566,o),
(213,581,o),
(122,581,cs),
(-168,581,o),
(-255,417,o),
(-255,284,cs),
(-255,154,o),
(-196,65,o),
(-109,-12,c),
(27,68,l),
(-34,141,o),
(-66,201,o),
(-66,281,cs),
(-66,384,o),
(-11,457,o),
(137,457,cs),
(165,457,o),
(192,453,o),
(217,445,cs),
(247,435,l),
(318,402,o),
(369,325,o),
(369,230,cs),
(369,141,o),
(336,116,o),
(299,116,cs),
(263,116,o),
(230,144,o),
(230,230,cs),
(230,322,o),
(282,399,o),
(358,434,c),
(390,444,ls),
(418,453,o),
(449,457,o),
(482,457,cs),
(527,457,o),
(563,445,o),
(587,424,cs),
(624,393,o),
(640,336,o),
(640,260,cs),
(640,256,ls),
(640,162,o),
(662,89,o),
(718,43,cs),
(764,6,o),
(823,-12,o),
(893,-12,cs),
(985,-12,o),
(1046,12,o),
(1101,68,c),
(1085,63,l),
(1145,11,o),
(1201,-12,o),
(1290,-12,cs),
(1471,-12,o),
(1577,108,o),
(1577,270,cs),
(1577,395,o),
(1527,479,o),
(1438,581,c),
(1299,500,l),
(1361,414,o),
(1387,353,o),
(1387,274,cs),
(1387,158,o),
(1327,117,o),
(1269,117,cs),
(1242,117,o),
(1224,127,o),
(1212,141,cs),
(1194,161,o),
(1187,189,o),
(1187,241,cs),
(1187,569,l),
(1000,569,l),
(1000,256,ls),
(1000,194,o),
(996,161,o),
(976,140,cs),
(960,124,o),
(943,117,o),
(915,117,cs),
(888,117,o),
(872,126,o),
(859,138,cs),
(835,162,o),
(830,201,o),
(830,270,cs),
(830,286,ls),
(830,401,o),
(793,476,o),
(718,525,cs),
(661,562,o),
(590,581,o),
(493,581,cs)
);
}
);
};
layerId = "2AD682F6-F6C7-4738-913E-50B961B61BC3";
shapes = (
{
closed = 1;
nodes = (
(701,1,l),
(1054,1,l),
(1054,170,l),
(1054,475,ls),
(1054,535,o),
(956,534,o),
(956,476,cs),
(956,93,l),
(781,93,l)
);
},
{
closed = 1;
nodes = (
(1404,1,l),
(1404,374,l),
(1124,781,ls),
(1087,835,o),
(1012,780,o),
(1045,732,cs),
(1312,344,l),
(1312,93,l),
(1220,93,l),
(1053,335,l),
(1054,170,l),
(1171,1,l)
);
},
{
closed = 1;
nodes = (
(311,405,l),
(278,357,l),
(278,1,l),
(567,1,l),
(567,326,l),
(695,326,l),
(695,241,l),
(693,1,l),
(787,1,l),
(787,271,l),
(787,357,l),
(753,405,l),
(567,405,l),
(567,630,l),
(469,771,l),
(440,817,o),
(400,810,o),
(373,771,cs),
(25,269,l),
(25,1,l),
(117,1,l),
(117,237,l),
(421,677,l),
(477,595,l),
(476,92,l),
(370,92,l),
(370,326,l),
(477,326,l),
(477,405,l)
);
}
);
width = 1429;
}
);
unicode = 3357;
},
{
glyphname = nyamlym;
lastChange = "2025-02-12 16:17:09 +0000";
layers = (
{
anchors = (
{
name = b.uni0D00;
pos = (932,0);
}
);
background = {
shapes = (
{
closed = 1;
nodes = (
(284,581,o),
(115,460,o),
(115,244,cs),
(115,63,o),
(221,-12,o),
(360,-12,cs),
(514,-12,o),
(588,61,o),
(588,180,cs),
(588,285,o),
(526,359,o),
(398,359,cs),
(312,359,o),
(253,321,o),
(200,276,c),
(221,156,l),
(275,215,o),
(304,240,o),
(349,240,cs),
(385,240,o),
(407,216,o),
(407,173,cs),
(407,127,o),
(388,108,o),
(355,108,cs),
(317,108,o),
(284,135,o),
(284,240,cs),
(284,244,ls),
(284,380,o),
(383,453,o),
(500,453,cs),
(551,453,o),
(587,443,o),
(611,424,cs),
(644,397,o),
(656,359,o),
(656,273,cs),
(656,0,l),
(843,0,l),
(843,239,l),
(813,397,l),
(786,480,l),
(711,553,o),
(629,581,o),
(504,581,cs)
);
},
{
closed = 1;
nodes = (
(849,581,o),
(774,528,o),
(714,466,c),
(676,232,l),
(676,20,l),
(843,20,l),
(843,254,ls),
(843,348,o),
(857,395,o),
(893,425,cs),
(917,445,o),
(951,457,o),
(1008,457,cs),
(1025,457,o),
(1076,454,o),
(1103,445,cs),
(1133,435,l),
(1204,402,o),
(1255,325,o),
(1255,230,cs),
(1255,141,o),
(1222,116,o),
(1185,116,cs),
(1149,116,o),
(1116,144,o),
(1116,230,cs),
(1116,322,o),
(1170,399,o),
(1246,434,c),
(1278,444,ls),
(1306,453,o),
(1337,457,o),
(1374,457,cs),
(1501,457,o),
(1559,391,o),
(1559,281,cs),
(1559,201,o),
(1525,138,o),
(1466,68,c),
(1601,-12,l),
(1689,65,o),
(1748,154,o),
(1748,284,cs),
(1748,426,o),
(1665,581,o),
(1385,581,cs),
(1293,581,o),
(1213,564,o),
(1138,528,c),
(1105,498,l),
(998,440,o),
(929,354,o),
(929,229,cs),
(929,73,o),
(1021,-12,o),
(1186,-12,cs),
(1353,-12,o),
(1442,63,o),
(1442,226,cs),
(1442,364,o),
(1379,442,o),
(1276,498,c),
(1245,532,l),
(1174,566,o),
(1105,581,o),
(1015,581,cs)
);
}
);
};
layerId = "2AD682F6-F6C7-4738-913E-50B961B61BC3";
shapes = (
{
closed = 1;
nodes = (
(754,325,l),
(647,325,l),
(647,91,l),
(753,91,l),
(754,594,l),
(698,676,l),
(444,308,l),
(444,1,l),
(352,1,l),
(352,340,l),
(650,770,ls),
(677,809,o),
(717,816,o),
(746,770,c),
(844,629,l),
(844,404,l),
(1001,404,l),
(1094,270,l),
(1094,1,l),
(1002,1,l),
(1002,240,l),
(944,325,l),
(844,325,l),
(844,1,l),
(555,1,l),
(555,356,l),
(588,404,l),
(754,404,l)
);
},
{
closed = 1;
nodes = (
(171,258,o),
(263,258,o),
(263,197,cs),
(263,1,l),
(25,1,l),
(25,298,l),
(119,433,l),
(435,433,l),
(435,340,l),
(167,340,l),
(117,266,l),
(117,93,l),
(171,93,l),
(171,197,ls)
);
}
);
width = 1119;
}
);
unicode = 3358;
},
{
glyphname = ttamlym;
lastChange = "2025-02-13 09:21:54 +0000";
layers = (
{
anchors = (
{
name = b.uni0D00;
pos = (199,0);
}
);
background = {
shapes = (
{
closed = 1;
nodes = (
(-7,581,o),
(-98,503,o),
(-98,398,cs),
(-98,341,o),
(-79,302,o),
(-46,275,cs),
(4,234,o),
(75,223,o),
(178,223,cs),
(201,223,ls),
(253,223,o),
(276,220,o),
(292,205,cs),
(299,198,o),
(304,188,o),
(304,175,cs),
(304,140,o),
(275,117,o),
(188,117,cs),
(108,117,o),
(49,131,o),
(-41,177,c),
(-112,59,l),
(-26,15,o),
(77,-12,o),
(205,-12,cs),
(408,-12,o),
(496,64,o),
(496,172,cs),
(496,230,o),
(476,272,o),
(440,301,cs),
(395,337,o),
(337,353,o),
(222,353,cs),
(203,353,ls),
(155,353,o),
(126,356,o),
(111,366,cs),
(101,373,o),
(94,384,o),
(94,399,cs),
(94,430,o),
(121,452,o),
(199,452,cs),
(289,452,o),
(354,430,o),
(431,396,c),
(504,509,l),
(436,545,o),
(328,581,o),
(188,581,cs)
);
}
);
};
guides = (
{
angle = 235.4179;
pos = (155,640);
},
{
angle = 124.8101;
pos = (424,656);
},
{
angle = 270;
pos = (295,678);
},
{
angle = 270;
pos = (1056,675);
},
{
angle = 125.0144;
pos = (328,1395);
},
{
angle = -54.8476;
pos = (262,1328);
},
{
angle = -55.5973;
pos = (58,407);
},
{
angle = 125.1186;
pos = (539,408);
},
{
angle = -55.0935;
pos = (169,146);
}
);
layerId = "2AD682F6-F6C7-4738-913E-50B961B61BC3";
shapes = (
{
closed = 1;
nodes = (
(372,93,o),
(218,93,o),
(330,93,c),
(464,286,l),
(75,286,l),
(10,378,l),
(243,719,ls),
(277,768,o),
(313,759,o),
(341,719,cs),
(499,493,l),
(385,493,l),
(293,625,l),
(124,378,l),
(246,378,o),
(392,378,o),
(514,378,c),
(578,287,l),
(382,1,l),
(207,1,l),
(88,171,l),
(202,171,l),
(256,93,l)
);
}
);
width = 588;
}
);
unicode = 3359;
},
{
glyphname = tthamlym;
layers = (
{
anchors = (
{
name = b.uni0D00;
pos = (375,0);
}
);
background = {
shapes = (
{
closed = 1;
nodes = (
(159,581,o),
(35,464,o),
(35,287,cs),
(35,122,o),
(141,-12,o),
(375,-12,cs),
(592,-12,o),
(715,106,o),
(715,284,cs),
(715,462,o),
(593,581,o),
(373,581,cs)
);
},
{
closed = 1;
nodes = (
(277,118,o),
(224,183,o),
(224,286,cs),
(224,391,o),
(279,451,o),
(375,451,cs),
(476,451,o),
(526,385,o),
(526,286,cs),
(526,186,o),
(477,118,o),
(375,118,cs)
);
}
);
};
layerId = "2AD682F6-F6C7-4738-913E-50B961B61BC3";
shapes = (
{
closed = 1;
nodes = (
(159,581,o),
(35,464,o),
(35,287,cs),
(35,122,o),
(141,-12,o),
(375,-12,cs),
(592,-12,o),
(715,106,o),
(715,284,cs),
(715,462,o),
(593,581,o),
(373,581,cs)
);
},
{
closed = 1;
nodes = (
(277,118,o),
(224,183,o),
(224,286,cs),
(224,391,o),
(279,451,o),
(375,451,cs),
(476,451,o),
(526,385,o),
(526,286,cs),
(526,186,o),
(477,118,o),
(375,118,cs)
);
}
);
width = 750;
}
);
unicode = 3360;
},
{
glyphname = ddamlym;
layers = (
{
anchors = (
{
name = b.uni0D00;
pos = (697,0);
}
);
background = {
shapes = (
{
closed = 1;
nodes = (
(767,-12,o),
(828,12,o),
(884,68,c),
(868,63,l),
(928,11,o),
(984,-12,o),
(1073,-12,cs),
(1254,-12,o),
(1360,108,o),
(1360,270,cs),
(1360,395,o),
(1310,479,o),
(1221,581,c),
(1082,500,l),
(1144,414,o),
(1170,353,o),
(1170,274,cs),
(1170,158,o),
(1110,117,o),
(1052,117,cs),
(1025,117,o),
(1007,127,o),
(995,141,cs),
(977,161,o),
(970,189,o),
(970,241,cs),
(970,569,l),
(783,569,l),
(783,256,ls),
(783,194,o),
(779,161,o),
(758,140,cs),
(742,124,o),
(724,117,o),
(696,117,cs),
(668,117,o),
(651,126,o),
(638,138,cs),
(613,162,o),
(608,201,o),
(608,276,cs),
(608,291,ls),
(608,409,o),
(583,480,o),
(527,525,cs),
(481,562,o),
(420,581,o),
(325,581,cs),
(142,581,o),
(35,466,o),
(35,300,cs),
(35,174,o),
(85,90,o),
(174,-12,c),
(313,69,l),
(251,155,o),
(225,216,o),
(225,296,cs),
(225,415,o),
(274,452,o),
(329,452,cs),
(355,452,o),
(374,445,o),
(387,432,cs),
(412,408,o),
(417,365,o),
(417,305,cs),
(417,266,ls),
(417,158,o),
(440,89,o),
(497,43,cs),
(543,6,o),
(603,-12,o),
(674,-12,cs)
);
}
);
};
layerId = "2AD682F6-F6C7-4738-913E-50B961B61BC3";
shapes = (
{
closed = 1;
nodes = (
(767,-12,o),
(828,12,o),
(884,68,c),
(868,63,l),
(928,11,o),
(984,-12,o),
(1073,-12,cs),
(1254,-12,o),
(1360,108,o),
(1360,270,cs),
(1360,395,o),
(1310,479,o),
(1221,581,c),
(1082,500,l),
(1144,414,o),
(1170,353,o),
(1170,274,cs),
(1170,158,o),
(1110,117,o),
(1052,117,cs),
(1025,117,o),
(1007,127,o),
(995,141,cs),
(977,161,o),
(970,189,o),
(970,241,cs),
(970,569,l),
(783,569,l),
(783,256,ls),
(783,194,o),
(779,161,o),
(758,140,cs),
(742,124,o),
(724,117,o),
(696,117,cs),
(668,117,o),
(651,126,o),
(638,138,cs),
(613,162,o),
(608,201,o),
(608,276,cs),
(608,291,ls),
(608,409,o),
(583,480,o),
(527,525,cs),
(481,562,o),
(420,581,o),
(325,581,cs),
(142,581,o),
(35,466,o),
(35,300,cs),
(35,174,o),
(85,90,o),
(174,-12,c),
(313,69,l),
(251,155,o),
(225,216,o),
(225,296,cs),
(225,415,o),
(274,452,o),
(329,452,cs),
(355,452,o),
(374,445,o),
(387,432,cs),
(412,408,o),
(417,365,o),
(417,305,cs),
(417,266,ls),
(417,158,o),
(440,89,o),
(497,43,cs),
(543,6,o),
(603,-12,o),
(674,-12,c)
);
}
);
width = 1395;
}
);
unicode = 3361;
},
{
glyphname = ddhamlym;
layers = (
{
anchors = (
{
name = b.uni0D00;
pos = (772,0);
}
);
background = {
shapes = (
{
closed = 1;
nodes = (
(767,-12,o),
(828,12,o),
(884,68,c),
(970,241,l),
(970,569,l),
(783,569,l),
(783,256,ls),
(783,194,o),
(779,161,o),
(758,140,cs),
(742,124,o),
(724,117,o),
(696,117,cs),
(668,117,o),
(651,126,o),
(638,138,cs),
(613,162,o),
(608,201,o),
(608,276,cs),
(608,291,ls),
(608,409,o),
(583,480,o),
(527,525,cs),
(481,562,o),
(420,581,o),
(325,581,cs),
(142,581,o),
(35,466,o),
(35,300,cs),
(35,174,o),
(85,90,o),
(174,-12,c),
(313,69,l),
(251,155,o),
(225,216,o),
(225,296,cs),
(225,415,o),
(274,452,o),
(329,452,cs),
(355,452,o),
(374,445,o),
(387,432,cs),
(412,408,o),
(417,365,o),
(417,305,cs),
(417,266,ls),
(417,158,o),
(440,89,o),
(497,43,cs),
(543,6,o),
(603,-12,o),
(674,-12,cs)
);
},
{
closed = 1;
nodes = (
(1112,581,o),
(1038,508,o),
(1038,389,cs),
(1038,284,o),
(1100,210,o),
(1228,210,cs),
(1314,210,o),
(1373,248,o),
(1426,293,c),
(1405,413,l),
(1351,354,o),
(1322,329,o),
(1277,329,cs),
(1241,329,o),
(1219,353,o),
(1219,396,cs),
(1219,442,o),
(1238,461,o),
(1271,461,cs),
(1309,461,o),
(1342,434,o),
(1342,329,cs),
(1342,325,ls),
(1342,189,o),
(1243,116,o),
(1126,116,cs),
(1075,116,o),
(1039,126,o),
(1015,145,cs),
(982,172,o),
(970,210,o),
(970,296,cs),
(970,549,l),
(793,549,l),
(793,330,l),
(840,89,l),
(915,16,o),
(997,-12,o),
(1122,-12,cs),
(1342,-12,o),
(1511,109,o),
(1511,325,cs),
(1511,506,o),
(1405,581,o),
(1266,581,cs)
);
}
);
};
layerId = "2AD682F6-F6C7-4738-913E-50B961B61BC3";
shapes = (
{
closed = 1;
nodes = (
(767,-12,o),
(828,12,o),
(884,68,c),
(970,241,l),
(970,569,l),
(783,569,l),
(783,256,ls),
(783,194,o),
(779,161,o),
(758,140,cs),
(742,124,o),
(724,117,o),
(696,117,cs),
(668,117,o),
(651,126,o),
(638,138,cs),
(613,162,o),
(608,201,o),
(608,276,cs),
(608,291,ls),
(608,409,o),
(583,480,o),
(527,525,cs),
(481,562,o),
(420,581,o),
(325,581,cs),
(142,581,o),
(35,466,o),
(35,300,cs),
(35,174,o),
(85,90,o),
(174,-12,c),
(313,69,l),
(251,155,o),
(225,216,o),
(225,296,cs),
(225,415,o),
(274,452,o),
(329,452,cs),
(355,452,o),
(374,445,o),
(387,432,cs),
(412,408,o),
(417,365,o),
(417,305,cs),
(417,266,ls),
(417,158,o),
(440,89,o),
(497,43,cs),
(543,6,o),
(603,-12,o),
(674,-12,cs)
);
},
{
closed = 1;
nodes = (
(1112,581,o),
(1038,508,o),
(1038,389,cs),
(1038,284,o),
(1100,210,o),
(1228,210,cs),
(1314,210,o),
(1373,248,o),
(1426,293,c),
(1405,413,l),
(1351,354,o),
(1322,329,o),
(1277,329,cs),
(1241,329,o),
(1219,353,o),
(1219,396,cs),
(1219,442,o),
(1238,461,o),
(1271,461,cs),
(1309,461,o),
(1342,434,o),
(1342,329,cs),
(1342,325,ls),
(1342,189,o),
(1243,116,o),
(1126,116,cs),
(1075,116,o),
(1039,126,o),
(1015,145,cs),
(982,172,o),
(970,210,o),
(970,296,cs),
(970,549,l),
(793,549,l),
(793,330,l),
(840,89,l),
(915,16,o),
(997,-12,o),
(1122,-12,c),
(1342,-12,o),
(1511,109,o),
(1511,325,cs),
(1511,506,o),
(1405,581,o),
(1266,581,cs)
);
}
);
width = 1544;
}
);
unicode = 3362;
},
{
glyphname = nnamlym;
lastChange = "2025-02-13 09:20:00 +0000";
layers = (
{
anchors = (
{
name = b.uni0D00;
pos = (809,0);
}
);
background = {
shapes = (
{
closed = 1;
nodes = (
(233,581,o),
(64,460,o),
(64,245,cs),
(64,63,o),
(170,-12,o),
(309,-12,cs),
(463,-12,o),
(537,61,o),
(537,179,cs),
(537,285,o),
(475,359,o),
(347,359,cs),
(261,359,o),
(202,321,o),
(149,276,c),
(170,156,l),
(224,215,o),
(253,240,o),
(298,240,cs),
(334,240,o),
(356,216,o),
(356,173,cs),
(356,127,o),
(337,108,o),
(304,108,cs),
(266,108,o),
(233,135,o),
(233,240,cs),
(233,244,ls),
(233,380,o),
(332,453,o),
(449,453,cs),
(500,453,o),
(536,443,o),
(560,424,cs),
(593,397,o),
(605,359,o),
(605,273,cs),
(605,0,l),
(792,0,l),
(792,305,ls),
(792,369,o),
(800,405,o),
(820,427,cs),
(835,443,o),
(855,452,o),
(883,452,cs),
(912,452,o),
(933,444,o),
(947,429,cs),
(967,408,o),
(975,373,o),
(975,313,cs),
(975,0,l),
(1162,0,l),
(1162,328,ls),
(1162,380,o),
(1169,408,o),
(1187,428,cs),
(1199,442,o),
(1217,452,o),
(1244,452,cs),
(1302,452,o),
(1362,411,o),
(1362,295,cs),
(1362,216,o),
(1336,155,o),
(1274,69,c),
(1413,-12,l),
(1502,90,o),
(1552,174,o),
(1552,299,cs),
(1552,461,o),
(1446,581,o),
(1265,581,cs),
(1176,581,o),
(1120,558,o),
(1060,506,c),
(1076,499,l),
(1017,561,o),
(961,581,o),
(883,581,cs),
(791,581,o),
(734,553,o),
(686,502,c),
(735,480,l),
(660,553,o),
(578,581,o),
(453,581,cs)
);
}
);
};
layerId = "2AD682F6-F6C7-4738-913E-50B961B61BC3";
shapes = (
{
closed = 1;
nodes = (
(762,393,l),
(500,772,ls),
(471,814,o),
(432,815,o),
(403,772,cs),
(341,682,l),
(341,386,l),
(261,501,ls),
(236,537,o),
(185,545,o),
(156,503,cs),
(25,315,l),
(25,1,l),
(117,1,l),
(117,289,l),
(208,421,l),
(341,228,l),
(341,1,l),
(433,1,l),
(431,648,l),
(452,678,l),
(673,358,l),
(673,1,l),
(765,1,l),
(765,241,l),
(845,357,l),
(923,244,l),
(923,1,l),
(1015,1,l),
(1015,270,l),
(892,447,ls),
(863,489,o),
(821,481,o),
(798,447,cs),
(765,398,l)
);
},
{
closed = 1;
nodes = (
(108,1,l),
(254,1,l),
(254,217,ls),
(254,272,o),
(175,272,o),
(175,217,cs),
(175,93,l),
(108,93,l)
);
}
);
width = 1040;
}
);
unicode = 3363;
},
{
glyphname = tamlym;
lastChange = "2025-02-13 05:46:54 +0000";
layers = (
{
anchors = (
{
name = b.uni0D00;
pos = (398,0);
}
);
background = {
shapes = (
{
closed = 1;
nodes = (
(562,-12,o),
(651,63,o),
(651,226,cs),
(651,364,o),
(588,442,o),
(485,498,c),
(451,532,l),
(380,566,o),
(308,581,o),
(217,581,cs),
(-73,581,o),
(-160,417,o),
(-160,284,cs),
(-160,154,o),
(-101,65,o),
(-14,-12,c),
(122,68,l),
(61,141,o),
(29,201,o),
(29,281,cs),
(29,384,o),
(84,457,o),
(232,457,cs),
(260,457,o),
(287,453,o),
(312,445,cs),
(342,435,l),
(413,402,o),
(464,325,o),
(464,230,cs),
(464,141,o),
(431,116,o),
(394,116,cs),
(358,116,o),
(325,144,o),
(325,230,cs),
(325,322,o),
(379,399,o),
(455,434,c),
(487,444,ls),
(515,453,o),
(546,457,o),
(583,457,cs),
(710,457,o),
(768,391,o),
(768,281,cs),
(768,201,o),
(734,138,o),
(675,68,c),
(810,-12,l),
(898,65,o),
(957,154,o),
(957,284,cs),
(957,426,o),
(874,581,o),
(594,581,cs),
(502,581,o),
(422,564,o),
(347,528,c),
(314,498,l),
(207,440,o),
(138,354,o),
(138,229,cs),
(138,73,o),
(230,-12,o),
(395,-12,cs)
);
}
);
};
guides = (
{
pos = (-1186,-290);
},
{
angle = -55.1993;
pos = (-859,519);
},
{
angle = -55.1993;
pos = (518,742);
},
{
angle = 124.3302;
pos = (461,669);
}
);
layerId = "2AD682F6-F6C7-4738-913E-50B961B61BC3";
shapes = (
{
closed = 1;
nodes = (
(477,326,l),
(370,326,l),
(370,92,l),
(476,92,l),
(477,595,l),
(421,677,l),
(117,237,l),
(117,1,l),
(25,1,l),
(25,269,l),
(373,771,ls),
(400,810,o),
(440,817,o),
(469,771,c),
(567,630,l),
(567,405,l),
(724,405,l),
(817,271,l),
(817,1,l),
(725,1,l),
(725,241,l),
(667,326,l),
(567,326,l),
(567,2,l),
(476,2,l),
(278,1,l),
(278,357,l),
(311,405,l),
(477,405,l)
);
}
);
width = 842;
}
);
unicode = 3364;
},
{
glyphname = thamlym;
layers = (
{
anchors = (
{
name = b.uni0D00;
pos = (505,0);
}
);
background = {
shapes = (
{
closed = 1;
nodes = (
(55,569,l),
(55,0,l),
(422,0,l),
(422,128,l),
(241,128,l),
(241,569,l)
);
},
{
alignment = -1;
ref = thapart;
}
);
};
layerId = "2AD682F6-F6C7-4738-913E-50B961B61BC3";
shapes = (
{
closed = 1;
nodes = (
(55,569,l),
(55,0,l),
(422,0,l),
(422,128,l),
(241,128,l),
(241,569,l)
);
},
{
alignment = -1;
ref = thapart;
}
);
width = 1011;
}
);
unicode = 3365;
},
{
glyphname = damlym;
lastChange = "2025-02-11 18:29:46 +0000";
layers = (
{
anchors = (
{
name = b.uni0D00;
pos = (392,0);
}
);
guides = (
{
angle = -55.2332;
pos = (570,625);
}
);
layerId = "2AD682F6-F6C7-4738-913E-50B961B61BC3";
shapes = (
{
closed = 1;
nodes = (
(579,449,l),
(421,677,l),
(117,237,l),
(117,1,l),
(25,1,l),
(25,269,l),
(372,771,ls),
(400,813,o),
(440,815,o),
(469,771,cs),
(671,480,l)
);
},
{
closed = 1;
nodes = (
(579,449,l),
(671,480,l),
(671,354,l),
(753,354,l),
(753,1,l),
(399,1,l),
(399,93,l),
(662,93,l),
(662,268,l),
(399,268,l),
(399,354,l),
(579,354,l)
);
}
);
width = 778;
}
);
unicode = 3366;
},
{
glyphname = dhamlym;
lastChange = "2025-02-11 18:30:47 +0000";
layers = (
{
anchors = (
{
name = b.uni0D00;
pos = (529,0);
}
);
guides = (
{
angle = -54.8093;
pos = (722,352);
}
);
layerId = "2AD682F6-F6C7-4738-913E-50B961B61BC3";
shapes = (
{
closed = 1;
nodes = (
(734,1,l),
(734,334,l),
(647,458,ls),
(614,506,o),
(540,454,o),
(577,402,cs),
(642,310,l),
(642,93,l),
(467,93,l),
(467,493,ls),
(467,551,o),
(377,553,o),
(377,493,cs),
(375,170,l),
(375,1,l)
);
},
{
closed = 1;
nodes = (
(375,170,l),
(376,335,l),
(209,93,l),
(117,93,l),
(117,344,l),
(384,732,ls),
(417,780,o),
(342,835,o),
(305,781,cs),
(25,374,l),
(25,1,l),
(258,1,l)
);
}
);
width = 759;
}
);
unicode = 3367;
},
{
glyphname = namlym;
lastChange = "2025-02-11 18:30:54 +0000";
layers = (
{
anchors = (
{
name = b.uni0D00;
pos = (529,0);
}
);
layerId = "2AD682F6-F6C7-4738-913E-50B961B61BC3";
shapes = (
{
closed = 1;
nodes = (
(366,1,l),
(365,596,l),
(421,678,l),
(642,358,l),
(642,1,l),
(734,1,l),
(734,390,l),
(469,772,ls),
(442,813,o),
(402,818,o),
(373,772,c),
(275,631,l),
(275,398,l),
(241,447,ls),
(218,481,o),
(178,491,o),
(148,447,cs),
(25,270,l),
(25,1,l),
(117,1,l),
(117,244,l),
(195,357,l),
(275,240,l),
(275,1,l)
);
}
);
width = 759;
}
);
unicode = 3368;
},
{
glyphname = nnnamlym;
layers = (
{
anchors = (
{
name = b.uni0D00;
pos = (595,0);
}
);
background = {
shapes = (
{
closed = 1;
nodes = (
(202,581,o),
(33,460,o),
(33,244,cs),
(33,63,o),
(139,-12,o),
(278,-12,cs),
(432,-12,o),
(506,61,o),
(506,180,cs),
(506,285,o),
(444,359,o),
(316,359,cs),
(230,359,o),
(171,321,o),
(118,276,c),
(139,156,l),
(193,215,o),
(222,240,o),
(267,240,cs),
(303,240,o),
(325,216,o),
(325,173,cs),
(325,127,o),
(306,108,o),
(273,108,cs),
(235,108,o),
(202,135,o),
(202,240,cs),
(202,244,ls),
(202,380,o),
(301,453,o),
(418,453,cs),
(469,453,o),
(505,443,o),
(529,424,cs),
(562,397,o),
(574,359,o),
(574,273,cs),
(574,0,l),
(761,0,l),
(761,327,ls),
(761,380,o),
(768,408,o),
(786,428,cs),
(798,442,o),
(817,452,o),
(845,452,cs),
(904,452,o),
(965,411,o),
(965,295,cs),
(965,216,o),
(939,155,o),
(877,69,c),
(1016,-12,l),
(1105,90,o),
(1155,174,o),
(1155,299,cs),
(1155,461,o),
(1049,581,o),
(866,581,cs),
(775,581,o),
(715,559,o),
(654,505,c),
(704,480,l),
(629,553,o),
(547,581,o),
(422,581,cs)
);
}
);
};
layerId = "2AD682F6-F6C7-4738-913E-50B961B61BC3";
shapes = (
{
closed = 1;
nodes = (
(202,581,o),
(33,460,o),
(33,244,cs),
(33,63,o),
(139,-12,o),
(278,-12,cs),
(432,-12,o),
(506,61,o),
(506,180,cs),
(506,285,o),
(444,359,o),
(316,359,cs),
(230,359,o),
(171,321,o),
(118,276,c),
(139,156,l),
(193,215,o),
(222,240,o),
(267,240,cs),
(303,240,o),
(325,216,o),
(325,173,cs),
(325,127,o),
(306,108,o),
(273,108,cs),
(235,108,o),
(202,135,o),
(202,240,cs),
(202,244,ls),
(202,380,o),
(301,453,o),
(418,453,cs),
(469,453,o),
(505,443,o),
(529,424,cs),
(562,397,o),
(574,359,o),
(574,273,cs),
(574,0,l),
(761,0,l),
(761,327,ls),
(761,380,o),
(768,408,o),
(786,428,cs),
(798,442,o),
(817,452,o),
(845,452,cs),
(904,452,o),
(965,411,o),
(965,295,cs),
(965,216,o),
(939,155,o),
(877,69,c),
(1016,-12,l),
(1105,90,o),
(1155,174,o),
(1155,299,cs),
(1155,461,o),
(1049,581,o),
(866,581,cs),
(775,581,o),
(715,559,o),
(654,505,c),
(704,480,l),
(629,553,o),
(547,581,o),
(422,581,cs)
);
}
);
width = 1190;
}
);
unicode = 3369;
},
{
glyphname = pamlym;
lastChange = "2025-02-13 05:21:18 +0000";
layers = (
{
anchors = (
{
name = b.uni0D00;
pos = (555,0);
}
);
background = {
shapes = (
{
closed = 1;
nodes = (
(181,372,o),
(75,296,o),
(75,170,cs),
(75,97,o),
(108,37,o),
(156,-13,c),
(300,45,l),
(276,83,o),
(260,119,o),
(260,160,cs),
(260,210,o),
(284,245,o),
(335,245,cs),
(387,245,o),
(408,205,o),
(408,163,cs),
(408,123,o),
(391,92,o),
(377,70,c),
(440,0,l),
(1008,0,l),
(1008,569,l),
(821,569,l),
(821,128,l),
(569,128,l),
(566,76,l),
(579,105,o),
(586,143,o),
(586,173,cs),
(586,268,o),
(512,372,o),
(333,372,cs)
);
}
);
};
layerId = "2AD682F6-F6C7-4738-913E-50B961B61BC3";
shapes = (
{
closed = 1;
nodes = (
(241,377,ls),
(219,409,o),
(178,421,o),
(148,377,cs),
(25,200,l),
(25,1,l),
(117,1,l),
(117,174,l),
(195,287,l),
(275,170,l),
(275,1,l),
(367,1,l),
(367,195,l)
);
},
{
closed = 1;
nodes = (
(943,93,l),
(344,93,l),
(344,1,l),
(943,1,l)
);
},
{
closed = 1;
nodes = (
(943,65,l),
(943,501,l),
(851,501,l),
(851,65,l)
);
}
);
width = 968;
}
);
unicode = 3370;
},
{
glyphname = phamlym;
lastChange = "2025-02-13 05:23:05 +0000";
layers = (
{
anchors = (
{
name = b.uni0D00;
pos = (690,0);
}
);
background = {
shapes = (
{
closed = 1;
nodes = (
(181,372,o),
(75,296,o),
(75,170,cs),
(75,97,o),
(108,37,o),
(156,-13,c),
(300,45,l),
(276,83,o),
(260,119,o),
(260,160,cs),
(260,210,o),
(284,245,o),
(335,245,cs),
(387,245,o),
(408,205,o),
(408,163,cs),
(408,123,o),
(391,92,o),
(377,70,c),
(440,0,l),
(822,0,l),
(821,128,l),
(569,128,l),
(566,76,l),
(579,105,o),
(586,143,o),
(586,173,cs),
(586,268,o),
(512,372,o),
(333,372,cs)
);
},
{
alignment = -1;
pos = (322,0);
ref = thapart;
}
);
};
layerId = "2AD682F6-F6C7-4738-913E-50B961B61BC3";
shapes = (
{
alignment = -1;
pos = (332,90);
ref = thapart;
},
{
closed = 1;
nodes = (
(241,377,ls),
(219,409,o),
(178,421,o),
(148,377,cs),
(25,200,l),
(25,1,l),
(117,1,l),
(117,174,l),
(195,287,l),
(275,170,l),
(275,1,l),
(367,1,l),
(367,195,l)
);
},
{
closed = 1;
nodes = (
(893,93,l),
(344,93,l),
(344,1,l),
(893,1,l)
);
}
);
width = 1004;
}
);
unicode = 3371;
},
{
glyphname = bamlym;
layers = (
{
anchors = (
{
name = b.uni0D00;
pos = (760,0);
}
);
background = {
shapes = (
{
closed = 1;
nodes = (
(202,581,o),
(33,460,o),
(33,244,cs),
(33,63,o),
(139,-12,o),
(278,-12,cs),
(432,-12,o),
(506,61,o),
(506,180,cs),
(506,285,o),
(444,359,o),
(316,359,cs),
(230,359,o),
(171,321,o),
(118,276,c),
(139,156,l),
(193,215,o),
(222,240,o),
(267,240,cs),
(303,240,o),
(325,216,o),
(325,173,cs),
(325,127,o),
(306,108,o),
(273,108,cs),
(235,108,o),
(202,135,o),
(202,240,cs),
(202,244,ls),
(202,380,o),
(301,453,o),
(418,453,cs),
(469,453,o),
(505,443,o),
(529,424,cs),
(562,397,o),
(574,359,o),
(574,273,cs),
(574,0,l),
(761,0,l),
(761,317,l),
(737,404,l),
(704,480,l),
(629,553,o),
(547,581,o),
(422,581,cs)
);
},
{
closed = 1;
nodes = (
(1278,569,l),
(1278,128,l),
(1053,128,l),
(1091,104,l),
(1138,166,o),
(1155,223,o),
(1155,299,cs),
(1155,459,o),
(1049,581,o),
(866,581,cs),
(775,581,o),
(715,559,o),
(654,505,c),
(637,424,l),
(595,232,l),
(595,10,l),
(761,10,l),
(761,327,ls),
(761,380,o),
(768,408,o),
(786,428,cs),
(798,442,o),
(817,452,o),
(845,452,cs),
(904,452,o),
(965,411,o),
(965,295,cs),
(965,217,o),
(940,157,o),
(880,65,c),
(928,0,l),
(1465,0,l),
(1465,569,l)
);
}
);
};
layerId = "2AD682F6-F6C7-4738-913E-50B961B61BC3";
shapes = (
{
closed = 1;
nodes = (
(202,581,o),
(33,460,o),
(33,244,cs),
(33,63,o),
(139,-12,o),
(278,-12,cs),
(432,-12,o),
(506,61,o),
(506,180,cs),
(506,285,o),
(444,359,o),
(316,359,cs),
(230,359,o),
(171,321,o),
(118,276,c),
(139,156,l),
(193,215,o),
(222,240,o),
(267,240,cs),
(303,240,o),
(325,216,o),
(325,173,cs),
(325,127,o),
(306,108,o),
(273,108,cs),
(235,108,o),
(202,135,o),
(202,240,cs),
(202,244,ls),
(202,380,o),
(301,453,o),
(418,453,cs),
(469,453,o),
(505,443,o),
(529,424,cs),
(562,397,o),
(574,359,o),
(574,273,cs),
(574,0,l),
(761,0,l),
(761,317,l),
(737,404,l),
(704,480,l),
(629,553,o),
(547,581,o),
(422,581,cs)
);
},
{
closed = 1;
nodes = (
(1278,569,l),
(1278,128,l),
(1053,128,l),
(1091,104,l),
(1138,166,o),
(1155,223,o),
(1155,299,cs),
(1155,459,o),
(1049,581,o),
(866,581,cs),
(775,581,o),
(715,559,o),
(654,505,c),
(637,424,l),
(595,232,l),
(595,10,l),
(761,10,l),
(761,327,ls),
(761,380,o),
(768,408,o),
(786,428,cs),
(798,442,o),
(817,452,o),
(845,452,cs),
(904,452,o),
(965,411,o),
(965,295,cs),
(965,217,o),
(940,157,o),
(880,65,c),
(928,0,l),
(1465,0,l),
(1465,569,l)
);
}
);
width = 1520;
}
);
unicode = 3372;
},
{
glyphname = bhamlym;
lastChange = "2025-02-13 05:20:53 +0000";
layers = (
{
anchors = (
{
name = b.uni0D00;
pos = (1342,0);
}
);
background = {
shapes = (
{
closed = 1;
nodes = (
(168,581,o),
(39,445,o),
(39,224,cs),
(39,152,o),
(55,63,o),
(80,-4,c),
(256,29,l),
(238,85,o),
(229,151,o),
(229,212,cs),
(229,367,o),
(305,455,o),
(472,455,cs),
(540,455,o),
(583,446,o),
(583,424,cs),
(583,415,o),
(578,404,o),
(546,404,cs),
(521,404,ls),
(447,404,o),
(393,396,o),
(353,365,cs),
(327,345,o),
(310,316,o),
(310,275,cs),
(310,239,o),
(321,213,o),
(341,193,cs),
(375,160,o),
(424,149,o),
(527,149,cs),
(551,149,ls),
(574,149,o),
(585,144,o),
(585,131,cs),
(585,115,o),
(567,110,o),
(510,110,cs),
(451,110,o),
(410,116,o),
(354,135,c),
(300,22,l),
(371,-3,o),
(425,-12,o),
(528,-12,cs),
(692,-12,o),
(755,50,o),
(755,129,cs),
(755,175,o),
(736,206,o),
(708,225,cs),
(672,250,o),
(628,256,o),
(563,256,cs),
(532,256,ls),
(501,256,o),
(480,259,o),
(480,276,cs),
(480,284,o),
(484,288,o),
(489,291,cs),
(496,295,o),
(506,297,o),
(531,297,cs),
(573,297,ls),
(642,297,o),
(684,301,o),
(718,327,cs),
(742,346,o),
(756,376,o),
(756,420,cs),
(756,527,o),
(651,581,o),
(469,581,cs)
);
}
);
};
guides = (
{
angle = 124.4519;
pos = (-380,312);
},
{
angle = 124.452;
pos = (-297,354);
},
{
angle = 55.0543;
pos = (-300,439);
},
{
angle = 234.7276;
pos = (-201,416);
},
{
angle = 179.5659;
pos = (-233,269);
},
{
pos = (-160,354);
},
{
angle = -54.5171;
pos = (-233,592);
},
{
angle = 270;
pos = (399,47);
}
);
layerId = "2AD682F6-F6C7-4738-913E-50B961B61BC3";
shapes = (
{
closed = 1;
nodes = (
(547,659,o),
(536,674,o),
(469,771,cs),
(440,815,o),
(400,813,o),
(372,771,cs),
(25,269,l),
(25,1,l),
(117,1,l),
(117,237,l),
(421,677,l),
(474,601,o),
(505,556,o),
(558,480,c),
(614,562,l)
);
},
{
closed = 1;
nodes = (
(399,296,l),
(431,250,l),
(662,249,l),
(662,93,l),
(399,93,l),
(399,1,l),
(753,1,l),
(753,335,l),
(540,335,l),
(655,501,l),
(614,562,l),
(543,503,l)
);
}
);
width = 778;
}
);
unicode = 3373;
},
{
glyphname = mamlym;
lastChange = "2025-02-12 07:37:16 +0000";
layers = (
{
anchors = (
{
name = b.uni0D00;
pos = (450,0);
}
);
layerId = "2AD682F6-F6C7-4738-913E-50B961B61BC3";
shapes = (
{
closed = 1;
nodes = (
(657,1,l),
(657,279,l),
(579,392,l),
(655,503,l),
(469,772,ls),
(439,815,o),
(400,813,o),
(372,772,cs),
(25,270,l),
(25,1,l)
);
},
{
closed = 1;
nodes = (
(117,238,l),
(421,678,l),
(542,503,l),
(258,92,l),
(117,92,l)
);
},
{
closed = 1;
nodes = (
(527,318,l),
(570,255,l),
(570,92,l),
(372,92,l)
);
}
);
width = 682;
}
);
unicode = 3374;
},
{
glyphname = yamlym;
lastChange = "2025-02-11 18:30:09 +0000";
layers = (
{
anchors = (
{
name = b.uni0D00;
pos = (613,0);
}
);
guides = (
{
angle = -55.3887;
pos = (375,250);
},
{
angle = 124.5401;
pos = (497,201);
},
{
angle = 124.8836;
pos = (436,688);
},
{
angle = -55.3416;
pos = (366,625);
},
{
angle = -55.4599;
pos = (1330,264);
},
{
angle = 124.49;
pos = (1493,147);
}
);
layerId = "2AD682F6-F6C7-4738-913E-50B961B61BC3";
shapes = (
{
closed = 1;
nodes = (
(485,1,l),
(485,103,l),
(556,1,l),
(734,1,l),
(734,256,ls),
(734,313,o),
(642,313,o),
(642,256,cs),
(642,93,l),
(580,93,l),
(485,231,l),
(485,630,l),
(386,772,ls),
(359,813,o),
(319,818,o),
(290,772,c),
(108,510,l),
(108,405,l),
(25,405,l),
(25,1,l)
);
},
{
closed = 1;
nodes = (
(117,314,l),
(340,314,l),
(393,237,l),
(393,93,l),
(117,93,l)
);
},
{
closed = 1;
nodes = (
(200,478,l),
(338,678,l),
(394,597,l),
(394,364,l),
(366,405,l),
(200,405,l)
);
}
);
width = 759;
}
);
unicode = 3375;
},
{
glyphname = ramlym;
lastChange = "2025-02-13 09:51:38 +0000";
layers = (
{
anchors = (
{
name = b.uni0D00;
pos = (619,0);
}
);
background = {
shapes = (
{
closed = 1;
nodes = (
(134,581,o),
(35,426,o),
(35,284,cs),
(35,154,o),
(94,65,o),
(181,-12,c),
(320,69,l),
(260,139,o),
(227,201,o),
(227,281,cs),
(227,388,o),
(297,451,o),
(431,451,cs),
(557,451,o),
(631,396,o),
(642,329,c),
(645,324,o),
(639,310,o),
(641,305,c),
(644,285,o),
(646,262,o),
(646,242,cs),
(646,153,o),
(620,116,o),
(570,116,cs),
(533,116,o),
(507,143,o),
(507,205,cs),
(507,265,o),
(533,295,o),
(581,295,cs),
(634,295,o),
(667,251,o),
(677,203,c),
(750,205,l),
(742,305,o),
(660,410,o),
(535,410,cs),
(403,410,o),
(327,331,o),
(327,205,cs),
(327,89,o),
(396,-12,o),
(567,-12,cs),
(737,-12,o),
(829,77,o),
(829,237,cs),
(829,418,o),
(700,581,o),
(417,581,cs)
);
}
);
};
layerId = "2AD682F6-F6C7-4738-913E-50B961B61BC3";
shapes = (
{
closed = 1;
nodes = (
(348,324,l),
(351,1,l),
(671,1,l),
(671,480,l),
(469,771,ls),
(440,815,o),
(400,813,o),
(372,771,cs),
(25,269,l),
(25,1,l),
(117,1,l),
(117,237,l),
(421,677,l),
(579,449,l),
(579,364,l),
(579,358,l),
(579,92,l),
(435,92,l),
(434,301,l),
(582,515,l),
(535,592,l)
);
},
{
closed = 0;
nodes = (
(512,933,l),
(512,933,ls)
);
}
);
width = 696;
}
);
unicode = 3376;
},
{
glyphname = rramlym;
lastChange = "2025-02-13 13:23:38 +0000";
layers = (
{
anchors = (
{
name = b.uni0D00;
pos = (396,0);
}
);
layerId = "2AD682F6-F6C7-4738-913E-50B961B61BC3";
shapes = (
{
closed = 1;
nodes = (
(651,509,l),
(469,771,l),
(440,817,o),
(400,812,o),
(373,771,cs),
(25,269,l),
(25,0,l),
(117,0,l),
(117,237,l),
(421,677,l),
(559,477,l),
(559,0,l),
(651,0,l)
);
}
);
width = 676;
}
);
unicode = 3377;
},
{
glyphname = lamlym;
lastChange = "2025-02-13 13:23:16 +0000";
layers = (
{
anchors = (
{
name = b.uni0D00;
pos = (345,0);
}
);
background = {
shapes = (
{
closed = 1;
nodes = (
(591,569,l),
(591,128,l),
(94,128,l),
(94,209,l),
(493,209,l),
(493,296,ls),
(493,405,o),
(465,469,o),
(412,516,cs),
(363,559,o),
(296,581,o),
(202,581,cs),
(114,581,o),
(45,560,o),
(-6,517,cs),
(-59,472,o),
(-92,408,o),
(-92,297,cs),
(-92,0,l),
(778,0,l),
(778,569,l)
);
},
{
closed = 1;
nodes = (
(269,453,o),
(307,408,o),
(307,339,cs),
(307,335,l),
(94,335,l),
(94,339,ls),
(94,405,o),
(127,453,o),
(201,453,cs)
);
}
);
};
layerId = "2AD682F6-F6C7-4738-913E-50B961B61BC3";
shapes = (
{
closed = 1;
nodes = (
(241,654,ls),
(224,679,o),
(175,692,o),
(148,654,cs),
(25,477,l),
(25,72,l),
(117,72,l),
(117,451,l),
(195,564,l),
(322,377,l),
(322,186,l),
(414,186,l),
(414,402,l)
);
},
{
closed = 1;
nodes = (
(785,93,l),
(25,93,l),
(25,1,l),
(785,1,l)
);
},
{
closed = 1;
nodes = (
(785,65,l),
(785,455,l),
(693,455,l),
(693,65,l)
);
},
{
closed = 1;
nodes = (
(364,278,l),
(72,278,l),
(72,186,l),
(364,186,l)
);
}
);
width = 810;
}
);
unicode = 3378;
},
{
glyphname = llamlym;
lastChange = "2025-02-13 09:00:25 +0000";
layers = (
{
anchors = (
{
name = b.uni0D00;
pos = (408,0);
}
);
background = {
shapes = (
{
closed = 1;
nodes = (
(546,457,o),
(589,431,o),
(589,393,cs),
(589,377,o),
(584,368,o),
(574,360,cs),
(562,351,o),
(540,348,o),
(511,348,cs),
(501,348,l),
(501,326,l),
(539,250,l),
(690,266,o),
(775,318,o),
(775,411,cs),
(775,518,o),
(671,581,o),
(436,581,cs),
(144,581,o),
(32,458,o),
(32,331,cs),
(32,205,o),
(120,138,o),
(239,138,cs),
(402,138,o),
(452,205,o),
(452,292,cs),
(452,372,o),
(392,432,o),
(279,432,cs),
(198,432,o),
(120,385,o),
(86,354,c),
(142,310,l),
(177,329,o),
(203,340,o),
(234,340,cs),
(266,340,o),
(285,326,o),
(285,294,cs),
(285,268,o),
(271,248,o),
(236,248,cs),
(204,248,o),
(182,271,o),
(182,318,cs),
(182,333,o),
(183,349,o),
(184,358,cs),
(186,373,o),
(184,383,o),
(195,395,cs),
(230,436,o),
(296,457,o),
(422,457,cs)
);
},
{
closed = 1;
nodes = (
(786,232,o),
(743,291,o),
(623,315,cs),
(501,340,l),
(501,224,l),
(516,224,ls),
(546,224,o),
(565,222,o),
(579,214,cs),
(592,206,o),
(600,194,o),
(600,176,cs),
(600,160,o),
(594,148,o),
(584,141,cs),
(569,130,o),
(546,127,o),
(499,127,cs),
(306,127,ls),
(204,127,o),
(146,116,o),
(98,83,cs),
(60,57,o),
(37,16,o),
(37,-42,cs),
(37,-108,o),
(68,-151,o),
(115,-175,cs),
(164,-200,o),
(218,-206,o),
(308,-206,cs),
(773,-206,l),
(773,-77,l),
(321,-77,ls),
(270,-77,o),
(252,-73,o),
(239,-64,cs),
(230,-58,o),
(225,-49,o),
(225,-36,cs),
(225,-23,o),
(231,-14,o),
(244,-8,cs),
(257,-2,o),
(271,0,o),
(318,0,cs),
(517,0,ls),
(628,0,o),
(690,8,o),
(734,45,cs),
(765,71,o),
(786,110,o),
(786,163,cs)
);
}
);
};
layerId = "2AD682F6-F6C7-4738-913E-50B961B61BC3";
shapes = (
{
closed = 1;
nodes = (
(25,93,l),
(25,-156,l),
(801,-156,l),
(801,-64,l),
(116,-64,l),
(116,1,l),
(801,1,l),
(801,354,l),
(719,354,l),
(719,422,l),
(482,763,ls),
(449,810,o),
(405,810,o),
(372,763,cs),
(25,259,l),
(93,162,l),
(395,162,l),
(395,396,ls),
(395,429,o),
(378,448,o),
(349,448,cs),
(349,448,ls),
(320,448,o),
(303,429,o),
(303,396,cs),
(303,254,l),
(135,254,l),
(298,490,l),
(427,687,l),
(627,401,l),
(627,354,l),
(503,354,l),
(503,268,l),
(710,268,l),
(710,93,l)
);
}
);
width = 826;
}
);
unicode = 3379;
},
{
glyphname = lllamlym;
lastChange = "2025-02-12 18:48:38 +0000";
layers = (
{
anchors = (
{
name = b.uni0D00;
pos = (212,0);
}
);
background = {
shapes = (
{
closed = 1;
nodes = (
(105,302,o),
(194,227,o),
(194,158,cs),
(194,137,o),
(178,117,o),
(135,117,cs),
(93,117,o),
(61,121,o),
(19,140,c),
(-34,22,l),
(34,-3,o),
(94,-12,o),
(169,-12,cs),
(328,-12,o),
(372,62,o),
(372,142,cs),
(372,255,o),
(285,322,o),
(285,410,cs),
(285,437,o),
(301,462,o),
(334,462,cs),
(368,462,o),
(385,436,o),
(385,400,cs),
(385,317,o),
(335,270,o),
(234,270,cs),
(207,270,ls),
(107,270,o),
(44,321,o),
(44,412,cs),
(44,446,o),
(52,476,o),
(70,509,c),
(-79,581,l),
(-122,523,o),
(-144,462,o),
(-144,404,cs),
(-144,250,o),
(-18,157,o),
(188,157,cs),
(259,157,ls),
(468,157,o),
(569,251,o),
(569,387,cs),
(569,486,o),
(506,581,o),
(324,581,cs),
(177,581,o),
(105,510,o),
(105,413,cs)
);
}
);
};
guides = (
{
pos = (25,522);
},
{
angle = 270;
pos = (25,415);
}
);
layerId = "2AD682F6-F6C7-4738-913E-50B961B61BC3";
shapes = (
{
closed = 1;
nodes = (
(25,-10,l),
(296,-10,l),
(296,430,l),
(361,524,l),
(377,501,l),
(377,402,l),
(117,402,l),
(117,492,l),
(276,721,ls),
(294,748,o),
(291,773,o),
(268,792,cs),
(268,792,ls),
(249,806,o),
(220,805,o),
(200,777,cs),
(25,524,l),
(25,309,l),
(469,309,l),
(469,524,l),
(402,620,ls),
(377,657,o),
(343,657,o),
(318,620,cs),
(210,463,l),
(210,83,l),
(25,83,l)
);
}
);
width = 494;
}
);
unicode = 3380;
},
{
glyphname = vamlym;
lastChange = "2025-02-11 18:28:35 +0000";
layers = (
{
anchors = (
{
name = b.uni0D00;
pos = (565,0);
}
);
layerId = "2AD682F6-F6C7-4738-913E-50B961B61BC3";
shapes = (
{
closed = 1;
nodes = (
(117,1,l),
(117,223,l),
(408,647,l),
(407,1,l),
(734,1,l),
(734,364,ls),
(734,421,o),
(642,421,o),
(642,364,cs),
(642,93,l),
(499,93,l),
(499,712,l),
(499,751,ls),
(499,797,o),
(427,837,o),
(372,757,cs),
(25,255,l),
(25,1,l)
);
}
);
width = 759;
}
);
unicode = 3381;
},
{
glyphname = shamlym;
lastChange = "2025-02-12 07:38:38 +0000";
layers = (
{
anchors = (
{
name = b.uni0D00;
pos = (633,0);
}
);
guides = (
{
pos = (739,233);
}
);
layerId = "2AD682F6-F6C7-4738-913E-50B961B61BC3";
shapes = (
{
closed = 1;
nodes = (
(625,92,l),
(725,92,l),
(725,246,l),
(625,386,l)
);
},
{
closed = 1;
nodes = (
(460,630,l),
(460,1,l),
(296,1,l),
(25,1,l),
(25,270,l),
(164,470,ls),
(202,524,o),
(274,472,o),
(241,424,cs),
(117,244,l),
(117,92,l),
(369,92,l),
(369,704,ls),
(369,719,o),
(369,735,o),
(369,751,cs),
(370,803,o),
(439,816,o),
(469,772,cs),
(817,270,l),
(817,1,l),
(540,1,l),
(540,257,l),
(540,516,l)
);
}
);
width = 842;
}
);
unicode = 3382;
},
{
glyphname = ssamlym;
lastChange = "2025-02-13 05:45:06 +0000";
layers = (
{
anchors = (
{
name = b.uni0D00;
pos = (725,0);
}
);
background = {
shapes = (
{
closed = 1;
nodes = (
(183,372,o),
(77,296,o),
(77,170,cs),
(77,97,o),
(110,37,o),
(158,-13,c),
(302,45,l),
(278,83,o),
(262,119,o),
(262,160,cs),
(262,210,o),
(286,245,o),
(337,245,cs),
(389,245,o),
(410,205,o),
(410,163,cs),
(410,123,o),
(393,92,o),
(379,70,c),
(442,0,l),
(842,0,l),
(840,128,l),
(571,128,l),
(568,76,l),
(581,105,o),
(588,143,o),
(588,173,cs),
(588,268,o),
(514,372,o),
(335,372,cs)
);
},
{
closed = 1;
nodes = (
(1345,0,l),
(1345,569,l),
(1162,569,l),
(1114,477,o),
(1039,344,o),
(893,344,cs),
(818,344,ls),
(743,344,o),
(728,376,o),
(728,408,cs),
(728,438,o),
(744,454,o),
(767,454,cs),
(781,454,o),
(789,449,o),
(795,440,cs),
(802,430,o),
(804,413,o),
(804,387,cs),
(804,0,l)
);
},
{
closed = 1;
nodes = (
(630,581,o),
(557,499,o),
(557,410,cs),
(557,312,o),
(620,221,o),
(834,221,cs),
(920,221,ls),
(1003,221,o),
(1114,261,o),
(1173,364,c),
(1172,379,l),
(1168,363,o),
(1162,303,o),
(1162,252,cs),
(1162,128,l),
(987,128,l),
(987,369,ls),
(987,450,o),
(966,504,o),
(923,537,cs),
(887,566,o),
(837,581,o),
(769,581,cs)
);
}
);
};
layerId = "2AD682F6-F6C7-4738-913E-50B961B61BC3";
shapes = (
{
closed = 1;
nodes = (
(241,377,ls),
(219,409,o),
(178,421,o),
(148,377,cs),
(25,200,l),
(25,1,l),
(117,1,l),
(117,174,l),
(195,287,l),
(275,170,l),
(275,1,l),
(367,1,l),
(367,195,l)
);
},
{
closed = 1;
nodes = (
(880,93,l),
(344,93,l),
(344,1,l),
(880,1,l)
);
},
{
closed = 1;
nodes = (
(644,80,l),
(644,442,l),
(557,434,l),
(557,80,l)
);
},
{
closed = 1;
nodes = (
(518,774,ls),
(496,806,o),
(455,818,o),
(425,775,cs),
(302,597,l),
(302,425,l),
(394,425,l),
(394,571,l),
(472,684,l),
(557,559,l),
(557,420,l),
(644,428,l),
(644,592,l)
);
},
{
closed = 1;
nodes = (
(716,492,l),
(302,492,l),
(302,400,l),
(671,400,l),
(788,231,l),
(788,69,l),
(880,69,l),
(880,255,l)
);
}
);
width = 905;
}
);
unicode = 3383;
},
{
glyphname = samlym;
lastChange = "2025-02-12 12:03:02 +0000";
layers = (
{
anchors = (
{
name = b.uni0D00;
pos = (697,0);
}
);
background = {
shapes = (
{
closed = 1;
nodes = (
(628,581,o),
(567,557,o),
(511,501,c),
(527,506,l),
(467,558,o),
(411,581,o),
(322,581,cs),
(141,581,o),
(35,461,o),
(35,299,cs),
(35,174,o),
(85,90,o),
(174,-12,c),
(313,69,l),
(251,155,o),
(225,216,o),
(225,295,cs),
(225,411,o),
(285,452,o),
(343,452,cs),
(370,452,o),
(388,442,o),
(400,428,cs),
(418,408,o),
(425,380,o),
(425,328,cs),
(425,0,l),
(612,0,l),
(612,313,ls),
(612,375,o),
(616,408,o),
(637,429,cs),
(653,445,o),
(671,452,o),
(699,452,cs),
(727,452,o),
(744,443,o),
(757,431,cs),
(782,407,o),
(787,368,o),
(787,293,cs),
(787,278,ls),
(787,160,o),
(812,89,o),
(868,44,cs),
(914,7,o),
(975,-12,o),
(1070,-12,cs),
(1253,-12,o),
(1360,103,o),
(1360,269,cs),
(1360,395,o),
(1310,479,o),
(1221,581,c),
(1082,500,l),
(1144,414,o),
(1170,353,o),
(1170,273,cs),
(1170,154,o),
(1121,117,o),
(1066,117,cs),
(1040,117,o),
(1021,124,o),
(1008,137,cs),
(983,161,o),
(978,204,o),
(978,264,cs),
(978,303,ls),
(978,411,o),
(955,480,o),
(898,526,cs),
(852,563,o),
(792,581,o),
(721,581,cs)
);
}
);
};
guides = (
{
angle = 235.3464;
pos = (119,404);
},
{
angle = 124.7497;
pos = (602,581);
},
{
angle = 124.616;
pos = (613,57);
},
{
angle = -55.204;
pos = (683,115);
}
);
layerId = "2AD682F6-F6C7-4738-913E-50B961B61BC3";
shapes = (
{
closed = 1;
nodes = (
(928,1,l),
(928,270,l),
(829,413,ls),
(796,461,o),
(721,409,o),
(758,357,cs),
(836,244,l),
(836,93,l),
(698,93,l),
(652,159,l),
(652,509,l),
(469,772,ls),
(442,811,o),
(402,818,o),
(373,772,c),
(275,631,l),
(275,398,l),
(241,447,ls),
(218,481,o),
(178,491,o),
(148,447,cs),
(25,270,l),
(25,1,l),
(117,1,l),
(117,244,l),
(195,357,l),
(275,240,l),
(275,1,l),
(366,1,l),
(365,596,l),
(421,678,l),
(560,477,l),
(560,133,l),
(652,1,l),
(762,1,l)
);
}
);
width = 953;
}
);
unicode = 3384;
},
{
glyphname = hamlym;
lastChange = "2025-02-13 13:10:35 +0000";
layers = (
{
anchors = (
{
name = b.uni0D00;
pos = (684,0);
}
);
background = {
shapes = (
{
closed = 1;
nodes = (
(133,372,o),
(27,296,o),
(27,170,cs),
(27,97,o),
(60,37,o),
(108,-13,c),
(252,45,l),
(228,83,o),
(212,119,o),
(212,160,cs),
(212,210,o),
(236,245,o),
(287,245,cs),
(339,245,o),
(360,205,o),
(360,163,cs),
(360,123,o),
(343,92,o),
(329,70,c),
(392,0,l),
(792,0,l),
(790,128,l),
(521,128,l),
(518,76,l),
(531,105,o),
(538,143,o),
(538,173,cs),
(538,268,o),
(464,372,o),
(285,372,cs)
);
},
{
closed = 1;
nodes = (
(713,581,o),
(626,417,o),
(626,284,cs),
(626,196,o),
(657,134,o),
(725,65,c),
(759,0,l),
(837,0,l),
(896,84,l),
(847,146,o),
(816,203,o),
(816,281,cs),
(816,392,o),
(885,451,o),
(979,451,cs),
(1080,451,o),
(1141,386,o),
(1141,281,cs),
(1141,201,o),
(1107,139,o),
(1048,69,c),
(1186,-12,l),
(1279,72,o),
(1333,157,o),
(1333,284,cs),
(1333,426,o),
(1243,581,o),
(978,581,cs)
);
}
);
};
layerId = "2AD682F6-F6C7-4738-913E-50B961B61BC3";
shapes = (
{
closed = 1;
nodes = (
(241,377,ls),
(219,409,o),
(178,421,o),
(148,377,cs),
(25,200,l),
(25,1,l),
(117,1,l),
(117,174,l),
(195,287,l),
(275,170,l),
(275,1,l),
(367,1,l),
(367,195,l)
);
},
{
closed = 1;
nodes = (
(583,93,l),
(344,93,l),
(344,1,l),
(583,1,l)
);
},
{
closed = 1;
nodes = (
(756,648,ls),
(734,680,o),
(696,696,o),
(663,648,cs),
(491,400,l),
(491,84,l),
(583,84,l),
(583,374,l),
(710,558,l),
(836,374,l),
(836,1,l),
(928,1,l),
(928,399,l)
);
}
);
width = 953;
}
);
unicode = 3385;
},
{
glyphname = tttamlym;
layers = (
{
anchors = (
{
name = b.uni0D00;
pos = (398,0);
}
);
background = {
shapes = (
{
closed = 1;
nodes = (
(223,128,l),
(374,514,l),
(194,574,l),
(14,105,l),
(99,0,l),
(346,0,l),
(346,-202,l),
(533,-202,l),
(533,0,l),
(776,0,l),
(776,128,l)
);
}
);
};
layerId = "2AD682F6-F6C7-4738-913E-50B961B61BC3";
shapes = (
{
closed = 1;
nodes = (
(223,128,l),
(374,514,l),
(194,574,l),
(14,105,l),
(99,0,l),
(346,0,l),
(346,-202,l),
(533,-202,l),
(533,0,l),
(776,0,l),
(776,128,l)
);
}
);
width = 796;
}
);
unicode = 3386;
},
{
glyphname = uni0D3B;
layers = (
{
anchors = (
{
name = _b.uni0D00;
pos = (-279,0);
},
{
name = _b.uni0D3B;
pos = (-447,0);
}
);
background = {
shapes = (
{
closed = 1;
nodes = (
(-337,603,l),
(-219,603,l),
(-219,864,l),
(-337,864,l)
);
}
);
};
layerId = "2AD682F6-F6C7-4738-913E-50B961B61BC3";
shapes = (
{
closed = 1;
nodes = (
(-337,603,l),
(-219,603,l),
(-219,864,l),
(-337,864,l)
);
}
);
width = 0;
}
);
unicode = 3387;
},
{
glyphname = uni0D3C;
layers = (
{
background = {
shapes = (
{
closed = 1;
nodes = (
(-310,652,o),
(-251,593,o),
(-146,593,cs),
(-41,593,o),
(19,652,o),
(19,728,cs),
(19,807,o),
(-43,864,o),
(-146,864,cs),
(-249,864,o),
(-310,806,o),
(-310,728,cs)
);
},
{
closed = 1;
nodes = (
(-192,754,o),
(-176,771,o),
(-146,771,cs),
(-118,771,o),
(-99,755,o),
(-99,729,cs),
(-99,705,o),
(-115,685,o),
(-146,685,cs),
(-177,685,o),
(-192,704,o),
(-192,728,cs)
);
}
);
};
layerId = "2AD682F6-F6C7-4738-913E-50B961B61BC3";
shapes = (
{
closed = 1;
nodes = (
(-310,652,o),
(-251,593,o),
(-146,593,cs),
(-41,593,o),
(19,652,o),
(19,728,cs),
(19,807,o),
(-43,864,o),
(-146,864,cs),
(-249,864,o),
(-310,806,o),
(-310,728,cs)
);
},
{
closed = 1;
nodes = (
(-192,754,o),
(-176,771,o),
(-146,771,cs),
(-118,771,o),
(-99,755,o),
(-99,729,cs),
(-99,705,o),
(-115,685,o),
(-146,685,cs),
(-177,685,o),
(-192,704,o),
(-192,728,cs)
);
}
);
width = 0;
}
);
unicode = 3388;
},
{
glyphname = avagrahamlym;
layers = (
{
background = {
shapes = (
{
closed = 1;
nodes = (
(337,805,o),
(280,782,o),
(242,740,cs),
(193,685,o),
(180,612,o),
(180,487,cs),
(180,5,ls),
(180,-63,o),
(178,-88,o),
(162,-104,cs),
(154,-112,o),
(143,-116,o),
(131,-116,cs),
(102,-116,o),
(89,-99,o),
(76,-49,c),
(-84,-82,l),
(-54,-166,o),
(-8,-244,o),
(131,-244,cs),
(212,-244,o),
(269,-221,o),
(307,-179,cs),
(356,-124,o),
(369,-51,o),
(369,74,cs),
(369,556,ls),
(369,624,o),
(371,649,o),
(387,665,cs),
(395,673,o),
(406,677,o),
(418,677,cs),
(447,677,o),
(460,660,o),
(473,610,c),
(633,643,l),
(603,727,o),
(557,805,o),
(418,805,cs)
);
}
);
};
layerId = "2AD682F6-F6C7-4738-913E-50B961B61BC3";
shapes = (
{
closed = 1;
nodes = (
(337,805,o),
(280,782,o),
(242,740,cs),
(193,685,o),
(180,612,o),
(180,487,cs),
(180,5,ls),
(180,-63,o),
(178,-88,o),
(162,-104,cs),
(154,-112,o),
(143,-116,o),
(131,-116,cs),
(102,-116,o),
(89,-99,o),
(76,-49,c),
(-84,-82,l),
(-54,-166,o),
(-8,-244,o),
(131,-244,cs),
(212,-244,o),
(269,-221,o),
(307,-179,c),
(356,-124,o),
(369,-51,o),
(369,74,cs),
(369,556,ls),
(369,624,o),
(371,649,o),
(387,665,cs),
(395,673,o),
(406,677,o),
(418,677,cs),
(447,677,o),
(460,660,o),
(473,610,c),
(633,643,l),
(603,727,o),
(557,805,o),
(418,805,cs)
);
}
);
width = 549;
}
);
unicode = 3389;
},
{
glyphname = aavowelsignmlym;
lastChange = "2025-02-13 07:00:16 +0000";
layers = (
{
layerId = "2AD682F6-F6C7-4738-913E-50B961B61BC3";
shapes = (
{
closed = 1;
nodes = (
(259,441,l),
(259,198,l),
(259,1,l),
(124,1,l),
(23,1,l),
(23,93,l),
(73,93,l),
(167,93,l),
(167,230,l),
(167,409,l),
(23,618,l),
(23,618,l),
(-10,669,o),
(63,722,o),
(98,675,c)
);
}
);
width = 284;
}
);
unicode = 3390;
},
{
glyphname = ivowelsignmlym;
lastChange = "2025-02-11 18:28:25 +0000";
layers = (
{
layerId = "2AD682F6-F6C7-4738-913E-50B961B61BC3";
shapes = (
{
closed = 1;
nodes = (
(-203,767,l),
(-72,955,ls),
(-46,993,o),
(-4,996,o),
(25,954,cs),
(52,915,o),
(78,877,o),
(105,838,c),
(105,1,l),
(14,1,l),
(14,803,l),
(1,822,o),
(-12,840,o),
(-25,859,c),
(-146,686,l)
);
}
);
width = 130;
}
);
unicode = 3391;
},
{
glyphname = iivowelsignmlym;
lastChange = "2025-02-11 18:21:00 +0000";
layers = (
{
layerId = "2AD682F6-F6C7-4738-913E-50B961B61BC3";
shapes = (
{
closed = 1;
nodes = (
(-162,686,l),
(-210,755,l),
(-72,954,ls),
(-45,992,o),
(-4,995,o),
(25,953,cs),
(105,837,l),
(105,0,l),
(14,0,l),
(14,802,l),
(-25,858,l),
(-95,756,l),
(-25,756,l),
(-25,685,l)
);
}
);
width = 130;
}
);
unicode = 3392;
},
{
glyphname = uvowelsignmlym;
lastChange = "2025-02-11 18:29:53 +0000";
layers = (
{
guides = (
{
pos = (-1364,907);
},
{
pos = (-1168,2077);
}
);
layerId = "2AD682F6-F6C7-4738-913E-50B961B61BC3";
shapes = (
{
closed = 1;
nodes = (
(106,471,l),
(106,77,l),
(5,77,l),
(5,-215,l),
(281,-215,l),
(281,-60,l),
(197,61,l),
(197,494,l),
(24,745,ls),
(-9,793,o),
(-83,744,o),
(-47,693,cs)
);
},
{
closed = 1;
nodes = (
(205,-139,l),
(81,-139,l),
(81,1,l),
(151,1,l),
(205,-77,l)
);
}
);
width = 281;
}
);
unicode = 3393;
},
{
glyphname = uuvowelsignmlym;
lastChange = "2025-02-11 17:24:51 +0000";
layers = (
{
layerId = "2AD682F6-F6C7-4738-913E-50B961B61BC3";
shapes = (
{
closed = 1;
nodes = (
(106,470,l),
(106,76,l),
(5,76,l),
(5,-216,l),
(281,-216,l),
(281,-61,l),
(197,61,l),
(197,493,l),
(24,744,ls),
(-9,792,o),
(-85,745,o),
(-47,692,cs)
);
},
{
closed = 1;
nodes = (
(205,-140,l),
(81,-140,l),
(81,0,l),
(151,0,l),
(205,-79,l)
);
},
{
closed = 1;
nodes = (
(65,-120,l),
(59,-149,l),
(100,-149,l),
(170,-51,l),
(192,-22,l),
(179,-6,l),
(161,13,l)
);
}
);
width = 281;
}
);
unicode = 3394;
},
{
glyphname = rvocalicvowelsignmlym;
lastChange = "2025-02-11 18:09:49 +0000";
layers = (
{
guides = (
{
angle = 180;
pos = (58,759);
}
);
layerId = "2AD682F6-F6C7-4738-913E-50B961B61BC3";
shapes = (
{
closed = 1;
nodes = (
(104,-60,l),
(104,759,l),
(12,759,l),
(12,-33,l),
(12,-255,l),
(-106,-255,l),
(-174,-157,l),
(-106,-157,l),
(-106,-230,l),
(-30,-230,l),
(-30,-145,l),
(-30,-66,l),
(-351,-66,l),
(-157,-346,l),
(104,-346,l)
);
}
);
width = 129;
}
);
unicode = 3395;
},
{
glyphname = rrvocalicvowelsignmlym;
layers = (
{
background = {
shapes = (
{
closed = 1;
nodes = (
(240,-337,o),
(324,-242,o),
(324,-116,cs),
(324,-45,o),
(309,15,o),
(272,114,cs),
(240,199,o),
(224,257,o),
(224,322,cs),
(224,401,o),
(248,472,o),
(303,569,c),
(114,569,l),
(72,497,o),
(37,412,o),
(37,309,cs),
(37,228,o),
(60,152,o),
(99,58,cs),
(135,-28,o),
(141,-68,o),
(141,-110,cs),
(141,-187,o),
(92,-214,o),
(-23,-214,cs),
(-131,-214,o),
(-172,-196,o),
(-172,-159,cs),
(-172,-144,o),
(-166,-130,o),
(-145,-130,cs),
(-131,-130,o),
(-119,-138,o),
(-119,-164,cs),
(-119,-178,l),
(-25,-178,l),
(-25,-163,ls),
(-25,-147,o),
(-21,-130,o),
(-1,-130,cs),
(16,-130,o),
(22,-146,o),
(22,-164,cs),
(22,-178,l),
(121,-178,l),
(121,-151,ls),
(121,-102,o),
(111,-22,o),
(7,-22,cs),
(-33,-22,o),
(-61,-42,o),
(-84,-69,c),
(-65,-68,l),
(-90,-37,o),
(-121,-22,o),
(-168,-22,cs),
(-248,-22,o),
(-305,-77,o),
(-305,-159,cs),
(-305,-273,o),
(-208,-337,o),
(-24,-337,cs)
);
}
);
};
layerId = "2AD682F6-F6C7-4738-913E-50B961B61BC3";
shapes = (
{
closed = 1;
nodes = (
(240,-337,o),
(324,-242,o),
(324,-116,cs),
(324,-45,o),
(309,15,o),
(272,114,cs),
(240,199,o),
(224,257,o),
(224,322,cs),
(224,401,o),
(248,472,o),
(303,569,c),
(114,569,l),
(72,497,o),
(37,412,o),
(37,309,cs),
(37,228,o),
(60,152,o),
(99,58,cs),
(135,-28,o),
(141,-68,o),
(141,-110,cs),
(141,-187,o),
(92,-214,o),
(-23,-214,cs),
(-131,-214,o),
(-172,-196,o),
(-172,-159,cs),
(-172,-144,o),
(-166,-130,o),
(-145,-130,cs),
(-131,-130,o),
(-119,-138,o),
(-119,-164,cs),
(-119,-178,l),
(-25,-178,l),
(-25,-163,ls),
(-25,-147,o),
(-21,-130,o),
(-1,-130,cs),
(16,-130,o),
(22,-146,o),
(22,-164,cs),
(22,-178,l),
(121,-178,l),
(121,-151,ls),
(121,-102,o),
(111,-22,o),
(7,-22,cs),
(-33,-22,o),
(-61,-42,o),
(-84,-69,c),
(-65,-68,l),
(-90,-37,o),
(-121,-22,o),
(-168,-22,cs),
(-248,-22,o),
(-305,-77,o),
(-305,-159,cs),
(-305,-273,o),
(-208,-337,o),
(-24,-337,cs)
);
}
);
width = 326;
}
);
unicode = 3396;
},
{
glyphname = evowelsignmlym;
lastChange = "2025-02-13 13:27:57 +0000";
layers = (
{
background = {
shapes = (
{
closed = 1;
nodes = (
(432,-12,o),
(506,61,o),
(506,179,cs),
(506,285,o),
(444,359,o),
(316,359,cs),
(227,359,o),
(171,321,o),
(118,276,c),
(139,156,l),
(193,215,o),
(222,240,o),
(267,240,cs),
(303,240,o),
(325,216,o),
(325,173,cs),
(325,127,o),
(306,108,o),
(273,108,cs),
(235,108,o),
(202,135,o),
(202,244,cs),
(202,369,o),
(292,452,o),
(426,452,cs),
(553,452,o),
(611,386,o),
(611,281,cs),
(611,201,o),
(577,139,o),
(518,69,c),
(656,-12,l),
(744,65,o),
(803,154,o),
(803,284,cs),
(803,426,o),
(715,581,o),
(441,581,cs),
(177,581,o),
(33,438,o),
(33,245,cs),
(33,62,o),
(139,-12,o),
(278,-12,cs)
);
}
);
};
layerId = "2AD682F6-F6C7-4738-913E-50B961B61BC3";
shapes = (
{
closed = 1;
nodes = (
(114,405,l),
(262,191,l),
(261,92,l),
(117,92,l),
(117,248,l),
(117,254,l),
(117,339,l),
(275,567,l),
(532,204,l),
(532,1,l),
(624,1,l),
(624,226,l),
(324,661,ls),
(295,703,o),
(256,705,o),
(227,661,cs),
(25,370,l),
(25,1,l),
(345,1,l),
(348,214,l),
(161,482,l)
);
},
{
closed = 0;
nodes = (
(184,933,l),
(184,933,ls)
);
}
);
width = 649;
}
);
unicode = 3398;
},
{
glyphname = eevowelsignmlym;
layers = (
{
background = {
shapes = (
{
closed = 1;
nodes = (
(585,-12,o),
(649,59,o),
(649,135,cs),
(649,237,o),
(580,279,o),
(463,279,cs),
(325,279,o),
(283,223,o),
(283,144,cs),
(283,122,o),
(292,98,o),
(300,83,c),
(452,62,l),
(428,85,o),
(418,108,o),
(418,132,cs),
(418,161,o),
(433,174,o),
(458,174,cs),
(483,174,o),
(494,160,o),
(494,141,cs),
(494,123,o),
(476,96,o),
(432,96,cs),
(409,96,o),
(386,98,o),
(373,100,cs),
(260,114,o),
(218,183,o),
(218,287,cs),
(218,385,o),
(274,460,o),
(379,471,cs),
(397,473,o),
(420,473,o),
(439,473,cs),
(479,473,o),
(501,456,o),
(501,429,cs),
(501,408,o),
(488,396,o),
(463,396,cs),
(436,396,o),
(424,409,o),
(424,438,cs),
(424,467,o),
(442,492,o),
(464,511,c),
(312,495,l),
(300,479,o),
(289,448,o),
(289,424,cs),
(289,351,o),
(326,291,o),
(468,291,cs),
(589,291,o),
(656,332,o),
(656,431,cs),
(656,508,o),
(597,581,o),
(413,581,cs),
(192,581,o),
(32,489,o),
(32,288,cs),
(32,73,o),
(186,-12,o),
(409,-12,cs)
);
}
);
};
layerId = "2AD682F6-F6C7-4738-913E-50B961B61BC3";
shapes = (
{
closed = 1;
nodes = (
(585,-12,o),
(649,59,o),
(649,135,cs),
(649,237,o),
(580,279,o),
(463,279,cs),
(325,279,o),
(283,223,o),
(283,144,cs),
(283,122,o),
(292,98,o),
(300,83,c),
(452,62,l),
(428,85,o),
(418,108,o),
(418,132,cs),
(418,161,o),
(433,174,o),
(458,174,cs),
(483,174,o),
(494,160,o),
(494,141,cs),
(494,123,o),
(476,96,o),
(432,96,cs),
(409,96,o),
(386,98,o),
(373,100,cs),
(260,114,o),
(218,183,o),
(218,287,cs),
(218,385,o),
(274,460,o),
(379,471,cs),
(397,473,o),
(420,473,o),
(439,473,cs),
(479,473,o),
(501,456,o),
(501,429,cs),
(501,408,o),
(488,396,o),
(463,396,cs),
(436,396,o),
(424,409,o),
(424,438,cs),
(424,467,o),
(442,492,o),
(464,511,c),
(312,495,l),
(300,479,o),
(289,448,o),
(289,424,cs),
(289,351,o),
(326,291,o),
(468,291,cs),
(589,291,o),
(656,332,o),
(656,431,cs),
(656,508,o),
(597,581,o),
(413,581,cs),
(192,581,o),
(32,489,o),
(32,288,cs),
(32,73,o),
(186,-12,o),
(409,-12,cs)
);
}
);
width = 689;
}
);
unicode = 3399;
},
{
glyphname = viramamlym;
lastChange = "2025-02-11 18:09:57 +0000";
layers = (
{
anchors = (
{
name = _virama;
pos = (-349,752);
}
);
guides = (
{
pos = (440,968);
}
);
layerId = "2AD682F6-F6C7-4738-913E-50B961B61BC3";
shapes = (
{
closed = 1;
nodes = (
(-130,718,l),
(-233,869,ls),
(-266,917,o),
(-193,967,o),
(-157,915,cs),
(-130,876,o),
(-135,880,o),
(-122,861,cs),
(-117,853,o),
(-109,843,o),
(-99,828,cs),
(-94,821,o),
(-91,816,o),
(-86,808,c),
(-28,808,l),
(-28,827,o),
(-28,847,o),
(-27,911,cs),
(-27,974,o),
(59,971,o),
(59,916,cs),
(59,719,l)
);
}
);
width = 84;
}
);
unicode = 3405;
},
{
glyphname = rephmlym;
layers = (
{
anchors = (
{
name = _b.uni0D00;
pos = (-279,0);
},
{
name = b.uni0D3B;
pos = (-180,0);
}
);
background = {
shapes = (
{
closed = 1;
nodes = (
(-377,843,l),
(-368,637,l),
(-190,637,l),
(-180,843,l)
);
}
);
};
layerId = "2AD682F6-F6C7-4738-913E-50B961B61BC3";
shapes = (
{
closed = 1;
nodes = (
(-377,843,l),
(-368,637,l),
(-190,637,l),
(-180,843,l)
);
}
);
width = 0;
}
);
unicode = 3406;
},
{
glyphname = uni0D4F;
layers = (
{
background = {
shapes = (
{
closed = 1;
nodes = (
(453,581,o),
(284,460,o),
(284,244,cs),
(284,63,o),
(390,-12,o),
(529,-12,cs),
(683,-12,o),
(757,61,o),
(757,180,cs),
(757,285,o),
(695,359,o),
(567,359,cs),
(481,359,o),
(422,321,o),
(369,276,c),
(390,156,l),
(444,215,o),
(473,240,o),
(518,240,cs),
(554,240,o),
(576,216,o),
(576,173,cs),
(576,127,o),
(557,108,o),
(524,108,cs),
(486,108,o),
(453,135,o),
(453,240,cs),
(453,244,ls),
(453,380,o),
(552,453,o),
(669,453,cs),
(720,453,o),
(756,443,o),
(780,424,cs),
(813,397,o),
(825,359,o),
(825,273,cs),
(825,0,l),
(1012,0,l),
(1012,327,ls),
(1012,380,o),
(1019,408,o),
(1037,428,cs),
(1049,442,o),
(1068,452,o),
(1096,452,cs),
(1155,452,o),
(1208,383,o),
(1208,244,cs),
(1208,33,o),
(1123,-116,o),
(711,-116,cs),
(295,-116,o),
(212,27,o),
(212,234,cs),
(212,319,o),
(230,412,o),
(275,500,c),
(126,564,l),
(71,460,o),
(39,336,o),
(39,234,cs),
(39,-28,o),
(191,-252,o),
(712,-252,cs),
(1194,-252,o),
(1398,-77,o),
(1398,241,cs),
(1398,431,o),
(1314,581,o),
(1117,581,cs),
(1026,581,o),
(966,559,o),
(905,505,c),
(955,480,l),
(880,553,o),
(798,581,o),
(673,581,cs)
);
}
);
};
layerId = "2AD682F6-F6C7-4738-913E-50B961B61BC3";
shapes = (
{
closed = 1;
nodes = (
(453,581,o),
(284,460,o),
(284,244,cs),
(284,63,o),
(390,-12,o),
(529,-12,cs),
(683,-12,o),
(757,61,o),
(757,180,cs),
(757,285,o),
(695,359,o),
(567,359,cs),
(481,359,o),
(422,321,o),
(369,276,c),
(390,156,l),
(444,215,o),
(473,240,o),
(518,240,cs),
(554,240,o),
(576,216,o),
(576,173,cs),
(576,127,o),
(557,108,o),
(524,108,cs),
(486,108,o),
(453,135,o),
(453,240,cs),
(453,244,ls),
(453,380,o),
(552,453,o),
(669,453,cs),
(720,453,o),
(756,443,o),
(780,424,cs),
(813,397,o),
(825,359,o),
(825,273,cs),
(825,0,l),
(1012,0,l),
(1012,327,ls),
(1012,380,o),
(1019,408,o),
(1037,428,cs),
(1049,442,o),
(1068,452,o),
(1096,452,cs),
(1155,452,o),
(1208,383,o),
(1208,244,cs),
(1208,33,o),
(1123,-116,o),
(711,-116,cs),
(295,-116,o),
(212,27,o),
(212,234,cs),
(212,319,o),
(230,412,o),
(275,500,c),
(126,564,l),
(71,460,o),
(39,336,o),
(39,234,cs),
(39,-28,o),
(191,-252,o),
(712,-252,cs),
(1194,-252,o),
(1398,-77,o),
(1398,241,cs),
(1398,431,o),
(1314,581,o),
(1117,581,cs),
(1026,581,o),
(966,559,o),
(905,505,c),
(955,480,l),
(880,553,o),
(798,581,o),
(673,581,cs)
);
}
);
width = 1433;
}
);
unicode = 3407;
},
{
glyphname = machillumlym;
layers = (
{
anchors = (
{
name = b.uni0D00;
pos = (528,0);
},
{
name = virama;
pos = (501,709);
}
);
background = {
shapes = (
{
closed = 1;
nodes = (
(191,803,o),
(139,795,o),
(101,783,c),
(131,667,l),
(149,672,o),
(173,676,o),
(193,676,cs),
(210,676,o),
(220,673,o),
(229,666,cs),
(238,659,o),
(245,643,o),
(245,609,cs),
(245,521,ls),
(245,395,o),
(293,285,o),
(404,208,c),
(449,183,l),
(489,142,o),
(531,110,o),
(605,59,c),
(631,114,l),
(603,118,o),
(548,120,o),
(491,120,cs),
(471,120,ls),
(450,120,o),
(405,119,o),
(373,113,c),
(358,85,l),
(420,117,o),
(493,166,o),
(532,198,c),
(568,210,l),
(623,254,o),
(661,308,o),
(661,384,cs),
(661,515,o),
(541,580,o),
(398,580,cs),
(303,580,o),
(218,555,o),
(159,510,cs),
(90,457,o),
(51,384,o),
(51,242,cs),
(51,0,l),
(695,0,l),
(749,111,l),
(666,170,o),
(601,224,o),
(551,270,c),
(509,296,l),
(437,356,o),
(421,423,o),
(421,478,cs),
(421,619,ls),
(421,693,o),
(404,747,o),
(356,777,cs),
(330,793,o),
(297,803,o),
(245,803,cs)
);
},
{
closed = 1;
nodes = (
(237,246,ls),
(237,337,o),
(247,380,o),
(267,410,cs),
(288,441,o),
(332,462,o),
(381,462,cs),
(439,462,o),
(482,436,o),
(482,380,cs),
(482,352,o),
(469,324,o),
(449,296,c),
(404,273,l),
(350,220,o),
(261,139,o),
(175,90,c),
(237,68,l)
);
}
);
};
layerId = "2AD682F6-F6C7-4738-913E-50B961B61BC3";
shapes = (
{
closed = 1;
nodes = (
(191,803,o),
(139,795,o),
(101,783,c),
(131,667,l),
(149,672,o),
(173,676,o),
(193,676,cs),
(210,676,o),
(220,673,o),
(229,666,cs),
(238,659,o),
(245,643,o),
(245,609,cs),
(245,521,ls),
(245,395,o),
(293,285,o),
(404,208,c),
(449,183,l),
(489,142,o),
(531,110,o),
(605,59,c),
(631,114,l),
(603,118,o),
(548,120,o),
(491,120,cs),
(471,120,ls),
(450,120,o),
(405,119,o),
(373,113,c),
(358,85,l),
(420,117,o),
(493,166,o),
(532,198,c),
(568,210,l),
(623,254,o),
(661,308,o),
(661,384,cs),
(661,515,o),
(541,580,o),
(398,580,cs),
(303,580,o),
(218,555,o),
(159,510,cs),
(90,457,o),
(51,384,o),
(51,242,cs),
(51,0,l),
(695,0,l),
(749,111,l),
(666,170,o),
(601,224,o),
(551,270,c),
(509,296,l),
(437,356,o),
(421,423,o),
(421,478,cs),
(421,619,ls),
(421,693,o),
(404,747,o),
(356,777,cs),
(330,793,o),
(297,803,o),
(245,803,cs)
);
},
{
closed = 1;
nodes = (
(237,246,ls),
(237,337,o),
(247,380,o),
(267,410,cs),
(288,441,o),
(332,462,o),
(381,462,cs),
(439,462,o),
(482,436,o),
(482,380,cs),
(482,352,o),
(469,324,o),
(449,296,c),
(404,273,l),
(350,220,o),
(261,139,o),
(175,90,c),
(237,68,l)
);
}
);
width = 757;
}
);
unicode = 3412;
},
{
glyphname = yachillumlym;
layers = (
{
anchors = (
{
name = b.uni0D00;
pos = (593,0);
},
{
name = virama;
pos = (1080,709);
}
);
background = {
shapes = (
{
closed = 1;
nodes = (
(1088,-12,o),
(1155,155,o),
(1155,258,cs),
(1155,355,o),
(1117,433,o),
(1039,532,cs),
(983,603,o),
(973,619,o),
(973,646,cs),
(973,667,o),
(988,678,o),
(1011,678,cs),
(1036,678,o),
(1063,671,o),
(1080,665,c),
(1110,785,l),
(1075,795,o),
(1029,803,o),
(966,803,cs),
(853,803,o),
(787,745,o),
(787,662,cs),
(787,599,o),
(807,556,o),
(881,456,cs),
(948,366,o),
(965,320,o),
(965,263,cs),
(965,172,o),
(899,111,o),
(783,111,cs),
(732,111,o),
(711,116,o),
(688,121,cs),
(671,125,o),
(655,124,o),
(641,131,cs),
(569,168,o),
(524,248,o),
(524,336,cs),
(524,422,o),
(558,453,o),
(601,453,cs),
(641,453,o),
(677,420,o),
(677,338,cs),
(677,244,o),
(630,167,o),
(563,133,cs),
(552,128,o),
(536,127,o),
(524,123,cs),
(498,115,o),
(469,111,o),
(439,111,cs),
(297,111,o),
(218,209,o),
(218,335,cs),
(218,410,o),
(254,453,o),
(305,453,cs),
(339,453,o),
(364,439,o),
(392,396,c),
(532,459,l),
(481,548,o),
(401,581,o),
(305,581,cs),
(124,581,o),
(31,473,o),
(31,334,cs),
(31,128,o),
(163,-12,o),
(433,-12,cs),
(509,-12,o),
(587,4,o),
(656,35,cs),
(669,41,o),
(681,51,o),
(693,58,cs),
(779,106,o),
(864,204,o),
(864,334,cs),
(864,494,o),
(765,581,o),
(600,581,cs),
(511,581,o),
(439,554,o),
(398,499,c),
(380,477,l),
(354,439,o),
(337,392,o),
(337,338,cs),
(337,202,o),
(411,109,o),
(518,52,cs),
(532,45,o),
(546,34,o),
(560,28,cs),
(623,1,o),
(692,-12,o),
(781,-12,cs)
);
}
);
};
layerId = "2AD682F6-F6C7-4738-913E-50B961B61BC3";
shapes = (
{
closed = 1;
nodes = (
(1088,-12,o),
(1155,155,o),
(1155,258,cs),
(1155,355,o),
(1117,433,o),
(1039,532,cs),
(983,603,o),
(973,619,o),
(973,646,cs),
(973,667,o),
(988,678,o),
(1011,678,cs),
(1036,678,o),
(1063,671,o),
(1080,665,c),
(1110,785,l),
(1075,795,o),
(1029,803,o),
(966,803,cs),
(853,803,o),
(787,745,o),
(787,662,cs),
(787,599,o),
(807,556,o),
(881,456,cs),
(948,366,o),
(965,320,o),
(965,263,cs),
(965,172,o),
(899,111,o),
(783,111,cs),
(732,111,o),
(711,116,o),
(688,121,cs),
(671,125,o),
(655,124,o),
(641,131,cs),
(569,168,o),
(524,248,o),
(524,336,cs),
(524,422,o),
(558,453,o),
(601,453,cs),
(641,453,o),
(677,420,o),
(677,338,cs),
(677,244,o),
(630,167,o),
(563,133,cs),
(552,128,o),
(536,127,o),
(524,123,cs),
(498,115,o),
(469,111,o),
(439,111,cs),
(297,111,o),
(218,209,o),
(218,335,cs),
(218,410,o),
(254,453,o),
(305,453,cs),
(339,453,o),
(364,439,o),
(392,396,c),
(532,459,l),
(481,548,o),
(401,581,o),
(305,581,cs),
(124,581,o),
(31,473,o),
(31,334,cs),
(31,128,o),
(163,-12,o),
(433,-12,cs),
(509,-12,o),
(587,4,o),
(656,35,cs),
(669,41,o),
(681,51,o),
(693,58,cs),
(779,106,o),
(864,204,o),
(864,334,cs),
(864,494,o),
(765,581,o),
(600,581,cs),
(511,581,o),
(439,554,o),
(398,499,c),
(380,477,l),
(354,439,o),
(337,392,o),
(337,338,cs),
(337,202,o),
(411,109,o),
(518,52,cs),
(532,45,o),
(546,34,o),
(560,28,cs),
(623,1,o),
(692,-12,o),
(781,-12,cs)
);
}
);
width = 1187;
}
);
unicode = 3413;
},
{
glyphname = lllachillumlym;
layers = (
{
anchors = (
{
name = b.uni0D00;
pos = (654,0);
},
{
name = virama;
pos = (571,709);
}
);
background = {
shapes = (
{
closed = 1;
nodes = (
(331,238,o),
(349,300,o),
(417,410,cs),
(494,535,o),
(519,581,o),
(519,654,cs),
(519,729,o),
(480,803,o),
(332,803,cs),
(277,803,o),
(224,794,o),
(186,782,c),
(216,668,l),
(230,671,o),
(254,676,o),
(285,676,cs),
(319,676,o),
(335,659,o),
(335,628,cs),
(335,593,o),
(313,548,o),
(274,476,cs),
(206,350,o),
(171,268,o),
(171,185,cs),
(171,50,o),
(268,-12,o),
(413,-12,cs),
(613,-12,o),
(657,62,o),
(657,142,cs),
(657,256,o),
(570,322,o),
(570,410,cs),
(570,437,o),
(586,462,o),
(619,462,cs),
(653,462,o),
(670,436,o),
(670,400,cs),
(670,324,o),
(621,270,o),
(474,270,cs),
(440,270,ls),
(388,270,o),
(339,276,o),
(299,293,c),
(242,320,l),
(221,347,o),
(211,362,o),
(211,412,cs),
(211,451,o),
(220,477,o),
(240,511,c),
(95,581,l),
(52,523,o),
(30,462,o),
(30,404,cs),
(30,280,o),
(106,216,o),
(209,184,c),
(261,176,l),
(315,164,o),
(370,157,o),
(429,157,cs),
(503,157,ls),
(747,157,o),
(854,251,o),
(854,387,cs),
(854,486,o),
(791,581,o),
(609,581,cs),
(503,581,o),
(404,511,o),
(404,401,cs),
(404,295,o),
(479,227,o),
(479,160,cs),
(479,131,o),
(459,115,o),
(413,115,cs),
(362,115,o),
(331,136,o),
(331,190,cs)
);
}
);
};
layerId = "2AD682F6-F6C7-4738-913E-50B961B61BC3";
shapes = (
{
closed = 1;
nodes = (
(331,238,o),
(349,300,o),
(417,410,cs),
(494,535,o),
(519,581,o),
(519,654,cs),
(519,729,o),
(480,803,o),
(332,803,cs),
(277,803,o),
(224,794,o),
(186,782,c),
(216,668,l),
(230,671,o),
(254,676,o),
(285,676,cs),
(319,676,o),
(335,659,o),
(335,628,cs),
(335,593,o),
(313,548,o),
(274,476,cs),
(206,350,o),
(171,268,o),
(171,185,cs),
(171,50,o),
(268,-12,o),
(413,-12,cs),
(613,-12,o),
(657,62,o),
(657,142,cs),
(657,256,o),
(570,322,o),
(570,410,cs),
(570,437,o),
(586,462,o),
(619,462,cs),
(653,462,o),
(670,436,o),
(670,400,cs),
(670,324,o),
(621,270,o),
(474,270,cs),
(440,270,ls),
(388,270,o),
(339,276,o),
(299,293,c),
(242,320,l),
(221,347,o),
(211,362,o),
(211,412,cs),
(211,451,o),
(220,477,o),
(240,511,c),
(95,581,l),
(52,523,o),
(30,462,o),
(30,404,cs),
(30,280,o),
(106,216,o),
(209,184,c),
(261,176,l),
(315,164,o),
(370,157,o),
(429,157,cs),
(503,157,ls),
(747,157,o),
(854,251,o),
(854,387,cs),
(854,486,o),
(791,581,o),
(609,581,cs),
(503,581,o),
(404,511,o),
(404,401,cs),
(404,295,o),
(479,227,o),
(479,160,cs),
(479,131,o),
(459,115,o),
(413,115,cs),
(362,115,o),
(331,136,o),
(331,190,cs)
);
}
);
width = 884;
}
);
unicode = 3414;
},
{
glyphname = aulengthmarkmlym;
lastChange = "2025-02-13 09:12:55 +0000";
layers = (
{
background = {
shapes = (
{
closed = 1;
nodes = (
(502,581,o),
(445,565,o),
(398,514,c),
(420,514,l),
(380,552,o),
(329,581,o),
(245,581,cs),
(83,581,o),
(9,487,o),
(9,380,cs),
(9,343,o),
(16,295,o),
(30,254,c),
(210,293,l),
(202,317,o),
(196,344,o),
(196,376,cs),
(196,425,o),
(222,453,o),
(260,453,cs),
(274,453,o),
(286,450,o),
(297,439,cs),
(313,423,o),
(317,388,o),
(317,345,cs),
(317,268,l),
(502,268,l),
(502,353,ls),
(502,399,o),
(505,423,o),
(519,439,cs),
(527,448,o),
(539,453,o),
(555,453,cs),
(597,453,o),
(631,406,o),
(631,308,cs),
(631,179,o),
(588,118,o),
(472,118,cs),
(402,118,o),
(354,129,o),
(282,165,c),
(216,47,l),
(293,8,o),
(373,-12,o),
(493,-12,cs),
(713,-12,o),
(821,106,o),
(821,307,cs),
(821,482,o),
(725,581,o),
(569,581,cs)
);
}
);
};
layerId = "2AD682F6-F6C7-4738-913E-50B961B61BC3";
shapes = (
{
closed = 1;
nodes = (
(117,402,l),
(277,630,l),
(277,362,l),
(356,362,l),
(446,490,l),
(586,287,l),
(586,93,l),
(324,93,l),
(324,1,l),
(678,1,l),
(678,319,l),
(506,568,ls),
(472,617,o),
(428,617,o),
(394,568,cs),
(368,531,l),
(368,704,ls),
(368,719,o),
(368,735,o),
(368,751,cs),
(367,803,o),
(299,816,o),
(268,771,cs),
(25,421,l),
(25,287,l),
(117,287,l)
);
}
);
width = 703;
}
);
unicode = 3415;
},
{
glyphname = uni0D58;
layers = (
{
background = {
shapes = (
{
closed = 1;
nodes = (
(765,-12,o),
(820,8,o),
(878,70,c),
(962,272,l),
(962,569,l),
(775,569,l),
(775,256,ls),
(775,192,o),
(767,161,o),
(749,140,cs),
(735,125,o),
(715,117,o),
(688,117,cs),
(662,117,o),
(642,126,o),
(628,142,cs),
(609,163,o),
(602,195,o),
(602,264,cs),
(602,569,l),
(415,569,l),
(415,253,ls),
(415,201,o),
(411,164,o),
(392,141,cs),
(382,128,o),
(362,117,o),
(336,117,cs),
(285,117,o),
(225,160,o),
(225,270,cs),
(225,351,o),
(250,411,o),
(314,500,c),
(173,581,l),
(79,479,o),
(35,395,o),
(35,272,cs),
(35,113,o),
(135,-12,o),
(321,-12,cs),
(407,-12,o),
(460,9,o),
(520,59,c),
(496,67,l),
(543,16,o),
(599,-12,o),
(689,-12,cs)
);
},
{
closed = 1;
nodes = (
(1254,-12,o),
(1357,118,o),
(1357,330,cs),
(1357,617,o),
(1185,849,o),
(741,849,cs),
(624,849,o),
(524,839,o),
(437,819,c),
(459,685,l),
(527,702,o),
(635,715,o),
(731,715,cs),
(1061,715,o),
(1167,548,o),
(1167,324,cs),
(1167,203,o),
(1120,117,o),
(1044,117,cs),
(1016,117,o),
(997,127,o),
(985,141,cs),
(966,163,o),
(962,189,o),
(962,242,cs),
(962,559,l),
(785,559,l),
(785,260,l),
(860,63,l),
(920,11,o),
(974,-12,o),
(1059,-12,cs)
);
}
);
};
layerId = "2AD682F6-F6C7-4738-913E-50B961B61BC3";
shapes = (
{
closed = 1;
nodes = (
(765,-12,o),
(820,8,o),
(878,70,c),
(962,272,l),
(962,569,l),
(775,569,l),
(775,256,ls),
(775,192,o),
(767,161,o),
(749,140,cs),
(735,125,o),
(715,117,o),
(688,117,cs),
(662,117,o),
(642,126,o),
(628,142,cs),
(609,163,o),
(602,195,o),
(602,264,cs),
(602,569,l),
(415,569,l),
(415,253,ls),
(415,201,o),
(411,164,o),
(392,141,cs),
(382,128,o),
(362,117,o),
(336,117,cs),
(285,117,o),
(225,160,o),
(225,270,cs),
(225,351,o),
(250,411,o),
(314,500,c),
(173,581,l),
(79,479,o),
(35,395,o),
(35,272,cs),
(35,113,o),
(135,-12,o),
(321,-12,cs),
(407,-12,o),
(460,9,o),
(520,59,c),
(496,67,l),
(543,16,o),
(599,-12,o),
(689,-12,cs)
);
},
{
closed = 1;
nodes = (
(1254,-12,o),
(1357,118,o),
(1357,330,cs),
(1357,617,o),
(1185,849,o),
(741,849,cs),
(624,849,o),
(524,839,o),
(437,819,c),
(459,685,l),
(527,702,o),
(635,715,o),
(731,715,cs),
(1061,715,o),
(1167,548,o),
(1167,324,cs),
(1167,203,o),
(1120,117,o),
(1044,117,cs),
(1016,117,o),
(997,127,o),
(985,141,cs),
(966,163,o),
(962,189,o),
(962,242,cs),
(962,559,l),
(785,559,l),
(785,260,l),
(860,63,l),
(920,11,o),
(974,-12,o),
(1059,-12,cs)
);
}
);
width = 1395;
}
);
unicode = 3416;
},
{
glyphname = uni0D59;
layers = (
{
background = {
shapes = (
{
closed = 1;
nodes = (
(134,581,o),
(35,426,o),
(35,284,cs),
(35,154,o),
(94,65,o),
(181,-12,c),
(320,69,l),
(260,139,o),
(227,201,o),
(227,281,cs),
(227,388,o),
(297,451,o),
(431,451,cs),
(552,451,o),
(613,399,o),
(640,334,c),
(642,302,l),
(644,282,o),
(647,259,o),
(647,232,cs),
(647,140,o),
(617,112,o),
(575,112,cs),
(539,112,o),
(523,136,o),
(523,167,cs),
(523,191,o),
(532,206,o),
(548,216,cs),
(568,229,o),
(594,232,o),
(646,232,cs),
(765,232,l),
(765,360,l),
(659,360,ls),
(541,360,o),
(483,352,o),
(429,322,cs),
(378,294,o),
(341,243,o),
(341,168,cs),
(341,75,o),
(395,-12,o),
(570,-12,cs),
(737,-12,o),
(829,70,o),
(829,237,cs),
(829,418,o),
(700,581,o),
(417,581,cs)
);
},
{
closed = 1;
nodes = (
(965,569,o),
(878,515,o),
(878,407,cs),
(878,372,o),
(894,329,o),
(914,302,c),
(1079,309,l),
(1058,330,o),
(1038,355,o),
(1038,392,cs),
(1038,420,o),
(1053,444,o),
(1091,444,cs),
(1119,444,o),
(1136,428,o),
(1136,403,cs),
(1136,389,o),
(1131,378,o),
(1120,371,cs),
(1108,363,o),
(1094,360,o),
(1045,360,cs),
(737,360,l),
(737,232,l),
(1035,232,ls),
(1126,232,o),
(1183,237,o),
(1236,269,cs),
(1277,294,o),
(1303,339,o),
(1303,406,cs),
(1303,490,o),
(1245,569,o),
(1089,569,cs)
);
}
);
};
layerId = "2AD682F6-F6C7-4738-913E-50B961B61BC3";
shapes = (
{
closed = 1;
nodes = (
(134,581,o),
(35,426,o),
(35,284,cs),
(35,154,o),
(94,65,o),
(181,-12,c),
(320,69,l),
(260,139,o),
(227,201,o),
(227,281,cs),
(227,388,o),
(297,451,o),
(431,451,cs),
(552,451,o),
(613,399,o),
(640,334,c),
(642,302,l),
(644,282,o),
(647,259,o),
(647,232,cs),
(647,140,o),
(617,112,o),
(575,112,cs),
(539,112,o),
(523,136,o),
(523,167,cs),
(523,191,o),
(532,206,o),
(548,216,cs),
(568,229,o),
(594,232,o),
(646,232,cs),
(765,232,l),
(765,360,l),
(659,360,ls),
(541,360,o),
(483,352,o),
(429,322,cs),
(378,294,o),
(341,243,o),
(341,168,cs),
(341,75,o),
(395,-12,o),
(570,-12,cs),
(737,-12,o),
(829,70,o),
(829,237,cs),
(829,418,o),
(700,581,o),
(417,581,cs)
);
},
{
closed = 1;
nodes = (
(965,569,o),
(878,515,o),
(878,407,cs),
(878,372,o),
(894,329,o),
(914,302,c),
(1079,309,l),
(1058,330,o),
(1038,355,o),
(1038,392,cs),
(1038,420,o),
(1053,444,o),
(1091,444,cs),
(1119,444,o),
(1136,428,o),
(1136,403,cs),
(1136,389,o),
(1131,378,o),
(1120,371,cs),
(1108,363,o),
(1094,360,o),
(1045,360,cs),
(737,360,l),
(737,232,l),
(1035,232,ls),
(1126,232,o),
(1183,237,o),
(1236,269,cs),
(1277,294,o),
(1303,339,o),
(1303,406,cs),
(1303,490,o),
(1245,569,o),
(1089,569,cs)
);
}
);
width = 1321;
}
);
unicode = 3417;
},
{
glyphname = uni0D5A;
layers = (
{
background = {
shapes = (
{
closed = 1;
nodes = (
(676,581,o),
(585,553,o),
(518,493,c),
(553,509,l),
(485,557,o),
(417,581,o),
(329,581,cs),
(137,581,o),
(35,456,o),
(35,297,cs),
(35,174,o),
(79,90,o),
(173,-12,c),
(314,69,l),
(250,158,o),
(225,219,o),
(225,298,cs),
(225,409,o),
(287,452,o),
(344,452,cs),
(375,452,o),
(393,440,o),
(405,427,cs),
(424,406,o),
(428,370,o),
(428,320,cs),
(428,230,l),
(615,230,l),
(615,276,ls),
(615,340,o),
(625,385,o),
(641,409,cs),
(657,434,o),
(677,448,o),
(707,448,cs),
(740,448,o),
(752,421,o),
(752,387,cs),
(752,289,o),
(690,204,o),
(609,122,c),
(609,0,l),
(1177,0,l),
(1177,245,ls),
(1177,390,o),
(1141,454,o),
(1073,507,cs),
(1007,558,o),
(911,581,o),
(788,581,cs)
);
},
{
closed = 1;
nodes = (
(937,412,o),
(921,443,o),
(893,470,c),
(891,459,l),
(963,427,o),
(991,371,o),
(991,240,cs),
(991,127,l),
(887,127,ls),
(853,127,o),
(823,127,o),
(794,122,c),
(812,120,l),
(886,194,o),
(937,271,o),
(937,363,cs)
);
}
);
};
layerId = "2AD682F6-F6C7-4738-913E-50B961B61BC3";
shapes = (
{
closed = 1;
nodes = (
(676,581,o),
(585,553,o),
(518,493,c),
(553,509,l),
(485,557,o),
(417,581,o),
(329,581,cs),
(137,581,o),
(35,456,o),
(35,297,cs),
(35,174,o),
(79,90,o),
(173,-12,c),
(314,69,l),
(250,158,o),
(225,219,o),
(225,298,cs),
(225,409,o),
(287,452,o),
(344,452,cs),
(375,452,o),
(393,440,o),
(405,427,cs),
(424,406,o),
(428,370,o),
(428,320,cs),
(428,230,l),
(615,230,l),
(615,276,ls),
(615,340,o),
(625,385,o),
(641,409,cs),
(657,434,o),
(677,448,o),
(707,448,cs),
(740,448,o),
(752,421,o),
(752,387,cs),
(752,289,o),
(690,204,o),
(609,122,c),
(609,0,l),
(1177,0,l),
(1177,245,ls),
(1177,390,o),
(1141,454,o),
(1073,507,cs),
(1007,558,o),
(911,581,o),
(788,581,cs)
);
},
{
closed = 1;
nodes = (
(937,412,o),
(921,443,o),
(893,470,c),
(891,459,l),
(963,427,o),
(991,371,o),
(991,240,cs),
(991,127,l),
(887,127,ls),
(853,127,o),
(823,127,o),
(794,122,c),
(812,120,l),
(886,194,o),
(937,271,o),
(937,363,cs)
);
}
);
width = 1228;
}
);
unicode = 3418;
},
{
glyphname = uni0D5B;
layers = (
{
background = {
shapes = (
{
closed = 1;
nodes = (
(973,-12,o),
(1062,152,o),
(1062,285,cs),
(1062,415,o),
(1003,504,o),
(916,581,c),
(777,500,l),
(837,430,o),
(870,369,o),
(870,288,cs),
(870,179,o),
(801,117,o),
(707,117,cs),
(606,117,o),
(545,183,o),
(545,288,cs),
(545,368,o),
(579,430,o),
(626,485,c),
(566,569,l),
(55,569,l),
(55,0,l),
(242,0,l),
(242,441,l),
(439,441,l),
(486,534,l),
(404,452,o),
(355,400,o),
(355,285,cs),
(355,143,o),
(448,-12,o),
(708,-12,cs)
);
}
);
};
layerId = "2AD682F6-F6C7-4738-913E-50B961B61BC3";
shapes = (
{
closed = 1;
nodes = (
(973,-12,o),
(1062,152,o),
(1062,285,cs),
(1062,415,o),
(1003,504,o),
(916,581,c),
(777,500,l),
(837,430,o),
(870,369,o),
(870,288,cs),
(870,179,o),
(801,117,o),
(707,117,cs),
(606,117,o),
(545,183,o),
(545,288,cs),
(545,368,o),
(579,430,o),
(626,485,c),
(566,569,l),
(55,569,l),
(55,0,l),
(242,0,l),
(242,441,l),
(439,441,l),
(486,534,l),
(404,452,o),
(355,400,o),
(355,285,cs),
(355,143,o),
(448,-12,o),
(708,-12,cs)
);
}
);
width = 1097;
}
);
unicode = 3419;
},
{
glyphname = uni0D5C;
layers = (
{
background = {
shapes = (
{
closed = 1;
nodes = (
(954,581,o),
(886,561,o),
(838,516,cs),
(793,473,o),
(773,413,o),
(773,305,cs),
(773,270,ls),
(773,206,o),
(769,168,o),
(751,144,cs),
(738,127,o),
(719,117,o),
(690,117,cs),
(665,117,o),
(648,124,o),
(635,137,cs),
(613,159,o),
(608,191,o),
(608,271,cs),
(608,291,ls),
(608,409,o),
(583,480,o),
(527,525,cs),
(481,562,o),
(420,581,o),
(325,581,cs),
(142,581,o),
(35,466,o),
(35,300,cs),
(35,174,o),
(85,90,o),
(174,-12,c),
(313,69,l),
(251,155,o),
(225,216,o),
(225,296,cs),
(225,415,o),
(274,452,o),
(329,452,cs),
(355,452,o),
(374,445,o),
(387,432,cs),
(412,408,o),
(417,354,o),
(417,305,cs),
(417,265,ls),
(417,153,o),
(437,96,o),
(481,53,cs),
(526,9,o),
(589,-12,o),
(688,-12,cs),
(785,-12,o),
(852,8,o),
(899,54,cs),
(943,97,o),
(963,157,o),
(963,265,cs),
(963,295,ls),
(963,363,o),
(967,401,o),
(985,425,cs),
(998,442,o),
(1017,452,o),
(1046,452,cs),
(1071,452,o),
(1088,445,o),
(1101,432,cs),
(1123,410,o),
(1128,378,o),
(1128,296,cs),
(1128,278,ls),
(1128,160,o),
(1153,89,o),
(1209,44,cs),
(1255,7,o),
(1316,-12,o),
(1411,-12,cs),
(1594,-12,o),
(1701,103,o),
(1701,269,cs),
(1701,395,o),
(1651,479,o),
(1562,581,c),
(1423,500,l),
(1485,414,o),
(1511,353,o),
(1511,273,cs),
(1511,154,o),
(1462,117,o),
(1407,117,cs),
(1381,117,o),
(1362,124,o),
(1349,137,cs),
(1324,161,o),
(1319,204,o),
(1319,264,cs),
(1319,303,ls),
(1319,416,o),
(1299,472,o),
(1255,515,cs),
(1210,559,o),
(1141,581,o),
(1048,581,cs)
);
}
);
};
layerId = "2AD682F6-F6C7-4738-913E-50B961B61BC3";
shapes = (
{
closed = 1;
nodes = (
(954,581,o),
(886,561,o),
(838,516,cs),
(793,473,o),
(773,413,o),
(773,305,cs),
(773,270,ls),
(773,206,o),
(769,168,o),
(751,144,cs),
(738,127,o),
(719,117,o),
(690,117,cs),
(665,117,o),
(648,124,o),
(635,137,cs),
(613,159,o),
(608,191,o),
(608,271,cs),
(608,291,ls),
(608,409,o),
(583,480,o),
(527,525,cs),
(481,562,o),
(420,581,o),
(325,581,cs),
(142,581,o),
(35,466,o),
(35,300,cs),
(35,174,o),
(85,90,o),
(174,-12,c),
(313,69,l),
(251,155,o),
(225,216,o),
(225,296,cs),
(225,415,o),
(274,452,o),
(329,452,cs),
(355,452,o),
(374,445,o),
(387,432,cs),
(412,408,o),
(417,354,o),
(417,305,cs),
(417,265,ls),
(417,153,o),
(437,96,o),
(481,53,cs),
(526,9,o),
(589,-12,o),
(688,-12,cs),
(785,-12,o),
(852,8,o),
(899,54,cs),
(943,97,o),
(963,157,o),
(963,265,cs),
(963,295,ls),
(963,363,o),
(967,401,o),
(985,425,cs),
(998,442,o),
(1017,452,o),
(1046,452,cs),
(1071,452,o),
(1088,445,o),
(1101,432,cs),
(1123,410,o),
(1128,378,o),
(1128,296,cs),
(1128,278,ls),
(1128,160,o),
(1153,89,o),
(1209,44,cs),
(1255,7,o),
(1316,-12,o),
(1411,-12,cs),
(1594,-12,o),
(1701,103,o),
(1701,269,cs),
(1701,395,o),
(1651,479,o),
(1562,581,c),
(1423,500,l),
(1485,414,o),
(1511,353,o),
(1511,273,cs),
(1511,154,o),
(1462,117,o),
(1407,117,cs),
(1381,117,o),
(1362,124,o),
(1349,137,cs),
(1324,161,o),
(1319,204,o),
(1319,264,cs),
(1319,303,ls),
(1319,416,o),
(1299,472,o),
(1255,515,cs),
(1210,559,o),
(1141,581,o),
(1048,581,cs)
);
}
);
width = 1736;
}
);
unicode = 3420;
},
{
glyphname = uni0D5D;
layers = (
{
background = {
shapes = (
{
closed = 1;
nodes = (
(772,581,o),
(704,561,o),
(656,516,cs),
(611,473,o),
(590,413,o),
(590,305,cs),
(590,276,ls),
(590,201,o),
(585,162,o),
(560,138,cs),
(547,126,o),
(530,117,o),
(502,117,cs),
(474,117,o),
(456,124,o),
(440,140,cs),
(419,161,o),
(415,194,o),
(415,256,cs),
(415,569,l),
(228,569,l),
(228,241,ls),
(228,189,o),
(221,161,o),
(203,141,cs),
(191,127,o),
(173,117,o),
(140,117,cs),
(105,117,o),
(76,129,o),
(52,142,c),
(8,25,l),
(54,0,o),
(96,-12,o),
(150,-12,cs),
(232,-12,o),
(271,6,o),
(330,63,c),
(314,68,l),
(370,12,o),
(431,-12,o),
(524,-12,cs),
(595,-12,o),
(655,6,o),
(701,43,cs),
(758,89,o),
(781,158,o),
(781,266,cs),
(781,295,ls),
(781,363,o),
(785,401,o),
(803,425,cs),
(816,442,o),
(835,452,o),
(864,452,cs),
(889,452,o),
(906,445,o),
(919,432,cs),
(941,410,o),
(946,378,o),
(946,296,cs),
(946,265,ls),
(946,153,o),
(966,96,o),
(1010,53,cs),
(1055,9,o),
(1118,-12,o),
(1217,-12,cs),
(1314,-12,o),
(1381,8,o),
(1428,54,cs),
(1472,97,o),
(1492,157,o),
(1492,265,cs),
(1492,295,ls),
(1492,363,o),
(1496,401,o),
(1514,425,cs),
(1527,442,o),
(1546,452,o),
(1575,452,cs),
(1600,452,o),
(1617,445,o),
(1630,432,cs),
(1652,410,o),
(1657,378,o),
(1657,296,cs),
(1657,278,ls),
(1657,160,o),
(1682,89,o),
(1738,44,cs),
(1784,7,o),
(1845,-12,o),
(1940,-12,cs),
(2123,-12,o),
(2230,103,o),
(2230,269,cs),
(2230,395,o),
(2180,479,o),
(2091,581,c),
(1952,500,l),
(2014,414,o),
(2040,353,o),
(2040,273,cs),
(2040,154,o),
(1991,117,o),
(1936,117,cs),
(1910,117,o),
(1891,124,o),
(1878,137,cs),
(1853,161,o),
(1848,204,o),
(1848,264,cs),
(1848,303,ls),
(1848,416,o),
(1828,472,o),
(1784,515,cs),
(1739,559,o),
(1670,581,o),
(1577,581,cs),
(1483,581,o),
(1415,561,o),
(1367,516,cs),
(1322,473,o),
(1302,413,o),
(1302,305,cs),
(1302,270,ls),
(1302,206,o),
(1298,168,o),
(1280,144,cs),
(1267,127,o),
(1248,117,o),
(1219,117,cs),
(1194,117,o),
(1177,124,o),
(1164,137,cs),
(1142,159,o),
(1137,191,o),
(1137,271,cs),
(1137,303,ls),
(1137,416,o),
(1117,472,o),
(1073,515,cs),
(1028,559,o),
(959,581,o),
(866,581,cs)
);
}
);
};
layerId = "2AD682F6-F6C7-4738-913E-50B961B61BC3";
shapes = (
{
closed = 1;
nodes = (
(772,581,o),
(704,561,o),
(656,516,cs),
(611,473,o),
(590,413,o),
(590,305,cs),
(590,276,ls),
(590,201,o),
(585,162,o),
(560,138,cs),
(547,126,o),
(530,117,o),
(502,117,cs),
(474,117,o),
(456,124,o),
(440,140,cs),
(419,161,o),
(415,194,o),
(415,256,cs),
(415,569,l),
(228,569,l),
(228,241,ls),
(228,189,o),
(221,161,o),
(203,141,cs),
(191,127,o),
(173,117,o),
(140,117,cs),
(105,117,o),
(76,129,o),
(52,142,c),
(8,25,l),
(54,0,o),
(96,-12,o),
(150,-12,cs),
(232,-12,o),
(271,6,o),
(330,63,c),
(314,68,l),
(370,12,o),
(431,-12,o),
(524,-12,cs),
(595,-12,o),
(655,6,o),
(701,43,cs),
(758,89,o),
(781,158,o),
(781,266,cs),
(781,295,ls),
(781,363,o),
(785,401,o),
(803,425,cs),
(816,442,o),
(835,452,o),
(864,452,cs),
(889,452,o),
(906,445,o),
(919,432,cs),
(941,410,o),
(946,378,o),
(946,296,cs),
(946,265,ls),
(946,153,o),
(966,96,o),
(1010,53,cs),
(1055,9,o),
(1118,-12,o),
(1217,-12,cs),
(1314,-12,o),
(1381,8,o),
(1428,54,cs),
(1472,97,o),
(1492,157,o),
(1492,265,cs),
(1492,295,ls),
(1492,363,o),
(1496,401,o),
(1514,425,cs),
(1527,442,o),
(1546,452,o),
(1575,452,cs),
(1600,452,o),
(1617,445,o),
(1630,432,cs),
(1652,410,o),
(1657,378,o),
(1657,296,cs),
(1657,278,ls),
(1657,160,o),
(1682,89,o),
(1738,44,cs),
(1784,7,o),
(1845,-12,o),
(1940,-12,cs),
(2123,-12,o),
(2230,103,o),
(2230,269,cs),
(2230,395,o),
(2180,479,o),
(2091,581,c),
(1952,500,l),
(2014,414,o),
(2040,353,o),
(2040,273,cs),
(2040,154,o),
(1991,117,o),
(1936,117,cs),
(1910,117,o),
(1891,124,o),
(1878,137,cs),
(1853,161,o),
(1848,204,o),
(1848,264,cs),
(1848,303,ls),
(1848,416,o),
(1828,472,o),
(1784,515,cs),
(1739,559,o),
(1670,581,o),
(1577,581,cs),
(1483,581,o),
(1415,561,o),
(1367,516,cs),
(1322,473,o),
(1302,413,o),
(1302,305,cs),
(1302,270,ls),
(1302,206,o),
(1298,168,o),
(1280,144,cs),
(1267,127,o),
(1248,117,o),
(1219,117,cs),
(1194,117,o),
(1177,124,o),
(1164,137,cs),
(1142,159,o),
(1137,191,o),
(1137,271,cs),
(1137,303,ls),
(1137,416,o),
(1117,472,o),
(1073,515,cs),
(1028,559,o),
(959,581,o),
(866,581,cs)
);
}
);
width = 2265;
}
);
unicode = 3421;
},
{
glyphname = uni0D5E;
layers = (
{
background = {
shapes = (
{
closed = 1;
nodes = (
(134,581,o),
(35,426,o),
(35,284,cs),
(35,154,o),
(94,65,o),
(181,-12,c),
(320,69,l),
(260,139,o),
(227,201,o),
(227,281,cs),
(227,388,o),
(297,451,o),
(431,451,cs),
(552,451,o),
(613,399,o),
(640,334,c),
(642,302,l),
(644,282,o),
(647,259,o),
(647,232,cs),
(647,140,o),
(617,112,o),
(575,112,cs),
(539,112,o),
(523,136,o),
(523,167,cs),
(523,191,o),
(532,206,o),
(548,216,cs),
(568,229,o),
(594,232,o),
(646,232,cs),
(765,232,l),
(765,360,l),
(659,360,ls),
(541,360,o),
(483,352,o),
(429,322,cs),
(378,294,o),
(341,243,o),
(341,168,cs),
(341,75,o),
(395,-12,o),
(570,-12,cs),
(737,-12,o),
(829,70,o),
(829,237,cs),
(829,418,o),
(700,581,o),
(417,581,cs)
);
},
{
closed = 1;
nodes = (
(1465,197,o),
(1571,273,o),
(1571,399,cs),
(1571,472,o),
(1538,532,o),
(1490,582,c),
(1346,524,l),
(1370,486,o),
(1386,450,o),
(1386,409,cs),
(1386,359,o),
(1362,324,o),
(1311,324,cs),
(1259,324,o),
(1238,364,o),
(1238,406,cs),
(1238,446,o),
(1255,477,o),
(1269,499,c),
(1206,569,l),
(878,569,l),
(833,452,l),
(843,441,o),
(850,423,o),
(850,405,cs),
(850,380,o),
(834,360,o),
(784,360,cs),
(730,360,l),
(730,232,l),
(778,232,ls),
(926,232,o),
(1001,291,o),
(1001,398,cs),
(1001,440,o),
(987,474,o),
(968,496,c),
(945,441,l),
(1077,441,l),
(1080,493,l),
(1067,464,o),
(1060,426,o),
(1060,396,cs),
(1060,301,o),
(1134,197,o),
(1313,197,cs)
);
}
);
};
layerId = "2AD682F6-F6C7-4738-913E-50B961B61BC3";
shapes = (
{
closed = 1;
nodes = (
(134,581,o),
(35,426,o),
(35,284,cs),
(35,154,o),
(94,65,o),
(181,-12,c),
(320,69,l),
(260,139,o),
(227,201,o),
(227,281,cs),
(227,388,o),
(297,451,o),
(431,451,cs),
(552,451,o),
(613,399,o),
(640,334,c),
(642,302,l),
(644,282,o),
(647,259,o),
(647,232,cs),
(647,140,o),
(617,112,o),
(575,112,cs),
(539,112,o),
(523,136,o),
(523,167,cs),
(523,191,o),
(532,206,o),
(548,216,cs),
(568,229,o),
(594,232,o),
(646,232,cs),
(765,232,l),
(765,360,l),
(659,360,ls),
(541,360,o),
(483,352,o),
(429,322,cs),
(378,294,o),
(341,243,o),
(341,168,cs),
(341,75,o),
(395,-12,o),
(570,-12,cs),
(737,-12,o),
(829,70,o),
(829,237,cs),
(829,418,o),
(700,581,o),
(417,581,cs)
);
},
{
closed = 1;
nodes = (
(1465,197,o),
(1571,273,o),
(1571,399,cs),
(1571,472,o),
(1538,532,o),
(1490,582,c),
(1346,524,l),
(1370,486,o),
(1386,450,o),
(1386,409,cs),
(1386,359,o),
(1362,324,o),
(1311,324,cs),
(1259,324,o),
(1238,364,o),
(1238,406,cs),
(1238,446,o),
(1255,477,o),
(1269,499,c),
(1206,569,l),
(878,569,l),
(833,452,l),
(843,441,o),
(850,423,o),
(850,405,cs),
(850,380,o),
(834,360,o),
(784,360,cs),
(730,360,l),
(730,232,l),
(778,232,ls),
(926,232,o),
(1001,291,o),
(1001,398,cs),
(1001,440,o),
(987,474,o),
(968,496,c),
(945,441,l),
(1077,441,l),
(1080,493,l),
(1067,464,o),
(1060,426,o),
(1060,396,cs),
(1060,301,o),
(1134,197,o),
(1313,197,cs)
);
}
);
width = 1597;
}
);
unicode = 3422;
},
{
glyphname = uni0D5F;
layers = (
{
anchors = (
{
name = b.uni0D00;
pos = (780,0);
}
);
background = {
shapes = (
{
closed = 1;
nodes = (
(23,193,o),
(82,131,o),
(187,131,cs),
(292,131,o),
(352,193,o),
(352,273,cs),
(352,355,o),
(290,415,o),
(187,415,cs),
(84,415,o),
(23,354,o),
(23,273,cs)
);
},
{
closed = 1;
nodes = (
(141,300,o),
(157,318,o),
(187,318,cs),
(215,318,o),
(234,301,o),
(234,274,cs),
(234,248,o),
(218,228,o),
(187,228,cs),
(156,228,o),
(141,247,o),
(141,273,cs)
);
},
{
closed = 1;
nodes = (
(1209,193,o),
(1268,131,o),
(1373,131,cs),
(1478,131,o),
(1538,193,o),
(1538,273,cs),
(1538,355,o),
(1476,415,o),
(1373,415,cs),
(1270,415,o),
(1209,354,o),
(1209,273,cs)
);
},
{
closed = 1;
nodes = (
(1327,300,o),
(1343,318,o),
(1373,318,cs),
(1401,318,o),
(1420,301,o),
(1420,274,cs),
(1420,248,o),
(1404,228,o),
(1373,228,cs),
(1342,228,o),
(1327,247,o),
(1327,273,cs)
);
},
{
alignment = -1;
pos = (349,0);
ref = ramlym;
}
);
};
layerId = "2AD682F6-F6C7-4738-913E-50B961B61BC3";
shapes = (
{
closed = 1;
nodes = (
(23,193,o),
(82,131,o),
(187,131,cs),
(292,131,o),
(352,193,o),
(352,273,cs),
(352,355,o),
(290,415,o),
(187,415,cs),
(84,415,o),
(23,354,o),
(23,273,cs)
);
},
{
closed = 1;
nodes = (
(141,300,o),
(157,318,o),
(187,318,cs),
(215,318,o),
(234,301,o),
(234,274,cs),
(234,248,o),
(218,228,o),
(187,228,cs),
(156,228,o),
(141,247,o),
(141,273,cs)
);
},
{
closed = 1;
nodes = (
(1209,193,o),
(1268,131,o),
(1373,131,cs),
(1478,131,o),
(1538,193,o),
(1538,273,cs),
(1538,355,o),
(1476,415,o),
(1373,415,cs),
(1270,415,o),
(1209,354,o),
(1209,273,cs)
);
},
{
closed = 1;
nodes = (
(1327,300,o),
(1343,318,o),
(1373,318,cs),
(1401,318,o),
(1420,301,o),
(1420,274,cs),
(1420,248,o),
(1404,228,o),
(1373,228,cs),
(1342,228,o),
(1327,247,o),
(1327,273,cs)
);
},
{
alignment = -1;
pos = (349,0);
ref = ramlym;
}
);
width = 1561;
}
);
unicode = 3423;
},
{
glyphname = rrvocalicmlym;
layers = (
{
anchors = (
{
name = b.uni0D00;
pos = (530,0);
}
);
background = {
shapes = (
{
closed = 1;
nodes = (
(626,581,o),
(550,496,o),
(550,395,cs),
(550,271,o),
(630,221,o),
(767,221,cs),
(856,221,o),
(928,279,o),
(975,332,c),
(931,426,l),
(888,373,o),
(852,334,o),
(795,334,cs),
(760,334,o),
(730,349,o),
(730,399,cs),
(730,439,o),
(751,461,o),
(788,461,cs),
(830,461,o),
(862,420,o),
(862,345,cs),
(862,328,o),
(861,313,o),
(858,297,c),
(858,274,l),
(822,182,o),
(689,173,o),
(539,173,cs),
(520,173,ls),
(369,173,o),
(239,182,o),
(203,274,c),
(203,299,l),
(200,313,o),
(199,328,o),
(199,345,cs),
(199,420,o),
(231,461,o),
(274,461,cs),
(310,461,o),
(331,439,o),
(331,399,cs),
(331,349,o),
(301,334,o),
(266,334,cs),
(209,334,o),
(173,373,o),
(130,426,c),
(86,332,l),
(133,279,o),
(205,221,o),
(290,221,cs),
(430,221,o),
(511,271,o),
(511,395,cs),
(511,496,o),
(435,581,o),
(288,581,cs),
(122,581,o),
(30,485,o),
(30,339,cs),
(30,245,o),
(67,174,o),
(132,127,cs),
(201,77,o),
(298,61,o),
(411,61,cs),
(471,61,l),
(593,61,l),
(650,61,ls),
(763,61,o),
(860,77,o),
(929,127,cs),
(994,174,o),
(1031,245,o),
(1031,339,cs),
(1031,485,o),
(938,581,o),
(779,581,cs)
);
},
{
closed = 1;
nodes = (
(819,-261,o),
(958,-205,o),
(958,-59,cs),
(958,89,o),
(773,129,o),
(615,129,cs),
(446,129,ls),
(288,129,o),
(103,89,o),
(103,-59,cs),
(103,-205,o),
(243,-261,o),
(541,-261,cs)
);
},
{
closed = 1;
nodes = (
(363,-139,o),
(279,-115,o),
(279,-39,cs),
(279,39,o),
(371,55,o),
(516,55,cs),
(545,55,ls),
(690,55,o),
(782,39,o),
(782,-39,cs),
(782,-115,o),
(698,-139,o),
(532,-139,cs)
);
},
{
closed = 1;
nodes = (
(578,42,o),
(554,30,o),
(530,6,c),
(509,26,o),
(487,42,o),
(445,42,cs),
(345,42,o),
(327,-34,o),
(327,-83,cs),
(327,-109,l),
(428,-109,l),
(428,-101,ls),
(428,-78,o),
(430,-55,o),
(455,-55,cs),
(477,-55,o),
(482,-74,o),
(482,-100,cs),
(482,-109,l),
(579,-109,l),
(579,-100,ls),
(579,-76,o),
(582,-55,o),
(607,-55,cs),
(629,-55,o),
(633,-74,o),
(633,-101,cs),
(633,-109,l),
(734,-109,l),
(734,-83,ls),
(734,-34,o),
(713,42,o),
(616,42,cs)
);
}
);
};
layerId = "2AD682F6-F6C7-4738-913E-50B961B61BC3";
shapes = (
{
closed = 1;
nodes = (
(626,581,o),
(550,496,o),
(550,395,cs),
(550,271,o),
(630,221,o),
(767,221,cs),
(856,221,o),
(928,279,o),
(975,332,c),
(931,426,l),
(888,373,o),
(852,334,o),
(795,334,cs),
(760,334,o),
(730,349,o),
(730,399,cs),
(730,439,o),
(751,461,o),
(788,461,cs),
(830,461,o),
(862,420,o),
(862,345,cs),
(862,328,o),
(861,313,o),
(858,297,c),
(858,274,l),
(822,182,o),
(689,173,o),
(539,173,cs),
(520,173,ls),
(369,173,o),
(239,182,o),
(203,274,c),
(203,299,l),
(200,313,o),
(199,328,o),
(199,345,cs),
(199,420,o),
(231,461,o),
(274,461,cs),
(310,461,o),
(331,439,o),
(331,399,cs),
(331,349,o),
(301,334,o),
(266,334,cs),
(209,334,o),
(173,373,o),
(130,426,c),
(86,332,l),
(133,279,o),
(205,221,o),
(290,221,cs),
(430,221,o),
(511,271,o),
(511,395,cs),
(511,496,o),
(435,581,o),
(288,581,cs),
(122,581,o),
(30,485,o),
(30,339,cs),
(30,245,o),
(67,174,o),
(132,127,cs),
(201,77,o),
(298,61,o),
(411,61,cs),
(471,61,l),
(593,61,l),
(650,61,ls),
(763,61,o),
(860,77,o),
(929,127,cs),
(994,174,o),
(1031,245,o),
(1031,339,cs),
(1031,485,o),
(938,581,o),
(779,581,cs)
);
},
{
closed = 1;
nodes = (
(819,-261,o),
(958,-205,o),
(958,-59,cs),
(958,89,o),
(773,129,o),
(615,129,cs),
(446,129,ls),
(288,129,o),
(103,89,o),
(103,-59,cs),
(103,-205,o),
(243,-261,o),
(541,-261,cs)
);
},
{
closed = 1;
nodes = (
(363,-139,o),
(279,-115,o),
(279,-39,cs),
(279,39,o),
(371,55,o),
(516,55,cs),
(545,55,ls),
(690,55,o),
(782,39,o),
(782,-39,cs),
(782,-115,o),
(698,-139,o),
(532,-139,cs)
);
},
{
closed = 1;
nodes = (
(578,42,o),
(554,30,o),
(530,6,c),
(509,26,o),
(487,42,o),
(445,42,cs),
(345,42,o),
(327,-34,o),
(327,-83,cs),
(327,-109,l),
(428,-109,l),
(428,-101,ls),
(428,-78,o),
(430,-55,o),
(455,-55,cs),
(477,-55,o),
(482,-74,o),
(482,-100,cs),
(482,-109,l),
(579,-109,l),
(579,-100,ls),
(579,-76,o),
(582,-55,o),
(607,-55,cs),
(629,-55,o),
(633,-74,o),
(633,-101,cs),
(633,-109,l),
(734,-109,l),
(734,-83,ls),
(734,-34,o),
(713,42,o),
(616,42,cs)
);
}
);
width = 1061;
}
);
unicode = 3424;
},
{
glyphname = llvocalicmlym;
layers = (
{
anchors = (
{
name = b.uni0D00;
pos = (777,0);
}
);
background = {
shapes = (
{
closed = 1;
nodes = (
(202,581,o),
(33,460,o),
(33,244,cs),
(33,63,o),
(139,-12,o),
(278,-12,cs),
(432,-12,o),
(506,61,o),
(506,180,cs),
(506,285,o),
(444,359,o),
(316,359,cs),
(230,359,o),
(171,321,o),
(118,276,c),
(139,156,l),
(193,215,o),
(222,240,o),
(267,240,cs),
(303,240,o),
(325,216,o),
(325,173,cs),
(325,127,o),
(306,108,o),
(273,108,cs),
(235,108,o),
(202,135,o),
(202,240,cs),
(202,244,ls),
(202,380,o),
(301,453,o),
(418,453,cs),
(469,453,o),
(505,443,o),
(529,424,cs),
(562,397,o),
(574,359,o),
(574,273,cs),
(574,0,l),
(761,0,l),
(761,227,l),
(737,404,l),
(704,480,l),
(629,553,o),
(547,581,o),
(422,581,cs)
);
},
{
closed = 1;
nodes = (
(777,581,o),
(691,517,o),
(628,450,c),
(761,212,l),
(761,238,ls),
(761,312,o),
(769,377,o),
(818,416,cs),
(844,436,o),
(878,451,o),
(934,451,cs),
(1025,451,o),
(1076,420,o),
(1112,372,c),
(1129,321,l),
(1137,294,o),
(1141,265,o),
(1141,233,cs),
(1141,141,o),
(1113,112,o),
(1066,112,cs),
(1027,112,o),
(1005,137,o),
(1005,184,cs),
(1005,243,o),
(1042,292,o),
(1143,292,cs),
(1169,292,o),
(1192,290,o),
(1214,286,cs),
(1250,280,l),
(1316,255,o),
(1352,200,o),
(1352,106,cs),
(1352,34,o),
(1322,-70,o),
(1161,-70,cs),
(1115,-70,o),
(1078,-66,o),
(1031,-52,c),
(982,-173,l),
(1038,-192,o),
(1104,-201,o),
(1167,-201,cs),
(1447,-201,o),
(1530,-52,o),
(1530,104,cs),
(1530,263,o),
(1426,374,o),
(1250,404,c),
(1205,407,l),
(1181,410,o),
(1157,411,o),
(1132,411,cs),
(939,411,o),
(825,332,o),
(825,189,cs),
(825,67,o),
(916,-12,o),
(1062,-12,cs),
(1232,-12,o),
(1313,63,o),
(1313,232,cs),
(1313,266,o),
(1309,297,o),
(1302,326,cs),
(1260,501,o),
(1118,581,o),
(938,581,cs)
);
}
);
};
layerId = "2AD682F6-F6C7-4738-913E-50B961B61BC3";
shapes = (
{
closed = 1;
nodes = (
(202,581,o),
(33,460,o),
(33,244,cs),
(33,63,o),
(139,-12,o),
(278,-12,cs),
(432,-12,o),
(506,61,o),
(506,180,cs),
(506,285,o),
(444,359,o),
(316,359,cs),
(230,359,o),
(171,321,o),
(118,276,c),
(139,156,l),
(193,215,o),
(222,240,o),
(267,240,cs),
(303,240,o),
(325,216,o),
(325,173,cs),
(325,127,o),
(306,108,o),
(273,108,cs),
(235,108,o),
(202,135,o),
(202,240,cs),
(202,244,ls),
(202,380,o),
(301,453,o),
(418,453,cs),
(469,453,o),
(505,443,o),
(529,424,cs),
(562,397,o),
(574,359,o),
(574,273,cs),
(574,0,l),
(761,0,l),
(761,227,l),
(737,404,l),
(704,480,l),
(629,553,o),
(547,581,o),
(422,581,cs)
);
},
{
closed = 1;
nodes = (
(777,581,o),
(691,517,o),
(628,450,c),
(761,212,l),
(761,238,ls),
(761,312,o),
(769,377,o),
(818,416,cs),
(844,436,o),
(878,451,o),
(934,451,cs),
(1025,451,o),
(1076,420,o),
(1112,372,c),
(1129,321,l),
(1137,294,o),
(1141,265,o),
(1141,233,cs),
(1141,141,o),
(1113,112,o),
(1066,112,cs),
(1027,112,o),
(1005,137,o),
(1005,184,cs),
(1005,243,o),
(1042,292,o),
(1143,292,cs),
(1169,292,o),
(1192,290,o),
(1214,286,cs),
(1250,280,l),
(1316,255,o),
(1352,200,o),
(1352,106,cs),
(1352,34,o),
(1322,-70,o),
(1161,-70,cs),
(1115,-70,o),
(1078,-66,o),
(1031,-52,c),
(982,-173,l),
(1038,-192,o),
(1104,-201,o),
(1167,-201,cs),
(1447,-201,o),
(1530,-52,o),
(1530,104,cs),
(1530,263,o),
(1426,374,o),
(1250,404,c),
(1205,407,l),
(1181,410,o),
(1157,411,o),
(1132,411,cs),
(939,411,o),
(825,332,o),
(825,189,cs),
(825,67,o),
(916,-12,o),
(1062,-12,cs),
(1232,-12,o),
(1313,63,o),
(1313,232,cs),
(1313,266,o),
(1309,297,o),
(1302,326,cs),
(1260,501,o),
(1118,581,o),
(938,581,cs)
);
}
);
width = 1555;
}
);
unicode = 3425;
},
{
glyphname = zeromlym;
layers = (
{
anchors = (
{
name = b.uni0D00;
pos = (324,0);
}
);
background = {
shapes = (
{
closed = 1;
nodes = (
(504,33,o),
(612,133,o),
(612,281,cs),
(612,427,o),
(517,532,o),
(323,532,cs),
(149,532,o),
(36,435,o),
(36,281,cs),
(36,125,o),
(147,33,o),
(324,33,cs)
);
},
{
closed = 1;
nodes = (
(260,159,o),
(222,202,o),
(222,282,cs),
(222,364,o),
(261,406,o),
(323,406,cs),
(386,406,o),
(426,364,o),
(426,282,cs),
(426,201,o),
(386,159,o),
(323,159,cs)
);
}
);
};
layerId = "2AD682F6-F6C7-4738-913E-50B961B61BC3";
shapes = (
{
closed = 1;
nodes = (
(504,33,o),
(612,133,o),
(612,281,cs),
(612,427,o),
(517,532,o),
(323,532,cs),
(149,532,o),
(36,435,o),
(36,281,cs),
(36,125,o),
(147,33,o),
(324,33,cs)
);
},
{
closed = 1;
nodes = (
(260,159,o),
(222,202,o),
(222,282,cs),
(222,364,o),
(261,406,o),
(323,406,cs),
(386,406,o),
(426,364,o),
(426,282,cs),
(426,201,o),
(386,159,o),
(323,159,cs)
);
}
);
width = 648;
}
);
unicode = 3430;
},
{
glyphname = onemlym;
layers = (
{
anchors = (
{
name = b.uni0D00;
pos = (505,0);
}
);
background = {
shapes = (
{
closed = 1;
nodes = (
(433,-77,l),
(296,-77,ls),
(245,-77,o),
(227,-73,o),
(214,-64,cs),
(205,-58,o),
(200,-49,o),
(200,-36,cs),
(200,-23,o),
(206,-14,o),
(219,-8,cs),
(232,-2,o),
(246,0,o),
(293,0,cs),
(513,0,l),
(512,128,l),
(281,128,ls),
(179,128,o),
(121,117,o),
(73,84,cs),
(35,58,o),
(12,17,o),
(12,-42,cs),
(12,-108,o),
(43,-151,o),
(90,-175,cs),
(139,-200,o),
(193,-206,o),
(283,-206,cs),
(433,-206,l)
);
},
{
alignment = -1;
ref = thapart;
}
);
};
layerId = "2AD682F6-F6C7-4738-913E-50B961B61BC3";
shapes = (
{
closed = 1;
nodes = (
(433,-77,l),
(296,-77,ls),
(245,-77,o),
(227,-73,o),
(214,-64,cs),
(205,-58,o),
(200,-49,o),
(200,-36,cs),
(200,-23,o),
(206,-14,o),
(219,-8,cs),
(232,-2,o),
(246,0,o),
(293,0,cs),
(513,0,l),
(512,128,l),
(281,128,ls),
(179,128,o),
(121,117,o),
(73,84,cs),
(35,58,o),
(12,17,o),
(12,-42,cs),
(12,-108,o),
(43,-151,o),
(90,-175,cs),
(139,-200,o),
(193,-206,o),
(283,-206,cs),
(433,-206,l)
);
},
{
alignment = -1;
ref = thapart;
}
);
width = 1011;
}
);
unicode = 3431;
},
{
glyphname = twomlym;
layers = (
{
anchors = (
{
name = b.uni0D00;
pos = (476,0);
}
);
background = {
shapes = (
{
closed = 1;
nodes = (
(124,581,o),
(35,417,o),
(35,284,cs),
(35,154,o),
(94,65,o),
(181,-12,c),
(320,69,l),
(260,139,o),
(227,200,o),
(227,281,cs),
(227,390,o),
(296,452,o),
(390,452,cs),
(491,452,o),
(552,386,o),
(552,281,cs),
(552,201,o),
(518,139,o),
(471,84,c),
(531,0,l),
(933,0,l),
(933,128,l),
(658,128,l),
(611,35,l),
(693,117,o),
(742,169,o),
(742,284,cs),
(742,426,o),
(649,581,o),
(389,581,cs)
);
}
);
};
layerId = "2AD682F6-F6C7-4738-913E-50B961B61BC3";
shapes = (
{
closed = 1;
nodes = (
(124,581,o),
(35,417,o),
(35,284,cs),
(35,154,o),
(94,65,o),
(181,-12,c),
(320,69,l),
(260,139,o),
(227,200,o),
(227,281,cs),
(227,390,o),
(296,452,o),
(390,452,cs),
(491,452,o),
(552,386,o),
(552,281,cs),
(552,201,o),
(518,139,o),
(471,84,c),
(531,0,l),
(933,0,l),
(933,128,l),
(658,128,l),
(611,35,l),
(693,117,o),
(742,169,o),
(742,284,cs),
(742,426,o),
(649,581,o),
(389,581,cs)
);
}
);
width = 953;
}
);
unicode = 3432;
},
{
glyphname = threemlym;
layers = (
{
anchors = (
{
name = b.uni0D00;
pos = (609,0);
}
);
background = {
shapes = (
{
closed = 1;
nodes = (
(137,581,o),
(35,456,o),
(35,297,cs),
(35,174,o),
(79,90,o),
(173,-12,c),
(314,69,l),
(250,158,o),
(225,218,o),
(225,298,cs),
(225,409,o),
(287,452,o),
(344,452,cs),
(375,452,o),
(393,440,o),
(405,427,cs),
(424,406,o),
(428,370,o),
(428,320,cs),
(428,0,l),
(615,0,l),
(615,327,ls),
(615,380,o),
(622,408,o),
(640,428,cs),
(652,442,o),
(671,452,o),
(699,452,cs),
(758,452,o),
(819,411,o),
(819,295,cs),
(819,216,o),
(794,157,o),
(734,65,c),
(782,0,l),
(878,0,l),
(945,104,l),
(992,166,o),
(1009,223,o),
(1009,299,cs),
(1009,461,o),
(903,581,o),
(720,581,cs),
(629,581,o),
(573,558,o),
(513,506,c),
(529,510,l),
(469,560,o),
(415,581,o),
(329,581,cs)
);
},
{
closed = 1;
nodes = (
(849,0,l),
(1198,0,l),
(1198,128,l),
(907,128,l)
);
}
);
};
layerId = "2AD682F6-F6C7-4738-913E-50B961B61BC3";
shapes = (
{
closed = 1;
nodes = (
(137,581,o),
(35,456,o),
(35,297,cs),
(35,174,o),
(79,90,o),
(173,-12,c),
(314,69,l),
(250,158,o),
(225,218,o),
(225,298,cs),
(225,409,o),
(287,452,o),
(344,452,cs),
(375,452,o),
(393,440,o),
(405,427,cs),
(424,406,o),
(428,370,o),
(428,320,cs),
(428,0,l),
(615,0,l),
(615,327,ls),
(615,380,o),
(622,408,o),
(640,428,cs),
(652,442,o),
(671,452,o),
(699,452,cs),
(758,452,o),
(819,411,o),
(819,295,cs),
(819,216,o),
(794,157,o),
(734,65,c),
(782,0,l),
(878,0,l),
(945,104,l),
(992,166,o),
(1009,223,o),
(1009,299,cs),
(1009,461,o),
(903,581,o),
(720,581,cs),
(629,581,o),
(573,558,o),
(513,506,c),
(529,510,l),
(469,560,o),
(415,581,o),
(329,581,cs)
);
},
{
closed = 1;
nodes = (
(849,0,l),
(1198,0,l),
(1198,128,l),
(907,128,l)
);
}
);
width = 1218;
}
);
unicode = 3433;
},
{
glyphname = fourmlym;
layers = (
{
anchors = (
{
name = b.uni0D00;
pos = (457,0);
}
);
background = {
shapes = (
{
closed = 1;
nodes = (
(134,581,o),
(35,426,o),
(35,284,cs),
(35,154,o),
(94,65,o),
(181,-12,c),
(320,69,l),
(260,139,o),
(227,201,o),
(227,281,cs),
(227,388,o),
(300,457,o),
(425,457,cs),
(498,457,o),
(540,440,o),
(581,406,cs),
(631,365,o),
(654,290,o),
(654,229,cs),
(654,166,o),
(638,116,o),
(576,116,cs),
(529,116,o),
(506,151,o),
(506,196,cs),
(506,271,o),
(553,314,o),
(695,390,cs),
(853,474,o),
(910,519,o),
(910,631,cs),
(910,675,o),
(896,719,o),
(873,753,c),
(707,681,l),
(718,668,o),
(725,649,o),
(725,629,cs),
(725,570,o),
(690,550,o),
(592,492,c),
(395,394,o),
(321,317,o),
(321,193,cs),
(321,78,o),
(402,-12,o),
(573,-12,cs),
(759,-12,o),
(842,77,o),
(842,240,cs),
(842,340,o),
(799,425,o),
(728,482,c),
(644,547,o),
(551,581,o),
(423,581,cs)
);
}
);
};
layerId = "2AD682F6-F6C7-4738-913E-50B961B61BC3";
shapes = (
{
closed = 1;
nodes = (
(134,581,o),
(35,426,o),
(35,284,cs),
(35,154,o),
(94,65,o),
(181,-12,c),
(320,69,l),
(260,139,o),
(227,201,o),
(227,281,cs),
(227,388,o),
(300,457,o),
(425,457,cs),
(498,457,o),
(540,440,o),
(581,406,cs),
(631,365,o),
(654,290,o),
(654,229,cs),
(654,166,o),
(638,116,o),
(576,116,cs),
(529,116,o),
(506,151,o),
(506,196,cs),
(506,271,o),
(553,314,o),
(695,390,cs),
(853,474,o),
(910,519,o),
(910,631,cs),
(910,675,o),
(896,719,o),
(873,753,c),
(707,681,l),
(718,668,o),
(725,649,o),
(725,629,cs),
(725,570,o),
(690,550,o),
(592,492,c),
(395,394,o),
(321,317,o),
(321,193,cs),
(321,78,o),
(402,-12,o),
(573,-12,cs),
(759,-12,o),
(842,77,o),
(842,240,cs),
(842,340,o),
(799,425,o),
(728,482,c),
(644,547,o),
(551,581,o),
(423,581,cs)
);
}
);
width = 914;
}
);
unicode = 3434;
},
{
glyphname = fivemlym;
layers = (
{
anchors = (
{
name = b.uni0D00;
pos = (575,0);
}
);
background = {
shapes = (
{
closed = 1;
nodes = (
(282,732,o),
(38,578,o),
(38,255,cs),
(38,-17,o),
(207,-178,o),
(494,-178,cs),
(719,-178,o),
(861,-97,o),
(861,67,cs),
(861,147,o),
(820,213,o),
(744,248,c),
(732,230,l),
(829,263,o),
(853,321,o),
(853,378,cs),
(853,471,o),
(766,543,o),
(601,543,cs),
(406,543,o),
(289,435,o),
(289,268,cs),
(289,166,o),
(325,73,o),
(383,-11,c),
(535,66,l),
(494,137,o),
(476,186,o),
(476,262,cs),
(476,343,o),
(513,414,o),
(594,414,cs),
(639,414,o),
(667,392,o),
(667,360,cs),
(667,344,o),
(661,332,o),
(651,324,cs),
(635,311,o),
(612,306,o),
(569,306,cs),
(552,306,l),
(552,181,l),
(562,181,ls),
(637,181,o),
(675,136,o),
(675,79,cs),
(675,-1,o),
(613,-49,o),
(489,-49,cs),
(283,-49,o),
(217,103,o),
(217,259,cs),
(217,492,o),
(364,603,o),
(585,603,cs),
(825,603,o),
(932,458,o),
(932,269,cs),
(932,177,o),
(917,131,o),
(883,53,c),
(1031,-12,l),
(1088,86,o),
(1113,193,o),
(1113,276,cs),
(1113,539,o),
(946,732,o),
(580,732,cs)
);
}
);
};
layerId = "2AD682F6-F6C7-4738-913E-50B961B61BC3";
shapes = (
{
closed = 1;
nodes = (
(282,732,o),
(38,578,o),
(38,255,cs),
(38,-17,o),
(207,-178,o),
(494,-178,cs),
(719,-178,o),
(861,-97,o),
(861,67,cs),
(861,147,o),
(820,213,o),
(744,248,c),
(732,230,l),
(829,263,o),
(853,321,o),
(853,378,cs),
(853,471,o),
(766,543,o),
(601,543,cs),
(406,543,o),
(289,435,o),
(289,268,cs),
(289,166,o),
(325,73,o),
(383,-11,c),
(535,66,l),
(494,137,o),
(476,186,o),
(476,262,cs),
(476,343,o),
(513,414,o),
(594,414,cs),
(639,414,o),
(667,392,o),
(667,360,cs),
(667,344,o),
(661,332,o),
(651,324,cs),
(635,311,o),
(612,306,o),
(569,306,cs),
(552,306,l),
(552,181,l),
(562,181,ls),
(637,181,o),
(675,136,o),
(675,79,cs),
(675,-1,o),
(613,-49,o),
(489,-49,cs),
(283,-49,o),
(217,103,o),
(217,259,cs),
(217,492,o),
(364,603,o),
(585,603,cs),
(825,603,o),
(932,458,o),
(932,269,cs),
(932,177,o),
(917,131,o),
(883,53,c),
(1031,-12,l),
(1088,86,o),
(1113,193,o),
(1113,276,cs),
(1113,539,o),
(946,732,o),
(580,732,cs)
);
}
);
width = 1151;
}
);
unicode = 3435;
},
{
glyphname = sixmlym;
layers = (
{
anchors = (
{
name = b.uni0D00;
pos = (697,0);
}
);
background = {
shapes = (
{
closed = 1;
nodes = (
(599,581,o),
(543,553,o),
(496,502,c),
(520,510,l),
(460,560,o),
(407,581,o),
(321,581,cs),
(135,581,o),
(35,456,o),
(35,297,cs),
(35,174,o),
(79,90,o),
(173,-12,c),
(314,69,l),
(250,158,o),
(225,218,o),
(225,299,cs),
(225,409,o),
(285,452,o),
(336,452,cs),
(362,452,o),
(382,441,o),
(392,428,cs),
(411,405,o),
(415,368,o),
(415,316,cs),
(415,0,l),
(602,0,l),
(602,305,ls),
(602,374,o),
(609,406,o),
(628,427,cs),
(642,443,o),
(662,452,o),
(688,452,cs),
(715,452,o),
(735,444,o),
(749,429,cs),
(767,408,o),
(775,377,o),
(775,313,cs),
(775,0,l),
(962,0,l),
(962,297,l),
(878,499,l),
(820,561,o),
(765,581,o),
(689,581,cs)
);
},
{
closed = 1;
nodes = (
(974,581,o),
(920,558,o),
(860,506,c),
(785,309,l),
(785,10,l),
(962,10,l),
(962,327,ls),
(962,380,o),
(966,406,o),
(985,428,cs),
(997,442,o),
(1016,452,o),
(1044,452,cs),
(1120,452,o),
(1167,366,o),
(1167,232,cs),
(1167,55,o),
(1116,-70,o),
(918,-70,cs),
(881,-70,o),
(848,-68,o),
(819,-62,c),
(805,-191,l),
(848,-199,o),
(894,-201,o),
(938,-201,cs),
(1243,-201,o),
(1357,-45,o),
(1357,228,cs),
(1357,451,o),
(1254,581,o),
(1059,581,cs)
);
}
);
};
layerId = "2AD682F6-F6C7-4738-913E-50B961B61BC3";
shapes = (
{
closed = 1;
nodes = (
(599,581,o),
(543,553,o),
(496,502,c),
(520,510,l),
(460,560,o),
(407,581,o),
(321,581,cs),
(135,581,o),
(35,456,o),
(35,297,cs),
(35,174,o),
(79,90,o),
(173,-12,c),
(314,69,l),
(250,158,o),
(225,218,o),
(225,299,cs),
(225,409,o),
(285,452,o),
(336,452,cs),
(362,452,o),
(382,441,o),
(392,428,cs),
(411,405,o),
(415,368,o),
(415,316,cs),
(415,0,l),
(602,0,l),
(602,305,ls),
(602,374,o),
(609,406,o),
(628,427,cs),
(642,443,o),
(662,452,o),
(688,452,cs),
(715,452,o),
(735,444,o),
(749,429,cs),
(767,408,o),
(775,377,o),
(775,313,cs),
(775,0,l),
(962,0,l),
(962,297,l),
(878,499,l),
(820,561,o),
(765,581,o),
(689,581,cs)
);
},
{
closed = 1;
nodes = (
(974,581,o),
(920,558,o),
(860,506,c),
(785,309,l),
(785,10,l),
(962,10,l),
(962,327,ls),
(962,380,o),
(966,406,o),
(985,428,cs),
(997,442,o),
(1016,452,o),
(1044,452,cs),
(1120,452,o),
(1167,366,o),
(1167,232,cs),
(1167,55,o),
(1116,-70,o),
(918,-70,cs),
(881,-70,o),
(848,-68,o),
(819,-62,c),
(805,-191,l),
(848,-199,o),
(894,-201,o),
(938,-201,cs),
(1243,-201,o),
(1357,-45,o),
(1357,228,cs),
(1357,451,o),
(1254,581,o),
(1059,581,cs)
);
}
);
width = 1395;
}
);
unicode = 3436;
},
{
glyphname = sevenmlym;
layers = (
{
anchors = (
{
name = b.uni0D00;
pos = (431,0);
}
);
background = {
shapes = (
{
closed = 1;
nodes = (
(186,581,o),
(33,444,o),
(33,237,cs),
(33,63,o),
(139,-12,o),
(278,-12,cs),
(432,-12,o),
(506,61,o),
(506,180,cs),
(506,285,o),
(444,359,o),
(316,359,cs),
(230,359,o),
(171,321,o),
(118,276,c),
(139,156,l),
(193,215,o),
(222,240,o),
(268,240,cs),
(303,240,o),
(325,216,o),
(325,173,cs),
(325,127,o),
(306,108,o),
(273,108,cs),
(235,108,o),
(202,135,o),
(202,236,cs),
(202,243,ls),
(202,380,o),
(315,452,o),
(425,452,cs),
(562,452,o),
(635,363,o),
(635,211,cs),
(635,55,o),
(570,-70,o),
(376,-70,cs),
(336,-70,o),
(308,-68,o),
(276,-62,c),
(262,-190,l),
(305,-198,o),
(352,-201,o),
(393,-201,cs),
(686,-201,o),
(825,-41,o),
(825,213,cs),
(825,409,o),
(719,581,o),
(445,581,cs)
);
}
);
};
layerId = "2AD682F6-F6C7-4738-913E-50B961B61BC3";
shapes = (
{
closed = 1;
nodes = (
(186,581,o),
(33,444,o),
(33,237,cs),
(33,63,o),
(139,-12,o),
(278,-12,cs),
(432,-12,o),
(506,61,o),
(506,180,cs),
(506,285,o),
(444,359,o),
(316,359,cs),
(230,359,o),
(171,321,o),
(118,276,c),
(139,156,l),
(193,215,o),
(222,240,o),
(268,240,cs),
(303,240,o),
(325,216,o),
(325,173,cs),
(325,127,o),
(306,108,o),
(273,108,cs),
(235,108,o),
(202,135,o),
(202,236,cs),
(202,243,ls),
(202,380,o),
(315,452,o),
(425,452,cs),
(562,452,o),
(635,363,o),
(635,211,cs),
(635,55,o),
(570,-70,o),
(376,-70,cs),
(336,-70,o),
(308,-68,o),
(276,-62,c),
(262,-190,l),
(305,-198,o),
(352,-201,o),
(393,-201,cs),
(686,-201,o),
(825,-41,o),
(825,213,cs),
(825,409,o),
(719,581,o),
(445,581,cs)
);
}
);
width = 863;
}
);
unicode = 3437;
},
{
glyphname = eightmlym;
layers = (
{
anchors = (
{
name = b.uni0D00;
pos = (548,0);
}
);
background = {
shapes = (
{
closed = 1;
nodes = (
(124,581,o),
(35,417,o),
(35,284,cs),
(35,154,o),
(94,65,o),
(181,-12,c),
(320,69,l),
(260,139,o),
(227,200,o),
(227,281,cs),
(227,390,o),
(296,452,o),
(390,452,cs),
(491,452,o),
(552,386,o),
(552,281,cs),
(552,201,o),
(518,139,o),
(471,84,c),
(531,0,l),
(957,0,l),
(1042,217,l),
(1042,569,l),
(855,569,l),
(855,128,l),
(658,128,l),
(611,35,l),
(693,117,o),
(742,169,o),
(742,284,cs),
(742,426,o),
(649,581,o),
(389,581,cs)
);
},
{
closed = 1;
nodes = (
(785,-201,o),
(883,-179,o),
(949,-118,cs),
(1009,-62,o),
(1042,13,o),
(1042,163,cs),
(1042,336,l),
(858,70,l),
(855,2,o),
(820,-71,o),
(656,-71,cs),
(620,-71,o),
(583,-69,o),
(556,-62,c),
(538,-189,l),
(579,-197,o),
(632,-201,o),
(666,-201,cs)
);
}
);
};
layerId = "2AD682F6-F6C7-4738-913E-50B961B61BC3";
shapes = (
{
closed = 1;
nodes = (
(124,581,o),
(35,417,o),
(35,284,cs),
(35,154,o),
(94,65,o),
(181,-12,c),
(320,69,l),
(260,139,o),
(227,200,o),
(227,281,cs),
(227,390,o),
(296,452,o),
(390,452,cs),
(491,452,o),
(552,386,o),
(552,281,cs),
(552,201,o),
(518,139,o),
(471,84,c),
(531,0,l),
(957,0,l),
(1042,217,l),
(1042,569,l),
(855,569,l),
(855,128,l),
(658,128,l),
(611,35,l),
(693,117,o),
(742,169,o),
(742,284,cs),
(742,426,o),
(649,581,o),
(389,581,cs)
);
},
{
closed = 1;
nodes = (
(785,-201,o),
(883,-179,o),
(949,-118,cs),
(1009,-62,o),
(1042,13,o),
(1042,163,cs),
(1042,336,l),
(858,70,l),
(855,2,o),
(820,-71,o),
(656,-71,cs),
(620,-71,o),
(583,-69,o),
(556,-62,c),
(538,-189,l),
(579,-197,o),
(632,-201,o),
(666,-201,cs)
);
}
);
width = 1097;
}
);
unicode = 3438;
},
{
glyphname = ninemlym;
layers = (
{
anchors = (
{
name = b.uni0D00;
pos = (639,0);
}
);
background = {
shapes = (
{
closed = 1;
nodes = (
(137,581,o),
(35,456,o),
(35,297,cs),
(35,174,o),
(79,90,o),
(173,-12,c),
(314,69,l),
(250,158,o),
(225,218,o),
(225,298,cs),
(225,409,o),
(287,452,o),
(344,452,cs),
(375,452,o),
(393,440,o),
(405,427,cs),
(424,406,o),
(428,370,o),
(428,320,cs),
(428,0,l),
(615,0,l),
(615,199,l),
(529,510,l),
(469,560,o),
(415,581,o),
(329,581,cs)
);
},
{
closed = 1;
nodes = (
(614,581,o),
(546,532,o),
(486,470,c),
(438,312,l),
(438,29,l),
(615,29,l),
(615,254,ls),
(615,348,o),
(631,393,o),
(667,423,cs),
(691,443,o),
(725,457,o),
(790,457,cs),
(863,457,o),
(905,440,o),
(946,406,cs),
(996,365,o),
(1019,290,o),
(1019,229,cs),
(1019,166,o),
(1003,116,o),
(941,116,cs),
(894,116,o),
(871,151,o),
(871,196,cs),
(871,271,o),
(918,314,o),
(1060,390,cs),
(1218,474,o),
(1275,519,o),
(1275,631,cs),
(1275,675,o),
(1261,719,o),
(1238,753,c),
(1072,681,l),
(1083,668,o),
(1090,649,o),
(1090,629,cs),
(1090,570,o),
(1055,550,o),
(957,492,c),
(760,394,o),
(686,317,o),
(686,193,cs),
(686,78,o),
(767,-12,o),
(938,-12,cs),
(1124,-12,o),
(1207,77,o),
(1207,240,cs),
(1207,340,o),
(1164,425,o),
(1093,482,cs),
(1010,549,o),
(923,581,o),
(792,581,cs)
);
}
);
};
layerId = "2AD682F6-F6C7-4738-913E-50B961B61BC3";
shapes = (
{
closed = 1;
nodes = (
(137,581,o),
(35,456,o),
(35,297,cs),
(35,174,o),
(79,90,o),
(173,-12,c),
(314,69,l),
(250,158,o),
(225,218,o),
(225,298,cs),
(225,409,o),
(287,452,o),
(344,452,cs),
(375,452,o),
(393,440,o),
(405,427,cs),
(424,406,o),
(428,370,o),
(428,320,cs),
(428,0,l),
(615,0,l),
(615,199,l),
(529,510,l),
(469,560,o),
(415,581,o),
(329,581,cs)
);
},
{
closed = 1;
nodes = (
(614,581,o),
(546,532,o),
(486,470,c),
(438,312,l),
(438,29,l),
(615,29,l),
(615,254,ls),
(615,348,o),
(631,393,o),
(667,423,cs),
(691,443,o),
(725,457,o),
(790,457,cs),
(863,457,o),
(905,440,o),
(946,406,cs),
(996,365,o),
(1019,290,o),
(1019,229,cs),
(1019,166,o),
(1003,116,o),
(941,116,cs),
(894,116,o),
(871,151,o),
(871,196,cs),
(871,271,o),
(918,314,o),
(1060,390,cs),
(1218,474,o),
(1275,519,o),
(1275,631,cs),
(1275,675,o),
(1261,719,o),
(1238,753,c),
(1072,681,l),
(1083,668,o),
(1090,649,o),
(1090,629,cs),
(1090,570,o),
(1055,550,o),
(957,492,c),
(760,394,o),
(686,317,o),
(686,193,cs),
(686,78,o),
(767,-12,o),
(938,-12,cs),
(1124,-12,o),
(1207,77,o),
(1207,240,cs),
(1207,340,o),
(1164,425,o),
(1093,482,cs),
(1010,549,o),
(923,581,o),
(792,581,cs)
);
}
);
width = 1279;
}
);
unicode = 3439;
},
{
glyphname = tenmlym;
layers = (
{
background = {
shapes = (
{
closed = 1;
nodes = (
(194,569,l),
(194,107,ls),
(194,22,o),
(181,-12,o),
(153,-38,cs),
(130,-60,o),
(93,-70,o),
(40,-70,cs),
(14,-70,o),
(-7,-66,o),
(-23,-61,c),
(-39,-190,l),
(-5,-199,o),
(37,-201,o),
(65,-201,cs),
(179,-201,o),
(247,-175,o),
(297,-121,cs),
(352,-61,o),
(370,23,o),
(370,142,c),
(381,168,l),
(381,569,l)
);
},
{
closed = 1;
nodes = (
(1035,-12,o),
(1141,108,o),
(1141,270,cs),
(1141,395,o),
(1091,479,o),
(1002,581,c),
(863,500,l),
(925,414,o),
(951,353,o),
(951,274,cs),
(951,158,o),
(892,117,o),
(837,117,cs),
(806,117,o),
(788,127,o),
(776,141,cs),
(759,162,o),
(751,189,o),
(751,241,cs),
(751,569,l),
(564,569,l),
(564,265,ls),
(564,200,o),
(556,164,o),
(536,142,cs),
(521,126,o),
(501,117,o),
(473,117,cs),
(444,117,o),
(423,125,o),
(409,140,cs),
(389,161,o),
(381,196,o),
(381,259,cs),
(381,553,l),
(222,551,l),
(220,258,l),
(299,71,l),
(348,22,o),
(387,-12,o),
(473,-12,cs),
(565,-12,o),
(622,16,o),
(670,67,c),
(649,63,l),
(709,11,o),
(765,-12,o),
(854,-12,cs)
);
}
);
};
layerId = "2AD682F6-F6C7-4738-913E-50B961B61BC3";
shapes = (
{
closed = 1;
nodes = (
(194,569,l),
(194,107,ls),
(194,22,o),
(181,-12,o),
(153,-38,cs),
(130,-60,o),
(93,-70,o),
(40,-70,cs),
(14,-70,o),
(-7,-66,o),
(-23,-61,c),
(-39,-190,l),
(-5,-199,o),
(37,-201,o),
(65,-201,cs),
(179,-201,o),
(247,-175,o),
(297,-121,cs),
(352,-61,o),
(370,23,o),
(370,142,c),
(381,168,l),
(381,569,l)
);
},
{
closed = 1;
nodes = (
(1035,-12,o),
(1141,108,o),
(1141,270,cs),
(1141,395,o),
(1091,479,o),
(1002,581,c),
(863,500,l),
(925,414,o),
(951,353,o),
(951,274,cs),
(951,158,o),
(892,117,o),
(837,117,cs),
(806,117,o),
(788,127,o),
(776,141,cs),
(759,162,o),
(751,189,o),
(751,241,cs),
(751,569,l),
(564,569,l),
(564,265,ls),
(564,200,o),
(556,164,o),
(536,142,cs),
(521,126,o),
(501,117,o),
(473,117,cs),
(444,117,o),
(423,125,o),
(409,140,cs),
(389,161,o),
(381,196,o),
(381,259,cs),
(381,553,l),
(222,551,l),
(220,258,l),
(299,71,l),
(348,22,o),
(387,-12,o),
(473,-12,cs),
(565,-12,o),
(622,16,o),
(670,67,c),
(649,63,l),
(709,11,o),
(765,-12,o),
(854,-12,cs)
);
}
);
width = 1176;
}
);
unicode = 3440;
},
{
glyphname = hundredmlym;
layers = (
{
background = {
shapes = (
{
closed = 1;
nodes = (
(137,581,o),
(35,456,o),
(35,297,cs),
(35,174,o),
(79,90,o),
(173,-12,c),
(314,69,l),
(250,158,o),
(225,218,o),
(225,298,cs),
(225,409,o),
(287,452,o),
(344,452,cs),
(375,452,o),
(393,440,o),
(405,427,cs),
(424,406,o),
(428,370,o),
(428,320,cs),
(428,0,l),
(615,0,l),
(615,199,l),
(529,510,l),
(469,560,o),
(415,581,o),
(329,581,cs)
);
},
{
closed = 1;
nodes = (
(627,581,o),
(573,558,o),
(513,506,c),
(438,309,l),
(438,10,l),
(615,10,l),
(615,327,ls),
(615,380,o),
(619,406,o),
(638,428,cs),
(650,442,o),
(669,452,o),
(697,452,cs),
(773,452,o),
(820,366,o),
(820,232,cs),
(820,55,o),
(769,-70,o),
(571,-70,cs),
(534,-70,o),
(501,-68,o),
(472,-62,c),
(458,-191,l),
(501,-199,o),
(547,-201,o),
(591,-201,cs),
(896,-201,o),
(1010,-45,o),
(1010,228,cs),
(1010,451,o),
(907,581,o),
(712,581,cs)
);
}
);
};
layerId = "2AD682F6-F6C7-4738-913E-50B961B61BC3";
shapes = (
{
closed = 1;
nodes = (
(137,581,o),
(35,456,o),
(35,297,cs),
(35,174,o),
(79,90,o),
(173,-12,c),
(314,69,l),
(250,158,o),
(225,218,o),
(225,298,cs),
(225,409,o),
(287,452,o),
(344,452,cs),
(375,452,o),
(393,440,o),
(405,427,cs),
(424,406,o),
(428,370,o),
(428,320,cs),
(428,0,l),
(615,0,l),
(615,199,l),
(529,510,l),
(469,560,o),
(415,581,o),
(329,581,cs)
);
},
{
closed = 1;
nodes = (
(627,581,o),
(573,558,o),
(513,506,c),
(438,309,l),
(438,10,l),
(615,10,l),
(615,327,ls),
(615,380,o),
(619,406,o),
(638,428,cs),
(650,442,o),
(669,452,o),
(697,452,cs),
(773,452,o),
(820,366,o),
(820,232,cs),
(820,55,o),
(769,-70,o),
(571,-70,cs),
(534,-70,o),
(501,-68,o),
(472,-62,c),
(458,-191,l),
(501,-199,o),
(547,-201,o),
(591,-201,cs),
(896,-201,o),
(1010,-45,o),
(1010,228,cs),
(1010,451,o),
(907,581,o),
(712,581,cs)
);
}
);
width = 1048;
}
);
unicode = 3441;
},
{
glyphname = thousandmlym;
layers = (
{
background = {
shapes = (
{
closed = 1;
nodes = (
(1285,569,o),
(1198,515,o),
(1198,407,cs),
(1198,372,o),
(1214,329,o),
(1234,302,c),
(1399,309,l),
(1378,330,o),
(1358,355,o),
(1358,392,cs),
(1358,420,o),
(1373,444,o),
(1411,444,cs),
(1439,444,o),
(1456,428,o),
(1456,403,cs),
(1456,389,o),
(1451,378,o),
(1440,371,cs),
(1428,363,o),
(1414,360,o),
(1365,360,cs),
(1057,360,l),
(1057,232,l),
(1355,232,ls),
(1446,232,o),
(1503,237,o),
(1556,269,cs),
(1597,294,o),
(1623,339,o),
(1623,406,cs),
(1623,490,o),
(1565,569,o),
(1409,569,cs)
);
},
{
alignment = -1;
pos = (-3,0);
ref = datemarkmlym;
}
);
};
layerId = "2AD682F6-F6C7-4738-913E-50B961B61BC3";
shapes = (
{
closed = 1;
nodes = (
(1285,569,o),
(1198,515,o),
(1198,407,cs),
(1198,372,o),
(1214,329,o),
(1234,302,c),
(1399,309,l),
(1378,330,o),
(1358,355,o),
(1358,392,cs),
(1358,420,o),
(1373,444,o),
(1411,444,cs),
(1439,444,o),
(1456,428,o),
(1456,403,cs),
(1456,389,o),
(1451,378,o),
(1440,371,cs),
(1428,363,o),
(1414,360,o),
(1365,360,cs),
(1057,360,l),
(1057,232,l),
(1355,232,ls),
(1446,232,o),
(1503,237,o),
(1556,269,cs),
(1597,294,o),
(1623,339,o),
(1623,406,cs),
(1623,490,o),
(1565,569,o),
(1409,569,cs)
);
},
{
alignment = -1;
pos = (-3,0);
ref = datemarkmlym;
}
);
width = 1641;
}
);
unicode = 3442;
},
{
glyphname = onequartermlym;
layers = (
{
background = {
shapes = (
{
closed = 1;
nodes = (
(432,-12,o),
(506,61,o),
(506,180,cs),
(506,285,o),
(443,359,o),
(315,359,cs),
(230,359,o),
(171,321,o),
(118,276,c),
(139,156,l),
(193,215,o),
(222,240,o),
(267,240,cs),
(303,240,o),
(325,216,o),
(325,173,cs),
(325,128,o),
(306,108,o),
(273,108,cs),
(235,108,o),
(202,137,o),
(202,225,cs),
(202,243,o),
(202,261,o),
(204,278,c),
(209,308,l),
(228,345,o),
(256,369,o),
(302,384,cs),
(338,396,o),
(384,403,o),
(511,403,cs),
(804,403,l),
(804,534,l),
(492,534,ls),
(325,534,o),
(247,522,o),
(164,472,cs),
(79,421,o),
(33,342,o),
(33,234,cs),
(33,63,o),
(139,-12,o),
(278,-12,cs)
);
}
);
};
layerId = "2AD682F6-F6C7-4738-913E-50B961B61BC3";
shapes = (
{
closed = 1;
nodes = (
(432,-12,o),
(506,61,o),
(506,180,cs),
(506,285,o),
(443,359,o),
(315,359,cs),
(230,359,o),
(171,321,o),
(118,276,c),
(139,156,l),
(193,215,o),
(222,240,o),
(267,240,cs),
(303,240,o),
(325,216,o),
(325,173,cs),
(325,128,o),
(306,108,o),
(273,108,cs),
(235,108,o),
(202,137,o),
(202,225,cs),
(202,243,o),
(202,261,o),
(204,278,c),
(209,308,l),
(228,345,o),
(256,369,o),
(302,384,cs),
(338,396,o),
(384,403,o),
(511,403,cs),
(804,403,l),
(804,534,l),
(492,534,ls),
(325,534,o),
(247,522,o),
(164,472,cs),
(79,421,o),
(33,342,o),
(33,234,cs),
(33,63,o),
(139,-12,o),
(278,-12,cs)
);
}
);
width = 826;
}
);
unicode = 3443;
},
{
glyphname = onehalfmlym;
layers = (
{
background = {
shapes = (
{
closed = 1;
nodes = (
(533,789,l),
(533,273,ls),
(533,143,o),
(553,77,o),
(611,33,cs),
(650,3,o),
(705,-12,o),
(781,-12,cs),
(957,-12,o),
(1043,80,o),
(1043,225,cs),
(1043,447,o),
(850,557,o),
(661,574,c),
(614,577,l),
(584,580,o),
(553,581,o),
(524,581,cs),
(238,581,o),
(32,469,o),
(32,242,cs),
(32,63,o),
(138,-12,o),
(277,-12,cs),
(431,-12,o),
(505,61,o),
(505,180,cs),
(505,285,o),
(443,359,o),
(315,359,cs),
(229,359,o),
(170,321,o),
(117,276,c),
(138,156,l),
(192,215,o),
(221,240,o),
(266,240,cs),
(302,240,o),
(324,216,o),
(324,173,cs),
(324,128,o),
(305,108,o),
(272,108,cs),
(234,108,o),
(201,137,o),
(201,238,cs),
(201,254,ls),
(201,405,o),
(380,455,o),
(514,455,cs),
(544,455,o),
(576,453,o),
(607,448,c),
(649,442,l),
(758,421,o),
(853,348,o),
(853,214,cs),
(853,139,o),
(830,112,o),
(788,112,cs),
(765,112,o),
(750,120,o),
(739,135,cs),
(725,154,o),
(720,184,o),
(720,236,cs),
(720,789,l)
);
}
);
};
layerId = "2AD682F6-F6C7-4738-913E-50B961B61BC3";
shapes = (
{
closed = 1;
nodes = (
(533,789,l),
(533,273,ls),
(533,143,o),
(553,77,o),
(611,33,cs),
(650,3,o),
(705,-12,o),
(781,-12,cs),
(957,-12,o),
(1043,80,o),
(1043,225,cs),
(1043,447,o),
(850,557,o),
(661,574,c),
(614,577,l),
(584,580,o),
(553,581,o),
(524,581,cs),
(238,581,o),
(32,469,o),
(32,242,cs),
(32,63,o),
(138,-12,o),
(277,-12,cs),
(431,-12,o),
(505,61,o),
(505,180,cs),
(505,285,o),
(443,359,o),
(315,359,cs),
(229,359,o),
(170,321,o),
(117,276,c),
(138,156,l),
(192,215,o),
(221,240,o),
(266,240,cs),
(302,240,o),
(324,216,o),
(324,173,cs),
(324,128,o),
(305,108,o),
(272,108,cs),
(234,108,o),
(201,137,o),
(201,238,cs),
(201,254,ls),
(201,405,o),
(380,455,o),
(514,455,cs),
(544,455,o),
(576,453,o),
(607,448,c),
(649,442,l),
(758,421,o),
(853,348,o),
(853,214,cs),
(853,139,o),
(830,112,o),
(788,112,cs),
(765,112,o),
(750,120,o),
(739,135,cs),
(725,154,o),
(720,184,o),
(720,236,cs),
(720,789,l)
);
}
);
width = 1078;
}
);
unicode = 3444;
},
{
glyphname = threequartermlym;
layers = (
{
background = {
shapes = (
{
closed = 1;
nodes = (
(202,581,o),
(33,460,o),
(33,244,cs),
(33,63,o),
(139,-12,o),
(278,-12,cs),
(432,-12,o),
(506,61,o),
(506,180,cs),
(506,285,o),
(444,359,o),
(316,359,cs),
(230,359,o),
(171,321,o),
(118,276,c),
(139,156,l),
(193,215,o),
(222,240,o),
(267,240,cs),
(303,240,o),
(325,216,o),
(325,173,cs),
(325,127,o),
(306,108,o),
(273,108,cs),
(235,108,o),
(202,135,o),
(202,240,cs),
(202,244,ls),
(202,380,o),
(301,453,o),
(418,453,cs),
(469,453,o),
(505,443,o),
(529,424,cs),
(562,397,o),
(574,359,o),
(574,273,cs),
(574,0,l),
(761,0,l),
(761,229,l),
(726,385,l),
(704,480,l),
(629,553,o),
(547,581,o),
(422,581,cs)
);
},
{
closed = 1;
nodes = (
(760,581,o),
(692,532,o),
(632,470,c),
(584,312,l),
(584,29,l),
(761,29,l),
(761,254,ls),
(761,348,o),
(777,393,o),
(813,423,cs),
(837,443,o),
(871,457,o),
(936,457,cs),
(1009,457,o),
(1051,440,o),
(1092,406,cs),
(1142,365,o),
(1165,290,o),
(1165,229,cs),
(1165,166,o),
(1149,116,o),
(1087,116,cs),
(1040,116,o),
(1017,151,o),
(1017,196,cs),
(1017,271,o),
(1064,314,o),
(1206,390,cs),
(1364,474,o),
(1421,519,o),
(1421,631,cs),
(1421,675,o),
(1407,719,o),
(1384,753,c),
(1218,681,l),
(1229,668,o),
(1236,649,o),
(1236,629,cs),
(1236,570,o),
(1201,550,o),
(1103,492,c),
(906,394,o),
(832,317,o),
(832,193,cs),
(832,78,o),
(913,-12,o),
(1084,-12,cs),
(1270,-12,o),
(1353,77,o),
(1353,240,cs),
(1353,340,o),
(1310,425,o),
(1239,482,cs),
(1156,549,o),
(1069,581,o),
(938,581,cs)
);
}
);
};
layerId = "2AD682F6-F6C7-4738-913E-50B961B61BC3";
shapes = (
{
closed = 1;
nodes = (
(202,581,o),
(33,460,o),
(33,244,cs),
(33,63,o),
(139,-12,o),
(278,-12,cs),
(432,-12,o),
(506,61,o),
(506,180,cs),
(506,285,o),
(444,359,o),
(316,359,cs),
(230,359,o),
(171,321,o),
(118,276,c),
(139,156,l),
(193,215,o),
(222,240,o),
(267,240,cs),
(303,240,o),
(325,216,o),
(325,173,cs),
(325,127,o),
(306,108,o),
(273,108,cs),
(235,108,o),
(202,135,o),
(202,240,cs),
(202,244,ls),
(202,380,o),
(301,453,o),
(418,453,cs),
(469,453,o),
(505,443,o),
(529,424,cs),
(562,397,o),
(574,359,o),
(574,273,cs),
(574,0,l),
(761,0,l),
(761,229,l),
(726,385,l),
(704,480,l),
(629,553,o),
(547,581,o),
(422,581,cs)
);
},
{
closed = 1;
nodes = (
(760,581,o),
(692,532,o),
(632,470,c),
(584,312,l),
(584,29,l),
(761,29,l),
(761,254,ls),
(761,348,o),
(777,393,o),
(813,423,cs),
(837,443,o),
(871,457,o),
(936,457,cs),
(1009,457,o),
(1051,440,o),
(1092,406,c),
(1142,365,o),
(1165,290,o),
(1165,229,cs),
(1165,166,o),
(1149,116,o),
(1087,116,cs),
(1040,116,o),
(1017,151,o),
(1017,196,cs),
(1017,271,o),
(1064,314,o),
(1206,390,c),
(1364,474,o),
(1421,519,o),
(1421,631,cs),
(1421,675,o),
(1407,719,o),
(1384,753,c),
(1218,681,l),
(1229,668,o),
(1236,649,o),
(1236,629,cs),
(1236,570,o),
(1201,550,o),
(1103,492,c),
(906,394,o),
(832,317,o),
(832,193,cs),
(832,78,o),
(913,-12,o),
(1084,-12,cs),
(1270,-12,o),
(1353,77,o),
(1353,240,cs),
(1353,340,o),
(1310,425,o),
(1239,482,cs),
(1156,549,o),
(1069,581,o),
(938,581,cs)
);
}
);
width = 1425;
}
);
unicode = 3445;
},
{
glyphname = uni0D76;
layers = (
{
background = {
shapes = (
{
closed = 1;
nodes = (
(133,372,o),
(27,296,o),
(27,170,cs),
(27,97,o),
(60,37,o),
(108,-13,c),
(252,45,l),
(228,83,o),
(212,119,o),
(212,160,cs),
(212,210,o),
(236,245,o),
(287,245,cs),
(339,245,o),
(360,205,o),
(360,163,cs),
(360,123,o),
(343,92,o),
(329,70,c),
(392,0,l),
(773,0,l),
(769,128,l),
(521,128,l),
(518,76,l),
(531,105,o),
(538,143,o),
(538,173,cs),
(538,268,o),
(464,372,o),
(285,372,cs)
);
},
{
alignment = -1;
pos = (674,0);
ref = mamlym;
}
);
};
layerId = "2AD682F6-F6C7-4738-913E-50B961B61BC3";
shapes = (
{
closed = 1;
nodes = (
(133,372,o),
(27,296,o),
(27,170,cs),
(27,97,o),
(60,37,o),
(108,-13,c),
(252,45,l),
(228,83,o),
(212,119,o),
(212,160,cs),
(212,210,o),
(236,245,o),
(287,245,cs),
(339,245,o),
(360,205,o),
(360,163,cs),
(360,123,o),
(343,92,o),
(329,70,c),
(392,0,l),
(773,0,l),
(769,128,l),
(521,128,l),
(518,76,l),
(531,105,o),
(538,143,o),
(538,173,cs),
(538,268,o),
(464,372,o),
(285,372,cs)
);
},
{
alignment = -1;
pos = (674,0);
ref = mamlym;
}
);
width = 1529;
}
);
unicode = 3446;
},
{
glyphname = uni0D77;
layers = (
{
background = {
shapes = (
{
closed = 1;
nodes = (
(133,372,o),
(27,296,o),
(27,170,cs),
(27,97,o),
(60,37,o),
(108,-13,c),
(252,45,l),
(228,83,o),
(212,119,o),
(212,160,cs),
(212,210,o),
(236,245,o),
(287,245,cs),
(339,245,o),
(360,205,o),
(360,163,cs),
(360,123,o),
(343,92,o),
(329,70,c),
(392,0,l),
(792,0,l),
(790,128,l),
(521,128,l),
(518,76,l),
(531,105,o),
(538,143,o),
(538,173,cs),
(538,268,o),
(464,372,o),
(285,372,cs)
);
},
{
closed = 1;
nodes = (
(728,581,o),
(626,456,o),
(626,297,cs),
(626,223,o),
(643,166,o),
(690,104,c),
(751,0,l),
(853,0,l),
(901,65,l),
(841,157,o),
(816,218,o),
(816,298,cs),
(816,409,o),
(878,452,o),
(935,452,cs),
(966,452,o),
(984,440,o),
(996,427,cs),
(1015,406,o),
(1019,370,o),
(1019,320,cs),
(1019,230,l),
(1206,230,l),
(1206,251,l),
(1142,498,l),
(1075,556,o),
(1011,581,o),
(921,581,cs)
);
},
{
closed = 1;
nodes = (
(1235,581,o),
(1146,525,o),
(1100,480,c),
(1101,241,l),
(1206,234,l),
(1206,237,ls),
(1206,336,o),
(1225,388,o),
(1260,417,cs),
(1286,439,o),
(1320,451,o),
(1367,451,cs),
(1465,451,o),
(1536,407,o),
(1560,324,c),
(1563,291,l),
(1565,275,o),
(1566,259,o),
(1566,241,cs),
(1566,135,o),
(1533,112,o),
(1493,112,cs),
(1453,112,o),
(1437,136,o),
(1437,167,cs),
(1437,191,o),
(1446,206,o),
(1462,216,cs),
(1482,229,o),
(1508,232,o),
(1569,232,cs),
(1603,232,l),
(1603,360,l),
(1573,360,ls),
(1455,360,o),
(1397,352,o),
(1343,322,cs),
(1292,294,o),
(1255,243,o),
(1255,168,cs),
(1255,75,o),
(1309,-12,o),
(1484,-12,cs),
(1651,-12,o),
(1743,65,o),
(1743,244,cs),
(1743,449,o),
(1604,581,o),
(1371,581,cs)
);
},
{
closed = 1;
nodes = (
(1783,448,l),
(1785,442,o),
(1788,427,o),
(1788,418,cs),
(1788,398,o),
(1782,384,o),
(1770,375,cs),
(1755,364,o),
(1731,360,o),
(1693,360,cs),
(1594,360,l),
(1594,232,l),
(1709,232,ls),
(1796,232,o),
(1855,236,o),
(1907,269,cs),
(1948,295,o),
(1973,339,o),
(1973,402,cs),
(1973,432,o),
(1965,461,o),
(1959,479,c)
);
}
);
};
layerId = "2AD682F6-F6C7-4738-913E-50B961B61BC3";
shapes = (
{
closed = 1;
nodes = (
(133,372,o),
(27,296,o),
(27,170,cs),
(27,97,o),
(60,37,o),
(108,-13,c),
(252,45,l),
(228,83,o),
(212,119,o),
(212,160,cs),
(212,210,o),
(236,245,o),
(287,245,cs),
(339,245,o),
(360,205,o),
(360,163,cs),
(360,123,o),
(343,92,o),
(329,70,c),
(392,0,l),
(792,0,l),
(790,128,l),
(521,128,l),
(518,76,l),
(531,105,o),
(538,143,o),
(538,173,cs),
(538,268,o),
(464,372,o),
(285,372,cs)
);
},
{
closed = 1;
nodes = (
(728,581,o),
(626,456,o),
(626,297,cs),
(626,223,o),
(643,166,o),
(690,104,c),
(751,0,l),
(853,0,l),
(901,65,l),
(841,157,o),
(816,218,o),
(816,298,cs),
(816,409,o),
(878,452,o),
(935,452,cs),
(966,452,o),
(984,440,o),
(996,427,cs),
(1015,406,o),
(1019,370,o),
(1019,320,cs),
(1019,230,l),
(1206,230,l),
(1206,251,l),
(1142,498,l),
(1075,556,o),
(1011,581,o),
(921,581,cs)
);
},
{
closed = 1;
nodes = (
(1235,581,o),
(1146,525,o),
(1100,480,c),
(1101,241,l),
(1206,234,l),
(1206,237,ls),
(1206,336,o),
(1225,388,o),
(1260,417,cs),
(1286,439,o),
(1320,451,o),
(1367,451,cs),
(1465,451,o),
(1536,407,o),
(1560,324,c),
(1563,291,l),
(1565,275,o),
(1566,259,o),
(1566,241,cs),
(1566,135,o),
(1533,112,o),
(1493,112,cs),
(1453,112,o),
(1437,136,o),
(1437,167,cs),
(1437,191,o),
(1446,206,o),
(1462,216,cs),
(1482,229,o),
(1508,232,o),
(1569,232,cs),
(1603,232,l),
(1603,360,l),
(1573,360,ls),
(1455,360,o),
(1397,352,o),
(1343,322,cs),
(1292,294,o),
(1255,243,o),
(1255,168,cs),
(1255,75,o),
(1309,-12,o),
(1484,-12,cs),
(1651,-12,o),
(1743,65,o),
(1743,244,cs),
(1743,449,o),
(1604,581,o),
(1371,581,cs)
);
},
{
closed = 1;
nodes = (
(1783,448,l),
(1785,442,o),
(1788,427,o),
(1788,418,cs),
(1788,398,o),
(1782,384,o),
(1770,375,cs),
(1755,364,o),
(1731,360,o),
(1693,360,cs),
(1594,360,l),
(1594,232,l),
(1709,232,ls),
(1796,232,o),
(1855,236,o),
(1907,269,cs),
(1948,295,o),
(1973,339,o),
(1973,402,cs),
(1973,432,o),
(1965,461,o),
(1959,479,c)
);
}
);
width = 1992;
}
);
unicode = 3447;
},
{
glyphname = uni0D78;
layers = (
{
background = {
shapes = (
{
closed = 1;
nodes = (
(1483,581,o),
(1415,561,o),
(1367,516,cs),
(1322,473,o),
(1302,413,o),
(1302,305,cs),
(1302,270,ls),
(1302,206,o),
(1298,168,o),
(1280,144,cs),
(1267,127,o),
(1248,117,o),
(1219,117,cs),
(1194,117,o),
(1177,124,o),
(1164,137,cs),
(1142,159,o),
(1137,191,o),
(1137,271,cs),
(1137,303,ls),
(1137,416,o),
(1117,472,o),
(1073,515,cs),
(1028,559,o),
(959,581,o),
(866,581,cs),
(772,581,o),
(704,561,o),
(656,516,cs),
(611,473,o),
(590,413,o),
(590,305,cs),
(590,276,ls),
(590,201,o),
(585,162,o),
(560,138,cs),
(547,126,o),
(530,117,o),
(502,117,cs),
(474,117,o),
(456,124,o),
(440,140,cs),
(419,161,o),
(415,194,o),
(415,256,cs),
(415,569,l),
(228,569,l),
(228,241,ls),
(228,189,o),
(221,161,o),
(203,141,cs),
(191,127,o),
(173,117,o),
(140,117,cs),
(105,117,o),
(76,129,o),
(52,142,c),
(8,25,l),
(54,0,o),
(96,-12,o),
(150,-12,cs),
(232,-12,o),
(271,6,o),
(330,63,c),
(314,68,l),
(370,12,o),
(431,-12,o),
(524,-12,cs),
(595,-12,o),
(655,6,o),
(701,43,cs),
(758,89,o),
(781,158,o),
(781,266,cs),
(781,295,ls),
(781,363,o),
(785,401,o),
(803,425,cs),
(816,442,o),
(835,452,o),
(864,452,cs),
(889,452,o),
(906,445,o),
(919,432,cs),
(941,410,o),
(946,378,o),
(946,296,cs),
(946,265,ls),
(946,153,o),
(966,96,o),
(1010,53,cs),
(1055,9,o),
(1118,-12,o),
(1217,-12,cs),
(1314,-12,o),
(1381,8,o),
(1428,54,cs),
(1472,97,o),
(1492,157,o),
(1492,265,cs),
(1492,295,ls),
(1492,363,o),
(1496,401,o),
(1514,425,cs),
(1527,442,o),
(1546,452,o),
(1575,452,cs),
(1600,452,o),
(1617,445,o),
(1630,432,cs),
(1652,410,o),
(1657,378,o),
(1657,296,cs),
(1657,230,l),
(1844,230,l),
(1844,276,ls),
(1844,340,o),
(1854,385,o),
(1870,409,cs),
(1886,434,o),
(1906,448,o),
(1936,448,cs),
(1969,448,o),
(1981,421,o),
(1981,387,cs),
(1981,289,o),
(1919,204,o),
(1838,122,c),
(1838,0,l),
(2406,0,l),
(2406,245,ls),
(2406,390,o),
(2370,454,o),
(2302,507,cs),
(2236,558,o),
(2140,581,o),
(2017,581,cs),
(1905,581,o),
(1814,553,o),
(1747,493,c),
(1781,488,l),
(1726,549,o),
(1665,581,o),
(1567,581,cs)
);
},
{
closed = 1;
nodes = (
(2166,412,o),
(2150,443,o),
(2122,470,c),
(2120,459,l),
(2192,427,o),
(2220,371,o),
(2220,240,cs),
(2220,127,l),
(2116,127,ls),
(2082,127,o),
(2052,127,o),
(2023,122,c),
(2041,120,l),
(2115,194,o),
(2166,271,o),
(2166,363,cs)
);
}
);
};
layerId = "2AD682F6-F6C7-4738-913E-50B961B61BC3";
shapes = (
{
closed = 1;
nodes = (
(1483,581,o),
(1415,561,o),
(1367,516,cs),
(1322,473,o),
(1302,413,o),
(1302,305,cs),
(1302,270,ls),
(1302,206,o),
(1298,168,o),
(1280,144,cs),
(1267,127,o),
(1248,117,o),
(1219,117,cs),
(1194,117,o),
(1177,124,o),
(1164,137,cs),
(1142,159,o),
(1137,191,o),
(1137,271,cs),
(1137,303,ls),
(1137,416,o),
(1117,472,o),
(1073,515,cs),
(1028,559,o),
(959,581,o),
(866,581,cs),
(772,581,o),
(704,561,o),
(656,516,cs),
(611,473,o),
(590,413,o),
(590,305,cs),
(590,276,ls),
(590,201,o),
(585,162,o),
(560,138,cs),
(547,126,o),
(530,117,o),
(502,117,cs),
(474,117,o),
(456,124,o),
(440,140,cs),
(419,161,o),
(415,194,o),
(415,256,cs),
(415,569,l),
(228,569,l),
(228,241,ls),
(228,189,o),
(221,161,o),
(203,141,cs),
(191,127,o),
(173,117,o),
(140,117,cs),
(105,117,o),
(76,129,o),
(52,142,c),
(8,25,l),
(54,0,o),
(96,-12,o),
(150,-12,cs),
(232,-12,o),
(271,6,o),
(330,63,c),
(314,68,l),
(370,12,o),
(431,-12,o),
(524,-12,cs),
(595,-12,o),
(655,6,o),
(701,43,cs),
(758,89,o),
(781,158,o),
(781,266,cs),
(781,295,ls),
(781,363,o),
(785,401,o),
(803,425,cs),
(816,442,o),
(835,452,o),
(864,452,cs),
(889,452,o),
(906,445,o),
(919,432,cs),
(941,410,o),
(946,378,o),
(946,296,cs),
(946,265,ls),
(946,153,o),
(966,96,o),
(1010,53,cs),
(1055,9,o),
(1118,-12,o),
(1217,-12,cs),
(1314,-12,o),
(1381,8,o),
(1428,54,cs),
(1472,97,o),
(1492,157,o),
(1492,265,cs),
(1492,295,ls),
(1492,363,o),
(1496,401,o),
(1514,425,cs),
(1527,442,o),
(1546,452,o),
(1575,452,cs),
(1600,452,o),
(1617,445,o),
(1630,432,cs),
(1652,410,o),
(1657,378,o),
(1657,296,cs),
(1657,230,l),
(1844,230,l),
(1844,276,ls),
(1844,340,o),
(1854,385,o),
(1870,409,cs),
(1886,434,o),
(1906,448,o),
(1936,448,cs),
(1969,448,o),
(1981,421,o),
(1981,387,cs),
(1981,289,o),
(1919,204,o),
(1838,122,c),
(1838,0,l),
(2406,0,l),
(2406,245,ls),
(2406,390,o),
(2370,454,o),
(2302,507,cs),
(2236,558,o),
(2140,581,o),
(2017,581,cs),
(1905,581,o),
(1814,553,o),
(1747,493,c),
(1781,488,l),
(1726,549,o),
(1665,581,o),
(1567,581,cs)
);
},
{
closed = 1;
nodes = (
(2166,412,o),
(2150,443,o),
(2122,470,c),
(2120,459,l),
(2192,427,o),
(2220,371,o),
(2220,240,cs),
(2220,127,l),
(2116,127,ls),
(2082,127,o),
(2052,127,o),
(2023,122,c),
(2041,120,l),
(2115,194,o),
(2166,271,o),
(2166,363,cs)
);
}
);
width = 2457;
}
);
unicode = 3448;
},
{
glyphname = datemarkmlym;
layers = (
{
background = {
shapes = (
{
closed = 1;
nodes = (
(137,581,o),
(35,456,o),
(35,297,cs),
(35,174,o),
(79,90,o),
(173,-12,c),
(314,69,l),
(250,158,o),
(225,218,o),
(225,298,cs),
(225,409,o),
(287,452,o),
(344,452,cs),
(375,452,o),
(393,440,o),
(405,427,cs),
(424,406,o),
(428,370,o),
(428,320,cs),
(428,0,l),
(615,0,l),
(615,224,l),
(551,498,l),
(484,556,o),
(420,581,o),
(329,581,cs)
);
},
{
closed = 1;
nodes = (
(644,581,o),
(555,525,o),
(509,480,c),
(510,241,l),
(615,183,l),
(615,237,ls),
(615,336,o),
(634,388,o),
(669,417,cs),
(695,439,o),
(729,451,o),
(776,451,cs),
(871,451,o),
(944,410,o),
(965,324,c),
(968,291,l),
(970,275,o),
(971,259,o),
(971,241,cs),
(971,140,o),
(940,112,o),
(898,112,cs),
(862,112,o),
(846,136,o),
(846,167,cs),
(846,191,o),
(855,206,o),
(871,216,cs),
(891,229,o),
(917,232,o),
(978,232,cs),
(1263,232,l),
(1263,360,l),
(982,360,ls),
(864,360,o),
(806,352,o),
(752,322,cs),
(701,294,o),
(664,243,o),
(664,168,cs),
(664,75,o),
(718,-12,o),
(893,-12,cs),
(1060,-12,o),
(1152,65,o),
(1152,244,cs),
(1152,449,o),
(1005,581,o),
(780,581,cs)
);
}
);
};
layerId = "2AD682F6-F6C7-4738-913E-50B961B61BC3";
shapes = (
{
closed = 1;
nodes = (
(137,581,o),
(35,456,o),
(35,297,cs),
(35,174,o),
(79,90,o),
(173,-12,c),
(314,69,l),
(250,158,o),
(225,218,o),
(225,298,cs),
(225,409,o),
(287,452,o),
(344,452,cs),
(375,452,o),
(393,440,o),
(405,427,cs),
(424,406,o),
(428,370,o),
(428,320,cs),
(428,0,l),
(615,0,l),
(615,224,l),
(551,498,l),
(484,556,o),
(420,581,o),
(329,581,cs)
);
},
{
closed = 1;
nodes = (
(644,581,o),
(555,525,o),
(509,480,c),
(510,241,l),
(615,183,l),
(615,237,ls),
(615,336,o),
(634,388,o),
(669,417,cs),
(695,439,o),
(729,451,o),
(776,451,cs),
(871,451,o),
(944,410,o),
(965,324,c),
(968,291,l),
(970,275,o),
(971,259,o),
(971,241,cs),
(971,140,o),
(940,112,o),
(898,112,cs),
(862,112,o),
(846,136,o),
(846,167,cs),
(846,191,o),
(855,206,o),
(871,216,cs),
(891,229,o),
(917,232,o),
(978,232,cs),
(1263,232,l),
(1263,360,l),
(982,360,ls),
(864,360,o),
(806,352,o),
(752,322,cs),
(701,294,o),
(664,243,o),
(664,168,cs),
(664,75,o),
(718,-12,o),
(893,-12,cs),
(1060,-12,o),
(1152,65,o),
(1152,244,cs),
(1152,449,o),
(1005,581,o),
(780,581,cs)
);
}
);
width = 1285;
}
);
unicode = 3449;
},
{
glyphname = nnachillumlym;
layers = (
{
anchors = (
{
name = b.uni0D00;
pos = (877,0);
},
{
name = virama;
pos = (1691,709);
}
);
background = {
shapes = (
{
closed = 1;
nodes = (
(202,581,o),
(33,460,o),
(33,245,cs),
(33,63,o),
(139,-12,o),
(278,-12,cs),
(432,-12,o),
(506,61,o),
(506,179,cs),
(506,285,o),
(444,359,o),
(316,359,cs),
(230,359,o),
(171,321,o),
(118,276,c),
(139,156,l),
(193,215,o),
(222,240,o),
(267,240,cs),
(303,240,o),
(325,216,o),
(325,173,cs),
(325,127,o),
(306,108,o),
(273,108,cs),
(235,108,o),
(202,135,o),
(202,240,cs),
(202,244,ls),
(202,380,o),
(301,453,o),
(418,453,cs),
(469,453,o),
(505,443,o),
(529,424,cs),
(562,397,o),
(574,359,o),
(574,273,cs),
(574,0,l),
(761,0,l),
(761,305,ls),
(761,369,o),
(769,405,o),
(789,427,cs),
(804,443,o),
(824,452,o),
(852,452,cs),
(881,452,o),
(902,444,o),
(916,429,cs),
(936,408,o),
(944,373,o),
(944,313,cs),
(944,0,l),
(1131,0,l),
(1131,208,l),
(1056,420,l),
(1045,510,l),
(987,559,o),
(930,581,o),
(852,581,cs),
(760,581,o),
(703,553,o),
(655,502,c),
(704,480,l),
(629,553,o),
(547,581,o),
(422,581,cs)
);
},
{
closed = 1;
nodes = (
(1648,-12,o),
(1721,78,o),
(1721,233,cs),
(1721,367,o),
(1641,478,o),
(1530,533,cs),
(1515,540,o),
(1500,546,o),
(1484,552,cs),
(1431,572,o),
(1373,581,o),
(1298,581,cs),
(1130,581,o),
(1060,533,o),
(1000,471,c),
(964,232,l),
(964,20,l),
(1131,20,l),
(1131,254,ls),
(1131,348,o),
(1145,395,o),
(1181,425,cs),
(1205,445,o),
(1239,457,o),
(1301,457,cs),
(1364,457,o),
(1400,448,o),
(1430,432,cs),
(1499,395,o),
(1533,304,o),
(1533,223,cs),
(1533,146,o),
(1511,116,o),
(1467,116,cs),
(1408,116,o),
(1399,168,o),
(1399,219,cs),
(1399,311,o),
(1452,390,o),
(1514,440,c),
(1540,471,l),
(1614,535,o),
(1654,583,o),
(1654,659,cs),
(1654,729,o),
(1620,803,o),
(1472,803,cs),
(1417,803,o),
(1359,794,o),
(1321,782,c),
(1351,668,l),
(1365,671,o),
(1388,676,o),
(1418,676,cs),
(1453,676,o),
(1470,662,o),
(1470,635,cs),
(1470,591,o),
(1443,568,o),
(1406,536,c),
(1372,494,l),
(1268,408,o),
(1214,335,o),
(1214,224,cs),
(1214,78,o),
(1295,-12,o),
(1466,-12,cs)
);
}
);
};
layerId = "2AD682F6-F6C7-4738-913E-50B961B61BC3";
shapes = (
{
closed = 1;
nodes = (
(202,581,o),
(33,460,o),
(33,245,cs),
(33,63,o),
(139,-12,o),
(278,-12,cs),
(432,-12,o),
(506,61,o),
(506,179,cs),
(506,285,o),
(444,359,o),
(316,359,cs),
(230,359,o),
(171,321,o),
(118,276,c),
(139,156,l),
(193,215,o),
(222,240,o),
(267,240,cs),
(303,240,o),
(325,216,o),
(325,173,cs),
(325,127,o),
(306,108,o),
(273,108,cs),
(235,108,o),
(202,135,o),
(202,240,cs),
(202,244,ls),
(202,380,o),
(301,453,o),
(418,453,cs),
(469,453,o),
(505,443,o),
(529,424,cs),
(562,397,o),
(574,359,o),
(574,273,cs),
(574,0,l),
(761,0,l),
(761,305,ls),
(761,369,o),
(769,405,o),
(789,427,cs),
(804,443,o),
(824,452,o),
(852,452,cs),
(881,452,o),
(902,444,o),
(916,429,cs),
(936,408,o),
(944,373,o),
(944,313,cs),
(944,0,l),
(1131,0,l),
(1131,208,l),
(1056,420,l),
(1045,510,l),
(987,559,o),
(930,581,o),
(852,581,cs),
(760,581,o),
(703,553,o),
(655,502,c),
(704,480,l),
(629,553,o),
(547,581,o),
(422,581,cs)
);
},
{
closed = 1;
nodes = (
(1648,-12,o),
(1721,78,o),
(1721,233,cs),
(1721,367,o),
(1641,478,o),
(1530,533,cs),
(1515,540,o),
(1500,546,o),
(1484,552,cs),
(1431,572,o),
(1373,581,o),
(1298,581,cs),
(1130,581,o),
(1060,533,o),
(1000,471,c),
(964,232,l),
(964,20,l),
(1131,20,l),
(1131,254,ls),
(1131,348,o),
(1145,395,o),
(1181,425,cs),
(1205,445,o),
(1239,457,o),
(1301,457,cs),
(1364,457,o),
(1400,448,o),
(1430,432,cs),
(1499,395,o),
(1533,304,o),
(1533,223,cs),
(1533,146,o),
(1511,116,o),
(1467,116,cs),
(1408,116,o),
(1399,168,o),
(1399,219,cs),
(1399,311,o),
(1452,390,o),
(1514,440,c),
(1540,471,l),
(1614,535,o),
(1654,583,o),
(1654,659,cs),
(1654,729,o),
(1620,803,o),
(1472,803,cs),
(1417,803,o),
(1359,794,o),
(1321,782,c),
(1351,668,l),
(1365,671,o),
(1388,676,o),
(1418,676,cs),
(1453,676,o),
(1470,662,o),
(1470,635,cs),
(1470,591,o),
(1443,568,o),
(1406,536,c),
(1372,494,l),
(1268,408,o),
(1214,335,o),
(1214,224,cs),
(1214,78,o),
(1295,-12,o),
(1466,-12,cs)
);
}
);
width = 1755;
}
);
unicode = 3450;
},
{
glyphname = nachillumlym;
layers = (
{
anchors = (
{
name = b.uni0D00;
pos = (618,0);
},
{
name = virama;
pos = (1181,709);
}
);
background = {
shapes = (
{
closed = 1;
nodes = (
(137,581,o),
(35,456,o),
(35,297,cs),
(35,174,o),
(79,90,o),
(173,-12,c),
(314,69,l),
(250,158,o),
(225,218,o),
(225,298,cs),
(225,409,o),
(287,452,o),
(344,452,cs),
(375,452,o),
(393,440,o),
(405,427,cs),
(424,406,o),
(428,370,o),
(428,320,cs),
(428,0,l),
(615,0,l),
(615,199,l),
(529,510,l),
(469,560,o),
(415,581,o),
(329,581,cs)
);
},
{
closed = 1;
nodes = (
(1132,-12,o),
(1205,78,o),
(1205,233,cs),
(1205,367,o),
(1125,478,o),
(1014,533,cs),
(999,540,o),
(984,546,o),
(968,552,cs),
(915,572,o),
(857,581,o),
(782,581,cs),
(614,581,o),
(544,533,o),
(484,471,c),
(448,232,l),
(448,20,l),
(615,20,l),
(615,254,ls),
(615,348,o),
(629,395,o),
(665,425,cs),
(689,445,o),
(723,457,o),
(785,457,cs),
(848,457,o),
(884,448,o),
(914,432,cs),
(983,395,o),
(1017,304,o),
(1017,223,cs),
(1017,146,o),
(995,116,o),
(951,116,cs),
(892,116,o),
(883,168,o),
(883,219,cs),
(883,311,o),
(936,390,o),
(998,440,c),
(1024,471,l),
(1098,535,o),
(1138,583,o),
(1138,659,cs),
(1138,729,o),
(1104,803,o),
(956,803,cs),
(901,803,o),
(843,794,o),
(805,782,c),
(835,668,l),
(849,671,o),
(872,676,o),
(902,676,cs),
(937,676,o),
(954,662,o),
(954,635,cs),
(954,591,o),
(927,568,o),
(890,536,c),
(856,494,l),
(752,408,o),
(698,335,o),
(698,224,cs),
(698,78,o),
(779,-12,o),
(950,-12,cs)
);
}
);
};
layerId = "2AD682F6-F6C7-4738-913E-50B961B61BC3";
shapes = (
{
closed = 1;
nodes = (
(137,581,o),
(35,456,o),
(35,297,cs),
(35,174,o),
(79,90,o),
(173,-12,c),
(314,69,l),
(250,158,o),
(225,218,o),
(225,298,cs),
(225,409,o),
(287,452,o),
(344,452,cs),
(375,452,o),
(393,440,o),
(405,427,cs),
(424,406,o),
(428,370,o),
(428,320,cs),
(428,0,l),
(615,0,l),
(615,199,l),
(529,510,l),
(469,560,o),
(415,581,o),
(329,581,cs)
);
},
{
closed = 1;
nodes = (
(1132,-12,o),
(1205,78,o),
(1205,233,cs),
(1205,367,o),
(1125,478,o),
(1014,533,cs),
(999,540,o),
(984,546,o),
(968,552,cs),
(915,572,o),
(857,581,o),
(782,581,cs),
(614,581,o),
(544,533,o),
(484,471,c),
(448,232,l),
(448,20,l),
(615,20,l),
(615,254,ls),
(615,348,o),
(629,395,o),
(665,425,cs),
(689,445,o),
(723,457,o),
(785,457,cs),
(848,457,o),
(884,448,o),
(914,432,cs),
(983,395,o),
(1017,304,o),
(1017,223,cs),
(1017,146,o),
(995,116,o),
(951,116,cs),
(892,116,o),
(883,168,o),
(883,219,cs),
(883,311,o),
(936,390,o),
(998,440,c),
(1024,471,l),
(1098,535,o),
(1138,583,o),
(1138,659,cs),
(1138,729,o),
(1104,803,o),
(956,803,cs),
(901,803,o),
(843,794,o),
(805,782,c),
(835,668,l),
(849,671,o),
(872,676,o),
(902,676,cs),
(937,676,o),
(954,662,o),
(954,635,cs),
(954,591,o),
(927,568,o),
(890,536,c),
(856,494,l),
(752,408,o),
(698,335,o),
(698,224,cs),
(698,78,o),
(779,-12,o),
(950,-12,cs)
);
}
);
width = 1237;
}
);
unicode = 3451;
},
{
glyphname = rrachillumlym;
lastChange = "2025-02-13 06:49:04 +0000";
layers = (
{
anchors = (
{
name = b.uni0D00;
pos = (619,0);
},
{
name = virama;
pos = (791,709);
}
);
background = {
shapes = (
{
closed = 1;
nodes = (
(757,-12,o),
(830,78,o),
(830,233,cs),
(830,367,o),
(750,478,o),
(639,533,cs),
(624,540,o),
(609,546,o),
(593,552,cs),
(540,572,o),
(482,581,o),
(418,581,cs),
(134,581,o),
(35,431,o),
(35,284,cs),
(35,154,o),
(94,65,o),
(181,-12,c),
(320,69,l),
(260,139,o),
(227,201,o),
(227,281,cs),
(227,394,o),
(302,456,o),
(430,456,cs),
(473,456,o),
(509,448,o),
(539,432,cs),
(608,395,o),
(642,304,o),
(642,223,cs),
(642,146,o),
(620,116,o),
(576,116,cs),
(517,116,o),
(508,168,o),
(508,219,cs),
(508,311,o),
(561,390,o),
(623,440,c),
(649,471,l),
(723,535,o),
(763,583,o),
(763,659,cs),
(763,729,o),
(729,803,o),
(581,803,cs),
(526,803,o),
(468,794,o),
(430,782,c),
(460,668,l),
(474,671,o),
(497,676,o),
(527,676,cs),
(562,676,o),
(579,662,o),
(579,635,cs),
(579,591,o),
(552,568,o),
(515,536,c),
(481,494,l),
(377,408,o),
(323,335,o),
(323,224,cs),
(323,78,o),
(404,-12,o),
(575,-12,cs)
);
}
);
};
layerId = "2AD682F6-F6C7-4738-913E-50B961B61BC3";
shapes = (
{
closed = 1;
nodes = (
(434,301,l),
(435,92,l),
(579,92,l),
(579,358,l),
(579,364,l),
(579,449,l),
(421,677,l),
(117,237,l),
(117,1,l),
(25,1,l),
(25,269,l),
(372,771,ls),
(400,813,o),
(440,815,o),
(469,771,cs),
(671,480,l),
(671,1,l),
(351,1,l),
(348,324,l),
(613,704,l),
(501,869,ls),
(489,887,o),
(488,917,o),
(512,933,cs),
(512,933,ls),
(538,950,o),
(564,938,o),
(577,919,cs),
(720,714,l)
);
}
);
width = 730;
}
);
unicode = 3452;
},
{
glyphname = lachillumlym;
lastChange = "2025-02-13 06:43:34 +0000";
layers = (
{
anchors = (
{
name = b.uni0D00;
pos = (708,0);
},
{
name = virama;
pos = (1351,709);
}
);
background = {
shapes = (
{
closed = 1;
nodes = (
(732,581,o),
(639,563,o),
(552,525,c),
(517,496,l),
(412,437,o),
(333,350,o),
(333,223,cs),
(333,73,o),
(425,-12,o),
(590,-12,cs),
(757,-12,o),
(846,63,o),
(846,226,cs),
(846,364,o),
(786,440,o),
(683,496,c),
(646,532,l),
(575,566,o),
(503,581,o),
(412,581,cs),
(122,581,o),
(35,417,o),
(35,284,cs),
(35,154,o),
(94,65,o),
(181,-12,c),
(317,68,l),
(256,141,o),
(224,201,o),
(224,281,cs),
(224,384,o),
(279,457,o),
(427,457,cs),
(455,457,o),
(482,453,o),
(507,445,cs),
(537,435,l),
(608,402,o),
(659,325,o),
(659,230,cs),
(659,141,o),
(626,116,o),
(589,116,cs),
(553,116,o),
(520,144,o),
(520,225,cs),
(520,306,o),
(566,370,o),
(637,408,c),
(692,428,ls),
(741,445,o),
(797,453,o),
(855,453,cs),
(927,453,o),
(988,443,o),
(1037,425,c),
(1077,412,l),
(1155,368,o),
(1196,296,o),
(1196,215,cs),
(1196,146,o),
(1174,116,o),
(1130,116,cs),
(1071,116,o),
(1062,168,o),
(1062,219,cs),
(1062,311,o),
(1115,390,o),
(1177,440,c),
(1203,471,l),
(1277,535,o),
(1317,583,o),
(1317,659,cs),
(1317,729,o),
(1283,803,o),
(1135,803,cs),
(1080,803,o),
(1022,794,o),
(984,782,c),
(1014,668,l),
(1028,671,o),
(1051,676,o),
(1081,676,cs),
(1116,676,o),
(1133,662,o),
(1133,635,cs),
(1133,591,o),
(1106,568,o),
(1069,536,c),
(1035,494,l),
(931,408,o),
(877,335,o),
(877,224,cs),
(877,78,o),
(958,-12,o),
(1129,-12,cs),
(1311,-12,o),
(1384,78,o),
(1384,227,cs),
(1384,367,o),
(1301,466,o),
(1172,521,cs),
(1128,540,l),
(1046,571,o),
(955,581,o),
(856,581,cs)
);
}
);
};
layerId = "2AD682F6-F6C7-4738-913E-50B961B61BC3";
shapes = (
{
closed = 1;
nodes = (
(722,752,l),
(722,92,l),
(815,92,l),
(815,241,l),
(757,326,l),
(554,326,l),
(554,1,l),
(278,1,l),
(278,357,l),
(311,405,l),
(477,405,l),
(477,326,l),
(370,326,l),
(370,92,l),
(463,91,l),
(464,614,l),
(421,677,l),
(117,237,l),
(117,1,l),
(25,1,l),
(25,269,l),
(373,771,ls),
(400,810,o),
(440,817,o),
(469,771,c),
(554,649,l),
(554,405,l),
(814,405,l),
(907,271,l),
(907,1,l),
(630,1,l),
(630,720,l),
(530,871,ls),
(518,889,o),
(517,919,o),
(541,935,cs),
(541,935,ls),
(567,952,o),
(593,940,o),
(606,922,cs)
);
}
);
width = 932;
}
);
unicode = 3453;
},
{
glyphname = llachillumlym;
layers = (
{
anchors = (
{
name = b.uni0D00;
pos = (605,0);
},
{
name = virama;
pos = (1151,709);
}
);
background = {
shapes = (
{
closed = 1;
nodes = (
(874,803,o),
(816,794,o),
(778,782,c),
(808,668,l),
(822,671,o),
(845,676,o),
(875,676,cs),
(910,676,o),
(927,662,o),
(927,635,cs),
(927,591,o),
(900,568,o),
(863,536,c),
(829,494,l),
(725,408,o),
(671,335,o),
(671,224,cs),
(671,78,o),
(752,-12,o),
(923,-12,cs),
(1105,-12,o),
(1178,78,o),
(1178,233,cs),
(1178,367,o),
(1098,478,o),
(987,533,c),
(941,552,l),
(888,572,o),
(835,581,o),
(770,581,cs),
(654,581,o),
(568,559,o),
(511,515,cs),
(436,457,o),
(411,387,o),
(411,263,cs),
(411,247,ls),
(411,206,o),
(409,161,o),
(384,137,cs),
(371,124,o),
(355,117,o),
(327,117,cs),
(274,117,o),
(225,154,o),
(225,273,cs),
(225,353,o),
(251,414,o),
(313,500,c),
(174,581,l),
(85,479,o),
(35,395,o),
(35,269,cs),
(35,103,o),
(142,-12,o),
(323,-12,cs),
(419,-12,o),
(477,7,o),
(523,44,cs),
(580,90,o),
(602,160,o),
(602,267,cs),
(602,273,ls),
(602,343,o),
(615,388,o),
(652,421,cs),
(678,444,o),
(715,458,o),
(770,458,cs),
(820,458,o),
(857,448,o),
(887,432,cs),
(956,395,o),
(990,304,o),
(990,223,cs),
(990,146,o),
(968,116,o),
(924,116,cs),
(865,116,o),
(856,168,o),
(856,219,cs),
(856,311,o),
(909,390,o),
(971,440,c),
(997,471,l),
(1071,535,o),
(1111,583,o),
(1111,659,cs),
(1111,729,o),
(1077,803,o),
(929,803,cs)
);
}
);
};
layerId = "2AD682F6-F6C7-4738-913E-50B961B61BC3";
shapes = (
{
closed = 1;
nodes = (
(874,803,o),
(816,794,o),
(778,782,c),
(808,668,l),
(822,671,o),
(845,676,o),
(875,676,cs),
(910,676,o),
(927,662,o),
(927,635,cs),
(927,591,o),
(900,568,o),
(863,536,c),
(829,494,l),
(725,408,o),
(671,335,o),
(671,224,cs),
(671,78,o),
(752,-12,o),
(923,-12,cs),
(1105,-12,o),
(1178,78,o),
(1178,233,cs),
(1178,367,o),
(1098,478,o),
(987,533,c),
(941,552,l),
(888,572,o),
(835,581,o),
(770,581,cs),
(654,581,o),
(568,559,o),
(511,515,cs),
(436,457,o),
(411,387,o),
(411,263,cs),
(411,247,ls),
(411,206,o),
(409,161,o),
(384,137,cs),
(371,124,o),
(355,117,o),
(327,117,cs),
(274,117,o),
(225,154,o),
(225,273,cs),
(225,353,o),
(251,414,o),
(313,500,c),
(174,581,l),
(85,479,o),
(35,395,o),
(35,269,cs),
(35,103,o),
(142,-12,o),
(323,-12,cs),
(419,-12,o),
(477,7,o),
(523,44,cs),
(580,90,o),
(602,160,o),
(602,267,cs),
(602,273,ls),
(602,343,o),
(615,388,o),
(652,421,cs),
(678,444,o),
(715,458,o),
(770,458,cs),
(820,458,o),
(857,448,o),
(887,432,cs),
(956,395,o),
(990,304,o),
(990,223,cs),
(990,146,o),
(968,116,o),
(924,116,cs),
(865,116,o),
(856,168,o),
(856,219,cs),
(856,311,o),
(909,390,o),
(971,440,c),
(997,471,l),
(1071,535,o),
(1111,583,o),
(1111,659,cs),
(1111,729,o),
(1077,803,o),
(929,803,cs)
);
}
);
width = 1210;
}
);
unicode = 3454;
},
{
glyphname = kachillumlym;
layers = (
{
anchors = (
{
name = b.uni0D00;
pos = (604,0);
},
{
name = virama;
pos = (1341,709);
}
);
background = {
shapes = (
{
closed = 1;
nodes = (
(410,581,o),
(311,473,o),
(311,287,cs),
(311,202,o),
(334,131,o),
(376,80,c),
(425,16,o),
(501,-12,o),
(608,-12,cs),
(803,-12,o),
(902,94,o),
(902,287,cs),
(902,463,o),
(821,581,o),
(607,581,cs)
);
},
{
closed = 1;
nodes = (
(684,453,o),
(719,391,o),
(719,286,cs),
(719,177,o),
(683,116,o),
(607,116,cs),
(528,116,o),
(494,182,o),
(494,283,cs),
(494,391,o),
(528,453,o),
(607,453,cs)
);
},
{
closed = 1;
nodes = (
(337,-12,o),
(388,3,o),
(456,46,c),
(384,157,l),
(347,127,o),
(313,115,o),
(274,115,cs),
(226,115,o),
(203,132,o),
(203,168,cs),
(203,187,o),
(211,201,o),
(225,211,cs),
(244,225,o),
(271,231,o),
(330,231,cs),
(1103,231,ls),
(1153,231,o),
(1176,229,o),
(1195,215,cs),
(1208,206,o),
(1216,191,o),
(1216,168,cs),
(1216,136,o),
(1201,116,o),
(1168,116,cs),
(1134,116,o),
(1115,136,o),
(1115,181,cs),
(1115,209,o),
(1128,240,o),
(1150,282,cs),
(1155,292,o),
(1155,303,o),
(1161,314,cs),
(1173,335,o),
(1187,358,o),
(1203,384,cs),
(1288,523,o),
(1317,569,o),
(1317,654,cs),
(1317,729,o),
(1278,803,o),
(1130,803,cs),
(1075,803,o),
(1022,794,o),
(984,782,c),
(1014,668,l),
(1028,671,o),
(1051,676,o),
(1083,676,cs),
(1117,676,o),
(1133,659,o),
(1133,628,cs),
(1133,593,o),
(1115,553,o),
(1046,439,cs),
(1022,399,o),
(1001,363,o),
(983,330,cs),
(977,319,o),
(979,308,o),
(974,298,cs),
(952,251,o),
(936,209,o),
(936,165,cs),
(936,63,o),
(1012,-12,o),
(1170,-12,cs),
(1324,-12,o),
(1395,60,o),
(1395,171,cs),
(1395,238,o),
(1364,288,o),
(1317,316,cs),
(1266,347,o),
(1199,359,o),
(1093,359,cs),
(383,359,ls),
(245,359,o),
(168,349,o),
(107,312,cs),
(60,283,o),
(27,238,o),
(27,167,cs),
(27,53,o),
(109,-12,o),
(250,-12,cs)
);
}
);
};
layerId = "2AD682F6-F6C7-4738-913E-50B961B61BC3";
shapes = (
{
closed = 1;
nodes = (
(410,581,o),
(311,473,o),
(311,287,cs),
(311,202,o),
(334,131,o),
(376,80,c),
(425,16,o),
(501,-12,o),
(608,-12,cs),
(803,-12,o),
(902,94,o),
(902,287,cs),
(902,463,o),
(821,581,o),
(607,581,cs)
);
},
{
closed = 1;
nodes = (
(684,453,o),
(719,391,o),
(719,286,cs),
(719,177,o),
(683,116,o),
(607,116,cs),
(528,116,o),
(494,182,o),
(494,283,cs),
(494,391,o),
(528,453,o),
(607,453,cs)
);
},
{
closed = 1;
nodes = (
(337,-12,o),
(388,3,o),
(456,46,c),
(384,157,l),
(347,127,o),
(313,115,o),
(274,115,cs),
(226,115,o),
(203,132,o),
(203,168,cs),
(203,187,o),
(211,201,o),
(225,211,cs),
(244,225,o),
(271,231,o),
(330,231,cs),
(1103,231,ls),
(1153,231,o),
(1176,229,o),
(1195,215,cs),
(1208,206,o),
(1216,191,o),
(1216,168,cs),
(1216,136,o),
(1201,116,o),
(1168,116,cs),
(1134,116,o),
(1115,136,o),
(1115,181,cs),
(1115,209,o),
(1128,240,o),
(1150,282,c),
(1155,292,o),
(1155,303,o),
(1161,314,c),
(1173,335,o),
(1187,358,o),
(1203,384,cs),
(1288,523,o),
(1317,569,o),
(1317,654,cs),
(1317,729,o),
(1278,803,o),
(1130,803,cs),
(1075,803,o),
(1022,794,o),
(984,782,c),
(1014,668,l),
(1028,671,o),
(1051,676,o),
(1083,676,cs),
(1117,676,o),
(1133,659,o),
(1133,628,cs),
(1133,593,o),
(1115,553,o),
(1046,439,cs),
(1022,399,o),
(1001,363,o),
(983,330,c),
(977,319,o),
(979,308,o),
(974,298,c),
(952,251,o),
(936,209,o),
(936,165,cs),
(936,63,o),
(1012,-12,o),
(1170,-12,cs),
(1324,-12,o),
(1395,60,o),
(1395,171,cs),
(1395,238,o),
(1364,288,o),
(1317,316,cs),
(1266,347,o),
(1199,359,o),
(1093,359,cs),
(383,359,ls),
(245,359,o),
(168,349,o),
(107,312,cs),
(60,283,o),
(27,238,o),
(27,167,cs),
(27,53,o),
(109,-12,o),
(250,-12,cs)
);
}
);
width = 1422;
}
);
unicode = 3455;
},
{
glyphname = thaprehalfmlym;
layers = (
{
anchors = (
{
name = b.uni0D00;
pos = (505,0);
}
);
background = {
shapes = (
{
closed = 1;
nodes = (
(55,569,l),
(55,0,l),
(422,0,l),
(422,128,l),
(241,128,l),
(241,569,l)
);
},
{
alignment = -1;
ref = thapart;
},
{
alignment = -1;
pos = (1011,0);
ref = viramamlym;
}
);
};
layerId = "2AD682F6-F6C7-4738-913E-50B961B61BC3";
shapes = (
{
closed = 1;
nodes = (
(55,569,l),
(55,0,l),
(422,0,l),
(422,128,l),
(241,128,l),
(241,569,l)
);
},
{
alignment = -1;
ref = thapart;
},
{
alignment = -1;
pos = (1011,0);
ref = viramamlym;
}
);
width = 1011;
}
);
},
{
glyphname = phaprehalfmlym;
layers = (
{
anchors = (
{
name = b.uni0D00;
pos = (642,0);
}
);
background = {
shapes = (
{
closed = 1;
nodes = (
(133,372,o),
(27,296,o),
(27,170,cs),
(27,97,o),
(60,37,o),
(108,-13,c),
(252,45,l),
(228,83,o),
(212,119,o),
(212,160,cs),
(212,210,o),
(236,245,o),
(287,245,cs),
(339,245,o),
(360,205,o),
(360,163,cs),
(360,123,o),
(343,92,o),
(329,70,c),
(392,0,l),
(774,0,l),
(773,128,l),
(521,128,l),
(518,76,l),
(531,105,o),
(538,143,o),
(538,173,cs),
(538,268,o),
(464,372,o),
(285,372,cs)
);
},
{
alignment = -1;
pos = (274,0);
ref = thapart;
},
{
alignment = -1;
pos = (1285,0);
ref = viramamlym;
}
);
};
layerId = "2AD682F6-F6C7-4738-913E-50B961B61BC3";
shapes = (
{
closed = 1;
nodes = (
(133,372,o),
(27,296,o),
(27,170,cs),
(27,97,o),
(60,37,o),
(108,-13,c),
(252,45,l),
(228,83,o),
(212,119,o),
(212,160,cs),
(212,210,o),
(236,245,o),
(287,245,cs),
(339,245,o),
(360,205,o),
(360,163,cs),
(360,123,o),
(343,92,o),
(329,70,c),
(392,0,l),
(774,0,l),
(773,128,l),
(521,128,l),
(518,76,l),
(531,105,o),
(538,143,o),
(538,173,cs),
(538,268,o),
(464,372,o),
(285,372,cs)
);
},
{
alignment = -1;
pos = (274,0);
ref = thapart;
},
{
alignment = -1;
pos = (1285,0);
ref = viramamlym;
}
);
width = 1285;
}
);
},
{
glyphname = lasubscriptmlym;
layers = (
{
background = {
shapes = (
{
closed = 1;
nodes = (
(-116,-337,o),
(-45,-255,o),
(-45,-125,cs),
(-45,-34,o),
(-79,34,o),
(-145,100,c),
(-266,36,l),
(-227,-10,o),
(-199,-57,o),
(-199,-132,cs),
(-199,-203,o),
(-227,-229,o),
(-260,-229,cs),
(-281,-229,o),
(-293,-222,o),
(-301,-211,cs),
(-313,-194,o),
(-315,-166,o),
(-316,-131,c),
(-316,-116,ls),
(-316,-34,o),
(-340,23,o),
(-400,61,cs),
(-447,91,o),
(-501,102,o),
(-571,102,cs),
(-717,102,o),
(-848,15,o),
(-848,-146,cs),
(-848,-262,o),
(-786,-337,o),
(-663,-337,cs),
(-548,-337,o),
(-492,-280,o),
(-492,-191,cs),
(-492,-114,o),
(-537,-58,o),
(-637,-58,cs),
(-693,-58,o),
(-745,-86,o),
(-801,-133,c),
(-775,-214,l),
(-734,-176,o),
(-705,-155,o),
(-667,-155,cs),
(-637,-155,o),
(-623,-172,o),
(-623,-198,cs),
(-623,-228,o),
(-640,-240,o),
(-663,-240,cs),
(-685,-240,o),
(-711,-226,o),
(-711,-160,cs),
(-711,-136,o),
(-711,-122,o),
(-710,-115,cs),
(-701,-32,o),
(-637,-2,o),
(-578,-2,cs),
(-542,-2,o),
(-519,-10,o),
(-501,-27,cs),
(-478,-50,o),
(-471,-88,o),
(-468,-143,c),
(-468,-144,l),
(-465,-217,o),
(-451,-257,o),
(-419,-288,cs),
(-384,-322,o),
(-328,-337,o),
(-267,-337,cs)
);
}
);
};
layerId = "2AD682F6-F6C7-4738-913E-50B961B61BC3";
shapes = (
{
closed = 1;
nodes = (
(-116,-337,o),
(-45,-255,o),
(-45,-125,cs),
(-45,-34,o),
(-79,34,o),
(-145,100,c),
(-266,36,l),
(-227,-10,o),
(-199,-57,o),
(-199,-132,cs),
(-199,-203,o),
(-227,-229,o),
(-260,-229,cs),
(-281,-229,o),
(-293,-222,o),
(-301,-211,cs),
(-313,-194,o),
(-315,-166,o),
(-316,-131,c),
(-316,-116,ls),
(-316,-34,o),
(-340,23,o),
(-400,61,cs),
(-447,91,o),
(-501,102,o),
(-571,102,cs),
(-717,102,o),
(-848,15,o),
(-848,-146,cs),
(-848,-262,o),
(-786,-337,o),
(-663,-337,cs),
(-548,-337,o),
(-492,-280,o),
(-492,-191,cs),
(-492,-114,o),
(-537,-58,o),
(-637,-58,cs),
(-693,-58,o),
(-745,-86,o),
(-801,-133,c),
(-775,-214,l),
(-734,-176,o),
(-705,-155,o),
(-667,-155,cs),
(-637,-155,o),
(-623,-172,o),
(-623,-198,cs),
(-623,-228,o),
(-640,-240,o),
(-663,-240,cs),
(-685,-240,o),
(-711,-226,o),
(-711,-160,cs),
(-711,-136,o),
(-711,-122,o),
(-710,-115,cs),
(-701,-32,o),
(-637,-2,o),
(-578,-2,cs),
(-542,-2,o),
(-519,-10,o),
(-501,-27,cs),
(-478,-50,o),
(-471,-88,o),
(-468,-143,c),
(-468,-144,l),
(-465,-217,o),
(-451,-257,o),
(-419,-288,cs),
(-384,-322,o),
(-328,-337,o),
(-267,-337,cs)
);
}
);
width = 0;
}
);
},
{
glyphname = yapostmlym;
layers = (
{
background = {
shapes = (
{
closed = 1;
nodes = (
(-165,-41,l),
(-168,-56,o),
(-169,-75,o),
(-169,-91,cs),
(-169,-200,o),
(-99,-270,o),
(80,-270,cs),
(236,-270,o),
(324,-213,o),
(324,-85,cs),
(324,-30,o),
(310,17,o),
(266,131,cs),
(240,199,o),
(224,257,o),
(224,322,cs),
(224,401,o),
(248,472,o),
(303,569,c),
(114,569,l),
(72,497,o),
(37,412,o),
(37,310,cs),
(37,228,o),
(60,152,o),
(94,70,cs),
(131,-20,o),
(137,-49,o),
(137,-83,cs),
(137,-123,o),
(116,-142,o),
(77,-142,cs),
(29,-142,o),
(18,-117,o),
(18,-88,cs),
(18,-78,o),
(19,-66,o),
(21,-58,c)
);
}
);
};
layerId = "2AD682F6-F6C7-4738-913E-50B961B61BC3";
shapes = (
{
closed = 1;
nodes = (
(-165,-41,l),
(-168,-56,o),
(-169,-75,o),
(-169,-91,cs),
(-169,-200,o),
(-99,-270,o),
(80,-270,cs),
(236,-270,o),
(324,-213,o),
(324,-85,cs),
(324,-30,o),
(310,17,o),
(266,131,cs),
(240,199,o),
(224,257,o),
(224,322,cs),
(224,401,o),
(248,472,o),
(303,569,c),
(114,569,l),
(72,497,o),
(37,412,o),
(37,310,cs),
(37,228,o),
(60,152,o),
(94,70,cs),
(131,-20,o),
(137,-49,o),
(137,-83,cs),
(137,-123,o),
(116,-142,o),
(77,-142,cs),
(29,-142,o),
(18,-117,o),
(18,-88,cs),
(18,-78,o),
(19,-66,o),
(21,-58,c)
);
}
);
width = 326;
}
);
},
{
glyphname = vapostmlym;
layers = (
{
background = {
shapes = (
{
closed = 1;
nodes = (
(55,569,l),
(55,-58,l),
(-160,-58,l),
(-160,-189,l),
(242,-189,l),
(242,569,l)
);
}
);
};
layerId = "2AD682F6-F6C7-4738-913E-50B961B61BC3";
shapes = (
{
closed = 1;
nodes = (
(55,569,l),
(55,-58,l),
(-160,-58,l),
(-160,-189,l),
(242,-189,l),
(242,569,l)
);
}
);
width = 297;
}
);
},
{
glyphname = rapostmlym;
layers = (
{
background = {
shapes = (
{
closed = 1;
nodes = (
(151,569,l),
(68,369,o),
(33,244,o),
(33,77,cs),
(33,-104,o),
(110,-201,o),
(310,-201,cs),
(339,-201,o),
(374,-198,o),
(394,-192,c),
(378,-62,l),
(360,-65,o),
(345,-67,o),
(322,-67,cs),
(268,-67,o),
(219,-52,o),
(219,80,cs),
(219,197,o),
(244,358,o),
(344,569,c)
);
}
);
};
layerId = "2AD682F6-F6C7-4738-913E-50B961B61BC3";
shapes = (
{
closed = 1;
nodes = (
(151,569,l),
(68,369,o),
(33,244,o),
(33,77,cs),
(33,-104,o),
(110,-201,o),
(310,-201,cs),
(339,-201,o),
(374,-198,o),
(394,-192,c),
(378,-62,l),
(360,-65,o),
(345,-67,o),
(322,-67,cs),
(268,-67,o),
(219,-52,o),
(219,80,cs),
(219,197,o),
(244,358,o),
(344,569,c)
);
}
);
width = 336;
}
);
},
